<svg width="34" height="24" viewBox="0 0 34 24" fill="none" xmlns="http://www.w3.org/2000/svg">
<path d="M12.0002 11.9987C15.2169 11.9987 17.8335 9.38206 17.8335 6.16538C17.8335 2.9487 15.2169 0.332031 12.0002 0.332031C8.78352 0.332031 6.16685 2.9487 6.16685 6.16538C6.16685 9.38206 8.78352 11.9987 12.0002 11.9987ZM12.0002 3.66537C13.3835 3.66537 14.5002 4.78204 14.5002 6.16538C14.5002 7.54872 13.3835 8.66539 12.0002 8.66539C10.6169 8.66539 9.50019 7.54872 9.50019 6.16538C9.50019 4.78204 10.6169 3.66537 12.0002 3.66537ZM12.0002 14.9154C8.10018 14.9154 0.333496 16.8654 0.333496 20.7488V21.9988C0.333496 22.9154 1.0835 23.6654 2.00017 23.6654H22.0002C22.9169 23.6654 23.6669 22.9154 23.6669 21.9988V20.7488C23.6669 16.8654 15.9002 14.9154 12.0002 14.9154ZM4.23351 20.3321C5.63351 19.3654 9.01685 18.2487 12.0002 18.2487C14.9835 18.2487 18.3669 19.3654 19.7669 20.3321H4.23351ZM23.7336 15.0154C25.6669 16.4154 27.0002 18.2821 27.0002 20.7488V23.6654H32.0003C32.9169 23.6654 33.6669 22.9154 33.6669 21.9988V20.7488C33.6669 17.3821 27.8336 15.4654 23.7336 15.0154ZM22.0002 11.9987C25.2169 11.9987 27.8336 9.38206 27.8336 6.16538C27.8336 2.9487 25.2169 0.332031 22.0002 0.332031C21.1002 0.332031 20.2669 0.548698 19.5002 0.915366C20.5502 2.3987 21.1669 4.21538 21.1669 6.16538C21.1669 8.11539 20.5502 9.93206 19.5002 11.4154C20.2669 11.7821 21.1002 11.9987 22.0002 11.9987Z" fill="black"/>
</svg>
