<svg width="34" height="34" viewBox="0 0 34 34" fill="none" xmlns="http://www.w3.org/2000/svg">
<path fill-rule="evenodd" clip-rule="evenodd" d="M28.1787 11.6561C28.8295 12.307 28.8295 13.3623 28.1787 14.0131L24.3572 17.8346L28.1787 21.6561C28.8295 22.307 28.8295 23.3623 28.1787 24.0131C27.5278 24.664 26.4725 24.664 25.8217 24.0131L20.8217 19.0131C20.1708 18.3623 20.1708 17.307 20.8217 16.6561L25.8217 11.6561C26.4725 11.0053 27.5278 11.0053 28.1787 11.6561Z" fill="black"/>
<path fill-rule="evenodd" clip-rule="evenodd" d="M14.5001 0.332031C15.4206 0.332031 16.1668 1.07822 16.1668 1.9987V18.6654C16.1668 21.9683 14.6687 25.1505 12.6276 27.7154C10.581 30.2873 7.86138 32.4028 5.14159 33.537C4.29203 33.8913 3.31612 33.4897 2.96184 32.6402C2.60756 31.7906 3.00906 30.8147 3.85863 30.4604C6.00117 29.567 8.28155 27.8237 10.0193 25.6398C11.7627 23.449 12.8334 20.9784 12.8334 18.6654V1.9987C12.8334 1.07822 13.5796 0.332031 14.5001 0.332031Z" fill="black"/>
<path fill-rule="evenodd" clip-rule="evenodd" d="M0.333496 4.4987C0.333496 2.19752 2.19898 0.332031 4.50016 0.332031H29.5002C31.8014 0.332031 33.6668 2.19753 33.6668 4.4987V8.66536C33.6668 9.58584 32.9206 10.332 32.0002 10.332C31.0797 10.332 30.3335 9.58584 30.3335 8.66536V4.4987C30.3335 4.03845 29.9604 3.66536 29.5002 3.66536H4.50016C4.03993 3.66536 3.66683 4.03846 3.66683 4.4987V29.4987C3.66683 29.959 4.03991 30.332 4.50016 30.332H29.5002C29.9604 30.332 30.3335 29.959 30.3335 29.4987V26.582C30.3335 25.6616 31.0797 24.9154 32.0002 24.9154C32.9206 24.9154 33.6668 25.6616 33.6668 26.582V29.4987C33.6668 31.7999 31.8014 33.6654 29.5002 33.6654H4.50016C2.199 33.6654 0.333496 31.7999 0.333496 29.4987V4.4987Z" fill="black"/>
</svg>
