<svg width="40" height="40" viewBox="0 0 40 40" fill="none" xmlns="http://www.w3.org/2000/svg">
<g clip-path="url(#clip0_7097_148554)">
<path d="M23.4673 12.1719L21.869 12.9403" stroke="black" stroke-width="1.25937" stroke-miterlimit="10"/>
<path d="M32.3496 7.90234L27.3749 10.2928" stroke="black" stroke-width="1.25937" stroke-miterlimit="10"/>
<path d="M17.9606 14.8153L1.40649 22.7708C1.04141 22.9464 0.890534 23.3787 1.06956 23.7367L4.53508 30.67C4.7141 31.028 5.15501 31.176 5.52009 31.0004L36.4639 16.1287L38.5962 15.1043C38.9613 14.9287 39.1125 14.4964 38.9335 14.1384L35.4676 7.20505C35.2886 6.84707 34.8477 6.69913 34.4826 6.87467L32.3503 7.89915" stroke="black" stroke-width="1.25937" stroke-miterlimit="10"/>
<path d="M26.8578 13.3906L20.6253 16.3862L18.5509 17.3831C18.1858 17.5586 18.0349 17.991 18.2136 18.349L19.471 20.8644C19.65 21.2223 20.0909 21.3703 20.456 21.1947L26.4431 18.3175L32.676 15.3219L34.7059 14.3465C35.071 14.1709 35.2218 13.7386 35.0428 13.3806L33.7854 10.8652C33.6067 10.5072 33.1654 10.3593 32.8003 10.5348L26.8582 13.3906" stroke="black" stroke-width="1.25937" stroke-miterlimit="10"/>
<path d="M23.4671 12.1631C23.1696 11.6073 23.3545 11.1965 23.7427 11.0098L26.2455 9.80671C26.6336 9.62044 27.078 9.72853 27.3755 10.2847L23.4671 12.1631Z" stroke="black" stroke-width="1.25937" stroke-miterlimit="10"/>
<path d="M17.9603 14.8117C17.6624 14.2555 17.8473 13.8447 18.2354 13.6584L20.7386 12.4553C21.1268 12.2687 21.5708 12.3771 21.8687 12.9333L17.9603 14.8117Z" stroke="black" stroke-width="1.25937" stroke-miterlimit="10"/>
<path d="M23.8441 22.3242L36.2986 22.7987C36.9795 22.8692 37.4595 23.471 37.3708 24.1428L37.1839 25.5613" stroke="black" stroke-width="1.25937" stroke-miterlimit="10" stroke-linecap="round"/>
<path d="M0.68524 26.3698C1.03625 23.8298 3.73331 22.0139 6.70867 22.3136L36.9716 24.412C37.3906 24.4542 37.6904 24.7784 37.6412 25.1364L36.8391 33.0383C36.7895 33.3963 36.4099 33.6519 35.9905 33.6098L5.43753 31.5113C2.46178 31.2116 0.334231 28.9097 0.68563 26.3698L0.68524 26.3698ZM5.60717 28.7932C6.74697 29.4831 8.26319 29.1696 8.99374 28.093C9.72429 27.0163 9.39204 25.5841 8.25225 24.8942C7.11244 24.2043 5.59623 24.5178 4.86568 25.5944C4.13513 26.671 4.46738 28.1033 5.60717 28.7932Z" fill="black" stroke="black" stroke-width="0.581246" stroke-miterlimit="10"/>
</g>
<defs>
<clipPath id="clip0_7097_148554">
<rect width="39.5389" height="27.9098" fill="white" transform="matrix(-1 8.74228e-08 8.74228e-08 1 39.7695 6.04688)"/>
</clipPath>
</defs>
</svg>
