<svg width="239" height="211" viewBox="0 0 239 211" fill="none" xmlns="http://www.w3.org/2000/svg">
<g clip-path="url(#clip0_7097_148565)">
<path d="M118.501 63.0352L112.883 69.8955" stroke="#258BAC" stroke-width="6.29684" stroke-miterlimit="10"/>
<path d="M149.727 24.9219L132.237 46.2684" stroke="#258BAC" stroke-width="6.29684" stroke-miterlimit="10"/>
<path d="M99.1367 86.6557L40.9403 157.694C39.657 159.261 39.8872 161.539 41.455 162.782L71.8129 186.875C73.3807 188.119 75.6913 187.857 76.9745 186.29L185.757 53.4982L193.254 44.3492C194.537 42.7821 194.309 40.5034 192.741 39.2597L162.381 15.1682C160.813 13.9245 158.503 14.186 157.219 15.7531L149.723 24.9021" stroke="#258BAC" stroke-width="6.29684" stroke-miterlimit="10"/>
<path d="M136.441 61.3945L114.531 88.1419L107.239 97.0436C105.956 98.6107 106.186 100.889 107.752 102.133L118.766 110.873C120.334 112.117 122.645 111.856 123.928 110.288L144.976 84.5965L166.887 57.8482L174.024 49.138C175.307 47.571 175.077 45.293 173.509 44.0493L162.494 35.3091C160.928 34.0645 158.616 34.3269 157.333 35.894L136.443 61.3937" stroke="#258BAC" stroke-width="6.29684" stroke-miterlimit="10"/>
<path d="M118.482 62.9988C115.96 61.1092 115.929 58.8567 117.293 57.1905L126.091 46.449C127.456 44.7846 129.699 44.335 132.222 46.2263L118.482 62.9988Z" stroke="#258BAC" stroke-width="6.29684" stroke-miterlimit="10"/>
<path d="M99.1276 86.6401C96.6025 84.7497 96.5719 82.4972 97.9369 80.8328L106.737 70.0904C108.101 68.4243 110.342 67.9772 112.867 69.8676L99.1276 86.6401Z" stroke="#258BAC" stroke-width="6.29684" stroke-miterlimit="10"/>
<path d="M141.668 108.246L199.106 84.0714C202.34 82.9517 205.787 84.6639 206.805 87.8959L208.957 94.7183" stroke="#258BAC" stroke-width="6.29684" stroke-miterlimit="10" stroke-linecap="round"/>
<path d="M46.543 176.063C42.7651 163.811 51.148 149.882 65.2638 144.952L206.829 90.4956C208.817 89.801 210.861 90.6366 211.395 92.3628L224.462 129.864C224.993 131.591 223.814 133.552 221.824 134.247L78.9445 189.316C64.8269 194.248 50.321 188.314 46.5448 176.062L46.543 176.063ZM73.968 176.641C80.5909 177.358 86.7987 172.732 87.8335 166.31C88.8683 159.887 84.3354 154.099 77.7125 153.382C71.0896 152.665 64.8818 157.291 63.847 163.713C62.8122 170.136 67.345 175.924 73.968 176.641Z" fill="#258BAC" stroke="#258BAC" stroke-width="2.90623" stroke-miterlimit="10"/>
</g>
<defs>
<clipPath id="clip0_7097_148565">
<rect width="197.695" height="139.549" fill="white" transform="matrix(-0.906258 0.422725 0.422725 0.906258 179.427 0.828125)"/>
</clipPath>
</defs>
</svg>
