<svg width="239" height="211" viewBox="0 0 239 211" fill="none" xmlns="http://www.w3.org/2000/svg">
<g clip-path="url(#clip0_8819_201366)">
<path d="M118.501 62.207L112.883 69.0674" stroke="#E15173" stroke-width="6.29684" stroke-miterlimit="10"/>
<path d="M149.726 24.0938L132.236 45.4403" stroke="#E15173" stroke-width="6.29684" stroke-miterlimit="10"/>
<path d="M99.1362 85.8276L40.9398 156.866C39.6566 158.433 39.8867 160.711 41.4545 161.954L71.8124 186.047C73.3802 187.29 75.6908 187.029 76.974 185.462L185.757 52.6701L193.253 43.5211C194.536 41.954 194.308 39.6753 192.74 38.4316L162.381 14.34C160.813 13.0963 158.502 13.3579 157.219 14.9249L149.722 24.0739" stroke="#E15173" stroke-width="6.29684" stroke-miterlimit="10"/>
<path d="M136.441 60.5664L114.531 87.3138L107.238 96.2155C105.955 97.7825 106.185 100.06 107.751 101.305L118.766 110.045C120.334 111.289 122.644 111.027 123.927 109.46L144.975 83.7684L166.887 57.0201L174.023 48.3099C175.306 46.7428 175.076 44.4649 173.508 43.2212L162.494 34.4809C160.928 33.2364 158.615 33.4988 157.332 35.0658L136.443 60.5655" stroke="#E15173" stroke-width="6.29684" stroke-miterlimit="10"/>
<path d="M118.482 62.1706C115.96 60.2811 115.929 58.0286 117.293 56.3624L126.091 45.6209C127.456 43.9565 129.699 43.5069 132.222 45.3981L118.482 62.1706Z" stroke="#E15173" stroke-width="6.29684" stroke-miterlimit="10"/>
<path d="M99.1271 85.812C96.602 83.9216 96.5714 81.6691 97.9365 80.0046L106.736 69.2623C108.101 67.5961 110.342 67.1491 112.867 69.0395L99.1271 85.812Z" stroke="#E15173" stroke-width="6.29684" stroke-miterlimit="10"/>
<path d="M141.667 107.417L199.105 83.2433C202.34 82.1236 205.787 83.8357 206.805 87.0677L208.956 93.8902" stroke="#E15173" stroke-width="6.29684" stroke-miterlimit="10" stroke-linecap="round"/>
<path d="M46.543 175.234C42.7651 162.983 51.148 149.054 65.2638 144.124L206.829 89.6675C208.817 88.9729 210.861 89.8085 211.395 91.5347L224.462 129.036C224.993 130.763 223.814 132.723 221.824 133.419L78.9445 188.488C64.8269 193.419 50.321 187.486 46.5448 175.234L46.543 175.234ZM73.968 175.813C80.5909 176.53 86.7987 171.904 87.8335 165.482C88.8683 159.059 84.3354 153.271 77.7125 152.554C71.0896 151.837 64.8818 156.463 63.847 162.885C62.8122 169.308 67.345 175.096 73.968 175.813Z" fill="#E15173" stroke="#E15173" stroke-width="2.90623" stroke-miterlimit="10"/>
</g>
<defs>
<clipPath id="clip0_8819_201366">
<rect width="197.695" height="139.549" fill="white" transform="matrix(-0.906258 0.422725 0.422725 0.906258 179.427 0)"/>
</clipPath>
</defs>
</svg>
