<svg width="20" height="20" viewBox="0 0 20 20" fill="none" xmlns="http://www.w3.org/2000/svg">
<path d="M2.83335 16.668V17.168H3.33335H14.5V17.8346H3.33335C2.69283 17.8346 2.16669 17.3085 2.16669 16.668V5.5013H2.83335V16.668ZM16.6667 13.8346H17.1667V13.3346V3.33464V2.83464H16.6667H6.66669H6.16669V3.33464V13.3346V13.8346H6.66669H16.6667ZM12.5 8.66797H12V9.16797V11.168H11.3334V9.16797V8.66797H10.8334H8.83335V8.0013H10.8334H11.3334V7.5013V5.5013H12V7.5013V8.0013H12.5H14.5V8.66797H12.5ZM6.66669 2.16797H16.6667C17.3072 2.16797 17.8334 2.69411 17.8334 3.33464V13.3346C17.8334 13.9752 17.3072 14.5013 16.6667 14.5013H6.66669C6.02616 14.5013 5.50002 13.9752 5.50002 13.3346V3.33464C5.50002 2.69411 6.02616 2.16797 6.66669 2.16797Z" fill="black" stroke="#258BAC"/>
</svg>
