<svg width="40" height="40" viewBox="0 0 40 40" fill="none" xmlns="http://www.w3.org/2000/svg">
<path d="M6.16683 33.332V33.832H6.66683H29.5002V36.1654H6.66683C5.10964 36.1654 3.8335 34.8892 3.8335 33.332V10.4987H6.16683V33.332ZM33.3335 27.1654H33.8335V26.6654V6.66536V6.16536H33.3335H13.3335H12.8335V6.66536V26.6654V27.1654H13.3335H33.3335ZM25.0002 17.832H24.5002V18.332V22.832H22.1668V18.332V17.832H21.6668H17.1668V15.4987H21.6668H22.1668V14.9987V10.4987H24.5002V14.9987V15.4987H25.0002H29.5002V17.832H25.0002ZM13.3335 3.83203H33.3335C34.8907 3.83203 36.1668 5.10817 36.1668 6.66536V26.6654C36.1668 28.2226 34.8907 29.4987 33.3335 29.4987H13.3335C11.7763 29.4987 10.5002 28.2226 10.5002 26.6654V6.66536C10.5002 5.10817 11.7763 3.83203 13.3335 3.83203Z" fill="#3D3D3D" stroke="#3D3D3D"/>
</svg>
