<svg width="22" height="20" viewBox="0 0 22 20" fill="none" xmlns="http://www.w3.org/2000/svg">
<path d="M11.0447 6.25C11.801 6.25 12.4141 5.69036 12.4141 5C12.4141 4.30964 11.801 3.75 11.0447 3.75C10.2884 3.75 9.67529 4.30964 9.67529 5C9.67529 5.69036 10.2884 6.25 11.0447 6.25Z" fill="black"/>
<path d="M11.0447 11.25C11.801 11.25 12.4141 10.6904 12.4141 10C12.4141 9.30964 11.801 8.75 11.0447 8.75C10.2884 8.75 9.67529 9.30964 9.67529 10C9.67529 10.6904 10.2884 11.25 11.0447 11.25Z" fill="black"/>
<path d="M11.0447 16.25C11.801 16.25 12.4141 15.6904 12.4141 15C12.4141 14.3096 11.801 13.75 11.0447 13.75C10.2884 13.75 9.67529 14.3096 9.67529 15C9.67529 15.6904 10.2884 16.25 11.0447 16.25Z" fill="black"/>
</svg>
