<svg width="20" height="20" viewBox="0 0 20 20" fill="none" xmlns="http://www.w3.org/2000/svg">
<path d="M8.33317 10.0013C8.33317 9.08464 9.08317 8.33464 9.99984 8.33464C10.9165 8.33464 11.6665 9.08464 11.6665 10.0013C11.6665 10.918 10.9165 11.668 9.99984 11.668C9.08317 11.668 8.33317 10.918 8.33317 10.0013ZM6.49984 14.7513L5.24984 13.5846L6.49984 12.3346C6.08317 11.668 5.83317 10.8346 5.83317 10.0013C5.83317 9.16797 6.08317 8.33464 6.49984 7.7513L5.24984 6.5013L6.49984 5.2513L7.6665 6.5013C8.33317 6.08464 9.1665 5.83464 9.99984 5.83464C10.8332 5.83464 11.6665 6.08464 12.3332 6.5013L13.5832 5.2513L14.7498 6.41797L13.4998 7.66797C13.9165 8.33464 14.1665 9.16797 14.1665 10.0013C14.1665 10.8346 13.9165 11.668 13.4998 12.3346L14.7498 13.5846L13.5832 14.7513L12.3332 13.5013C11.6665 13.918 10.8332 14.168 9.99984 14.168C9.1665 14.168 8.33317 13.918 7.74984 13.5013L6.49984 14.7513ZM9.99984 7.5013C8.58317 7.5013 7.49984 8.58464 7.49984 10.0013C7.49984 11.418 8.58317 12.5013 9.99984 12.5013C11.4165 12.5013 12.4998 11.418 12.4998 10.0013C12.4998 8.58464 11.4165 7.5013 9.99984 7.5013ZM16.6665 1.66797C17.5832 1.66797 18.3332 2.41797 18.3332 3.33464V16.668C18.3332 17.5846 17.5832 18.3346 16.6665 18.3346H15.8332V19.168H12.4998V18.3346H7.49984V19.168H4.1665V18.3346H3.33317C2.4165 18.3346 1.6665 17.5846 1.6665 16.668V3.33464C1.6665 2.41797 2.4165 1.66797 3.33317 1.66797H16.6665ZM16.6665 16.668V3.33464H3.33317V16.668H16.6665Z" fill="black"/>
</svg>
