<svg width="27" height="26" viewBox="0 0 27 26" fill="none" xmlns="http://www.w3.org/2000/svg">
<path fill-rule="evenodd" clip-rule="evenodd" d="M13.2097 25.9191C20.367 25.9191 26.1692 20.1169 26.1692 12.9595C26.1692 5.80218 20.367 0 13.2097 0C6.0523 0 0.250122 5.80218 0.250122 12.9595C0.250122 20.1169 6.0523 25.9191 13.2097 25.9191ZM18.4206 6.55567C19.0835 6.2646 19.7925 6.85311 19.6771 7.59872L17.9694 18.6304C17.8656 19.301 17.1517 19.6506 16.5968 19.3026L11.649 16.1999C11.1334 15.8765 11.0483 15.1276 11.477 14.6856L15.8961 10.1294C16.0543 9.96631 15.8525 9.70308 15.6674 9.83099L9.5281 14.0725C9.07427 14.386 8.51151 14.4716 7.9918 14.3061L5.26874 13.4389C4.77566 13.2819 4.74088 12.5618 5.2163 12.3531L18.4206 6.55567Z" fill="#258BAC"/>
</svg>
