<svg width="26" height="26" viewBox="0 0 26 26" fill="none" xmlns="http://www.w3.org/2000/svg">
<path fill-rule="evenodd" clip-rule="evenodd" d="M13.0405 25.9191C20.1978 25.9191 26 20.1169 26 12.9595C26 5.80218 20.1978 0 13.0405 0C5.88311 0 0.0809326 5.80218 0.0809326 12.9595C0.0809326 20.1169 5.88311 25.9191 13.0405 25.9191ZM19.2455 7.90603C19.9308 7.81894 20.5881 7.63958 21.205 7.36898C20.7426 8.05739 20.1755 8.65561 19.5005 9.13459C19.5078 9.2787 19.513 9.42385 19.513 9.57418C19.513 14.0675 16.0917 19.2513 9.83376 19.2513C7.90849 19.2513 6.12319 18.6966 4.61677 17.7252C4.88426 17.7594 5.15174 17.7719 5.43063 17.7719C7.02102 17.7719 8.49012 17.2265 9.64714 16.3214C8.16043 16.2893 6.91009 15.2992 6.46947 13.9524C6.67578 13.998 6.89558 14.0105 7.1133 14.0105C7.4264 14.0105 7.7281 13.9742 8.00491 13.8985C6.4591 13.5823 5.2803 12.2096 5.2803 10.557V10.5197C5.7344 10.7696 6.27041 10.9282 6.81678 10.9386C5.91273 10.3341 5.30622 9.2901 5.30622 8.11234C5.30622 7.4851 5.47832 6.90244 5.77173 6.39339C7.45232 8.45758 9.95403 9.81263 12.7813 9.95052C12.7253 9.70377 12.7025 9.44458 12.7025 9.17502C12.7025 7.30159 14.2182 5.77341 16.101 5.77341C17.0714 5.77341 17.9609 6.185 18.5851 6.84957C19.3585 6.69509 20.0842 6.41827 20.7415 6.02638C20.4886 6.82365 19.9505 7.4851 19.2455 7.90603Z" fill="#258BAC"/>
</svg>
