<svg width="26" height="27" viewBox="0 0 26 27" fill="none" xmlns="http://www.w3.org/2000/svg">
<path fill-rule="evenodd" clip-rule="evenodd" d="M13 26.5C20.1797 26.5 26 20.6797 26 13.5C26 6.3203 20.1797 0.5 13 0.5C5.8203 0.5 0 6.3203 0 13.5C0 20.6797 5.8203 26.5 13 26.5ZM15.5528 6.74137C16.7419 6.94244 17.879 7.29604 18.9398 7.77444C18.949 7.77812 18.9567 7.78501 18.9613 7.79385C20.8409 10.5131 21.7686 13.5818 21.4219 17.1136C21.4211 17.1211 21.4187 17.1283 21.4149 17.1348C21.411 17.1412 21.4059 17.1468 21.3997 17.1511C20.139 18.0696 18.732 18.7684 17.2383 19.2179C17.2278 19.2211 17.2166 19.2209 17.2062 19.2174C17.1957 19.2139 17.1866 19.2073 17.1801 19.1985C16.866 18.7679 16.5804 18.3145 16.3308 17.8382C16.3274 17.8316 16.3254 17.8244 16.325 17.817C16.3246 17.8096 16.3258 17.8022 16.3285 17.7953C16.3312 17.7884 16.3353 17.7822 16.3406 17.777C16.3459 17.7719 16.3522 17.7679 16.3592 17.7654C16.8119 17.5976 17.2432 17.3958 17.6578 17.1573C17.6652 17.1529 17.6714 17.1468 17.6758 17.1394C17.6802 17.132 17.6828 17.1237 17.6832 17.1151C17.6836 17.1065 17.6819 17.098 17.6782 17.0902C17.6745 17.0824 17.6689 17.0757 17.662 17.0706C17.5739 17.0062 17.4872 16.9389 17.404 16.871C17.3964 16.8649 17.3872 16.8611 17.3776 16.86C17.3679 16.8589 17.3581 16.8605 17.3493 16.8647C14.6584 18.0878 11.7097 18.0878 8.98698 16.8647C8.97821 16.8608 8.96851 16.8593 8.95896 16.8605C8.94941 16.8618 8.94039 16.8656 8.9329 16.8717C8.8497 16.9389 8.76234 17.0062 8.67498 17.0706C8.66811 17.0758 8.66263 17.0826 8.65904 17.0905C8.65545 17.0983 8.65386 17.1069 8.65441 17.1155C8.65496 17.1241 8.65764 17.1324 8.66219 17.1397C8.66675 17.147 8.67305 17.153 8.68053 17.1573C9.09659 17.3939 9.53056 17.5974 9.97845 17.7661C9.98538 17.7685 9.9917 17.7724 9.99699 17.7775C10.0023 17.7826 10.0064 17.7888 10.0091 17.7956C10.0118 17.8025 10.013 17.8098 10.0126 17.8171C10.0122 17.8245 10.0103 17.8317 10.0069 17.8382C9.76206 18.3148 9.47772 18.7701 9.15685 19.1992C9.15008 19.2077 9.1409 19.214 9.13051 19.2172C9.12012 19.2204 9.109 19.2204 9.09861 19.2172C7.60748 18.7664 6.20283 18.068 4.94346 17.1511C4.93748 17.1465 4.93249 17.1408 4.92879 17.1342C4.9251 17.1277 4.92278 17.1204 4.92197 17.1129C4.63146 14.0581 5.22287 10.9645 7.38053 7.79246C7.38584 7.7841 7.39358 7.77757 7.40272 7.77374C8.46421 7.29465 9.60128 6.94105 10.7896 6.73998C10.8004 6.73828 10.8114 6.73989 10.8212 6.7446C10.8309 6.74931 10.8391 6.75689 10.8444 6.76633C11.0027 7.04243 11.1456 7.32714 11.2722 7.61913C12.5333 7.43071 13.8154 7.43071 15.0765 7.61913C15.1902 7.35566 15.3525 7.02217 15.4981 6.76633C15.5035 6.757 15.5117 6.74959 15.5215 6.74512C15.5313 6.74065 15.5423 6.73934 15.5528 6.74137ZM8.91834 13.6026C8.91834 14.5116 9.59434 15.2527 10.4139 15.2527C11.2466 15.2527 11.9094 14.5122 11.9094 13.6026C11.9226 12.6992 11.2528 11.9525 10.4139 11.9525C9.58117 11.9525 8.91834 12.6929 8.91834 13.6026ZM14.4477 13.6026C14.4477 14.5116 15.123 15.2527 15.9432 15.2527C16.7828 15.2527 17.4387 14.5122 17.4387 13.6026C17.4519 12.6992 16.7821 11.9525 15.9432 11.9525C15.1098 11.9525 14.4477 12.6929 14.4477 13.6026Z" fill="#258BAC"/>
</svg>
