<svg width="27" height="27" viewBox="0 0 27 27" fill="none" xmlns="http://www.w3.org/2000/svg">
<g clip-path="url(#clip0_3411_14377)">
<path d="M13.0859 0.5C5.90615 0.5 0.0859375 6.32021 0.0859375 13.5C0.0859375 20.6798 5.90615 26.5 13.0859 26.5C20.2657 26.5 26.0859 20.6798 26.0859 13.5C26.0859 6.32021 20.2657 0.5 13.0859 0.5ZM9.90365 18.8882H7.27115V10.4166H9.90365V18.8882ZM8.57115 9.37656C7.73969 9.37656 7.20208 8.7875 7.20208 8.05896C7.20208 7.31552 7.75594 6.74406 8.605 6.74406C9.45406 6.74406 9.97406 7.31552 9.99031 8.05896C9.99031 8.7875 9.45406 9.37656 8.57115 9.37656ZM19.5182 18.8882H16.8857V14.1933C16.8857 13.1005 16.5039 12.3584 15.5519 12.3584C14.8247 12.3584 14.3927 12.8608 14.2018 13.3443C14.1314 13.5163 14.1137 13.76 14.1137 14.0024V18.8869H11.4799V13.1181C11.4799 12.0605 11.446 11.1762 11.4108 10.4152H13.698L13.8185 11.592H13.8714C14.218 11.0395 15.0671 10.2243 16.4876 10.2243C18.2196 10.2243 19.5182 11.3848 19.5182 13.8792V18.8882Z" fill="#258BAC"/>
</g>
<defs>
<clipPath id="clip0_3411_14377">
<rect width="26" height="26" fill="white" transform="translate(0.175781 0.5)"/>
</clipPath>
</defs>
</svg>
