<svg width="26" height="26" viewBox="0 0 26 26" fill="none" xmlns="http://www.w3.org/2000/svg">
<g clip-path="url(#clip0_3977_133854)">
<path fill-rule="evenodd" clip-rule="evenodd" d="M26 13C26 20.1793 20.1793 26 13 26C5.82075 26 0 20.1793 0 13C0 5.82075 5.82075 0 13 0C20.1793 0 26 5.82075 26 13ZM21.3287 11.9795C21.5388 12.2796 21.658 12.6338 21.671 13C21.6767 13.3582 21.5808 13.7107 21.3944 14.0167C21.2081 14.3227 20.9389 14.5697 20.618 14.729C20.6332 14.9197 20.6332 15.1103 20.618 15.301C20.618 18.213 17.225 20.579 13.039 20.579C8.853 20.579 5.46 18.213 5.46 15.301C5.44536 15.1106 5.44536 14.9194 5.46 14.729C5.2121 14.613 4.99227 14.4446 4.81562 14.2355C4.63897 14.0265 4.50969 13.7816 4.43666 13.5178C4.36363 13.254 4.34858 12.9775 4.39256 12.7074C4.43654 12.4372 4.53849 12.1798 4.69141 11.9528C4.84434 11.7258 5.0446 11.5346 5.27844 11.3923C5.51229 11.2501 5.77416 11.1601 6.04606 11.1287C6.31797 11.0973 6.59345 11.1251 6.85358 11.2102C7.11371 11.2954 7.35232 11.4359 7.553 11.622C9.05095 10.6061 10.8132 10.0503 12.623 10.023L13.585 5.512C13.5958 5.45978 13.6169 5.41022 13.647 5.36619C13.6771 5.32217 13.7156 5.28456 13.7603 5.25554C13.8051 5.22652 13.8551 5.20666 13.9076 5.19713C13.9601 5.1876 14.0139 5.18857 14.066 5.2L17.251 5.837C17.4065 5.56977 17.6522 5.36673 17.944 5.26432C18.2357 5.16191 18.5544 5.16685 18.8429 5.27824C19.1313 5.38963 19.3706 5.60019 19.5178 5.87211C19.665 6.14403 19.7104 6.45951 19.646 6.76192C19.5815 7.06433 19.4114 7.33386 19.1661 7.52214C18.9209 7.71043 18.6165 7.80512 18.3077 7.78923C17.999 7.77335 17.7059 7.64792 17.4813 7.43546C17.2566 7.223 17.1151 6.93743 17.082 6.63L14.3 6.045L13.455 10.101C15.2428 10.1394 16.9811 10.6947 18.46 11.7C18.6574 11.5102 18.8936 11.3654 19.1523 11.2755C19.411 11.1857 19.6861 11.1529 19.9587 11.1794C20.2312 11.206 20.4948 11.2913 20.7313 11.4294C20.9678 11.5675 21.1716 11.7552 21.3287 11.9795ZM8.88983 13.5774C8.79494 13.7194 8.72895 13.8787 8.69561 14.0462C8.66228 14.2137 8.66226 14.3861 8.69556 14.5536C8.7628 14.8918 8.96167 15.1895 9.24842 15.3812C9.53516 15.5728 9.88629 15.6427 10.2246 15.5754C10.3921 15.5421 10.5513 15.4762 10.6933 15.3813C10.8353 15.2865 10.9573 15.1646 11.0522 15.0226C11.2438 14.7358 11.3137 14.3847 11.2464 14.0464C11.1792 13.7082 10.9803 13.4105 10.6936 13.2188C10.4068 13.0272 10.0557 12.9573 9.71744 13.0246C9.37918 13.0918 9.08148 13.2907 8.88983 13.5774ZM13.013 18.876C14.1668 18.9237 15.3021 18.6225 16.224 17.927C16.293 17.8598 16.3324 17.7679 16.3336 17.6716C16.3348 17.5753 16.2977 17.4825 16.2305 17.4135C16.1972 17.3794 16.1575 17.3521 16.1137 17.3333C16.0699 17.3145 16.0228 17.3045 15.9751 17.3039C15.8788 17.3027 15.786 17.3398 15.717 17.407C14.928 17.973 13.9695 18.2527 13 18.2C12.0317 18.2433 11.0776 17.9543 10.296 17.381C10.2286 17.3257 10.1431 17.2975 10.0561 17.3017C9.96907 17.306 9.88674 17.3425 9.82513 17.4041C9.76351 17.4657 9.72702 17.5481 9.72274 17.6351C9.71847 17.7221 9.74672 17.8076 9.802 17.875C10.7243 18.5701 11.8591 18.9238 13.013 18.876ZM15.2674 15.4332C15.4819 15.5762 15.7203 15.704 15.977 15.704C16.1533 15.7061 16.3282 15.6722 16.491 15.6045C16.6538 15.5368 16.8011 15.4366 16.924 15.3101C17.0468 15.1836 17.1426 15.0334 17.2056 14.8687C17.2685 14.704 17.2972 14.5282 17.29 14.352C17.2899 14.1274 17.2317 13.9067 17.1209 13.7114C17.0102 13.516 16.8507 13.3527 16.6581 13.2373C16.4655 13.1219 16.2462 13.0584 16.0218 13.0529C15.7973 13.0474 15.5752 13.1001 15.3772 13.206C15.1791 13.3119 15.0119 13.4672 14.8917 13.6569C14.7716 13.8466 14.7026 14.0642 14.6916 14.2885C14.6805 14.5128 14.7278 14.7361 14.8287 14.9367C14.9296 15.1373 15.0807 15.3084 15.2674 15.4332Z" fill="#258BAC"/>
</g>
<defs>
<clipPath id="clip0_3977_133854">
<rect width="26" height="26" fill="white"/>
</clipPath>
</defs>
</svg>
