<svg width="20" height="19" viewBox="0 0 20 19" fill="none" xmlns="http://www.w3.org/2000/svg">
<path fill-rule="evenodd" clip-rule="evenodd" d="M9.95898 18.75C15.1367 18.75 19.334 14.5527 19.334 9.375C19.334 4.19733 15.1367 0 9.95898 0C4.78131 0 0.583984 4.19733 0.583984 9.375C0.583984 14.5527 4.78131 18.75 9.95898 18.75ZM14.4477 5.71926C14.9435 5.65626 15.419 5.52651 15.8652 5.33076C15.5307 5.82876 15.1205 6.26151 14.6322 6.60801C14.6375 6.71226 14.6412 6.81726 14.6412 6.92601C14.6412 10.1765 12.1662 13.9265 7.63923 13.9265C6.24648 13.9265 4.95498 13.5253 3.86523 12.8225C4.05873 12.8473 4.25223 12.8563 4.45398 12.8563C5.60448 12.8563 6.66723 12.4618 7.50423 11.807C6.42873 11.7838 5.52423 11.0675 5.20548 10.0933C5.35473 10.1263 5.51373 10.1353 5.67123 10.1353C5.89773 10.1353 6.11598 10.109 6.31623 10.0543C5.19798 9.82551 4.34523 8.83251 4.34523 7.63701V7.61001C4.67373 7.79076 5.06148 7.90551 5.45673 7.91301C4.80273 7.47576 4.36398 6.72051 4.36398 5.86851C4.36398 5.41476 4.48848 4.99326 4.70073 4.62501C5.91648 6.11826 7.72623 7.09851 9.77148 7.19826C9.73098 7.01976 9.71448 6.83226 9.71448 6.63726C9.71448 5.28201 10.811 4.17651 12.173 4.17651C12.875 4.17651 13.5185 4.47426 13.97 4.95501C14.5295 4.84326 15.0545 4.64301 15.53 4.35951C15.347 4.93626 14.9577 5.41476 14.4477 5.71926Z" fill="#D7D7D7"/>
</svg>
