<svg width="20" height="20" viewBox="0 0 20 20" fill="none" xmlns="http://www.w3.org/2000/svg">
<circle cx="10" cy="10" r="10" fill="black"/>
<mask id="path-2-outside-1_1235_44502" maskUnits="userSpaceOnUse" x="4.17578" y="3.99951" width="11" height="12" fill="black">
<rect fill="white" x="4.17578" y="3.99951" width="11" height="12"/>
<path fill-rule="evenodd" clip-rule="evenodd" d="M14.4107 7.40859C14.4656 7.42076 14.5175 7.44364 14.5635 7.4759H14.5655C14.6585 7.54101 14.7218 7.64038 14.7416 7.75216C14.7613 7.86394 14.7358 7.97899 14.6708 8.07201L9.94603 14.8172C9.88088 14.9103 9.78142 14.9737 9.66953 14.9934C9.55764 15.0132 9.4425 14.9877 9.34942 14.9225C9.25634 14.8574 9.19296 14.7579 9.17322 14.646C9.15347 14.5341 9.17898 14.419 9.24414 14.3259L12.7085 9.38054L11.9991 6.43308L5.95074 14.8227C5.88426 14.9148 5.78395 14.9766 5.67187 14.9946C5.5598 15.0127 5.44514 14.9855 5.35313 14.919C5.26112 14.8525 5.19928 14.7522 5.18123 14.6401C5.16318 14.5281 5.19039 14.4134 5.25687 14.3214L11.8472 5.17669C11.8951 5.11039 11.9611 5.05922 12.0373 5.02925C12.1134 4.99928 12.1966 4.99177 12.2768 5.00759C12.3571 5.02342 12.4312 5.06193 12.4903 5.11855C12.5494 5.17518 12.591 5.24755 12.6102 5.3271L13.3623 8.44552L13.9679 7.58118C14 7.53511 14.041 7.49582 14.0883 7.46559C14.1357 7.43535 14.1885 7.41475 14.2439 7.40497C14.2992 7.39519 14.3559 7.39642 14.4107 7.40859ZM13.306 11.3268C13.3652 11.2301 13.4604 11.1608 13.5706 11.1342V11.1337C13.6252 11.1206 13.6819 11.1183 13.7374 11.1271C13.7929 11.1358 13.8461 11.1554 13.894 11.1848C13.9419 11.2141 13.9836 11.2526 14.0166 11.298C14.0496 11.3434 14.0734 11.3949 14.0865 11.4496L14.8135 14.4712C14.8267 14.5258 14.8289 14.5825 14.8202 14.638C14.8115 14.6935 14.7919 14.7467 14.7626 14.7947C14.7333 14.8426 14.6948 14.8843 14.6494 14.9173C14.604 14.9504 14.5525 14.9742 14.4979 14.9874C14.4433 15.0005 14.3866 15.0028 14.3311 14.9941C14.2756 14.9853 14.2224 14.9658 14.1744 14.9365C14.1265 14.9072 14.0848 14.8687 14.0518 14.8233C14.0187 14.7779 13.9949 14.7264 13.9817 14.6718L13.2548 11.6501C13.2284 11.5398 13.2468 11.4235 13.306 11.3268Z"/>
</mask>
<path fill-rule="evenodd" clip-rule="evenodd" d="M14.4107 7.40859C14.4656 7.42076 14.5175 7.44364 14.5635 7.4759H14.5655C14.6585 7.54101 14.7218 7.64038 14.7416 7.75216C14.7613 7.86394 14.7358 7.97899 14.6708 8.07201L9.94603 14.8172C9.88088 14.9103 9.78142 14.9737 9.66953 14.9934C9.55764 15.0132 9.4425 14.9877 9.34942 14.9225C9.25634 14.8574 9.19296 14.7579 9.17322 14.646C9.15347 14.5341 9.17898 14.419 9.24414 14.3259L12.7085 9.38054L11.9991 6.43308L5.95074 14.8227C5.88426 14.9148 5.78395 14.9766 5.67187 14.9946C5.5598 15.0127 5.44514 14.9855 5.35313 14.919C5.26112 14.8525 5.19928 14.7522 5.18123 14.6401C5.16318 14.5281 5.19039 14.4134 5.25687 14.3214L11.8472 5.17669C11.8951 5.11039 11.9611 5.05922 12.0373 5.02925C12.1134 4.99928 12.1966 4.99177 12.2768 5.00759C12.3571 5.02342 12.4312 5.06193 12.4903 5.11855C12.5494 5.17518 12.591 5.24755 12.6102 5.3271L13.3623 8.44552L13.9679 7.58118C14 7.53511 14.041 7.49582 14.0883 7.46559C14.1357 7.43535 14.1885 7.41475 14.2439 7.40497C14.2992 7.39519 14.3559 7.39642 14.4107 7.40859ZM13.306 11.3268C13.3652 11.2301 13.4604 11.1608 13.5706 11.1342V11.1337C13.6252 11.1206 13.6819 11.1183 13.7374 11.1271C13.7929 11.1358 13.8461 11.1554 13.894 11.1848C13.9419 11.2141 13.9836 11.2526 14.0166 11.298C14.0496 11.3434 14.0734 11.3949 14.0865 11.4496L14.8135 14.4712C14.8267 14.5258 14.8289 14.5825 14.8202 14.638C14.8115 14.6935 14.7919 14.7467 14.7626 14.7947C14.7333 14.8426 14.6948 14.8843 14.6494 14.9173C14.604 14.9504 14.5525 14.9742 14.4979 14.9874C14.4433 15.0005 14.3866 15.0028 14.3311 14.9941C14.2756 14.9853 14.2224 14.9658 14.1744 14.9365C14.1265 14.9072 14.0848 14.8687 14.0518 14.8233C14.0187 14.7779 13.9949 14.7264 13.9817 14.6718L13.2548 11.6501C13.2284 11.5398 13.2468 11.4235 13.306 11.3268Z" fill="#D7D7D7"/>
<path d="M14.5635 7.4759L14.4486 7.63963L14.5003 7.6759H14.5635V7.4759ZM14.5655 7.4759L14.6802 7.31207L14.6286 7.2759H14.5655V7.4759ZM14.7416 7.75216L14.5446 7.78694L14.7416 7.75216ZM14.6708 8.07201L14.8346 8.18675L14.8347 8.18663L14.6708 8.07201ZM9.94603 14.8172L9.78222 14.7025L9.78218 14.7025L9.94603 14.8172ZM9.66953 14.9934L9.70429 15.1904L9.66953 14.9934ZM9.34942 14.9225L9.23473 15.0864L9.23473 15.0864L9.34942 14.9225ZM9.24414 14.3259L9.08033 14.2111L9.08029 14.2112L9.24414 14.3259ZM12.7085 9.38054L12.8723 9.49529L12.924 9.42143L12.9029 9.33374L12.7085 9.38054ZM11.9991 6.43308L12.1935 6.38628L12.0916 5.96276L11.8368 6.31612L11.9991 6.43308ZM5.95074 14.8227L6.11286 14.9399L6.11298 14.9397L5.95074 14.8227ZM5.67187 14.9946L5.64007 14.7972L5.67187 14.9946ZM5.35313 14.919L5.236 15.0811H5.236L5.35313 14.919ZM5.18123 14.6401L5.37868 14.6083H5.37868L5.18123 14.6401ZM5.25687 14.3214L5.41898 14.4385L5.41913 14.4383L5.25687 14.3214ZM11.8472 5.17669L11.6851 5.05946L11.6849 5.05976L11.8472 5.17669ZM12.0373 5.02925L12.1105 5.21536L12.1105 5.21536L12.0373 5.02925ZM12.2768 5.00759L12.2382 5.20382V5.20382L12.2768 5.00759ZM12.4903 5.11855L12.6287 4.97416V4.97416L12.4903 5.11855ZM12.6102 5.3271L12.8047 5.28021L12.8046 5.28012L12.6102 5.3271ZM13.3623 8.44552L13.1678 8.49241L13.2717 8.92324L13.526 8.56029L13.3623 8.44552ZM13.9679 7.58118L14.1317 7.69595L14.1319 7.69563L13.9679 7.58118ZM14.2439 7.40497L14.2787 7.60192L14.2787 7.60192L14.2439 7.40497ZM13.5706 11.1342L13.6176 11.3286L13.7706 11.2916V11.1342H13.5706ZM13.306 11.3268L13.1354 11.2224L13.1354 11.2224L13.306 11.3268ZM13.5706 11.1337L13.5238 10.9393L13.3706 10.9761V11.1337H13.5706ZM14.0865 11.4496L13.8921 11.4963L13.8921 11.4963L14.0865 11.4496ZM14.8135 14.4712L14.619 14.518L14.6191 14.5181L14.8135 14.4712ZM14.8202 14.638L14.6226 14.6069V14.6069L14.8202 14.638ZM14.7626 14.7947L14.9332 14.899L14.9332 14.899L14.7626 14.7947ZM14.6494 14.9173L14.5317 14.7556L14.6494 14.9173ZM14.4979 14.9874L14.5448 15.1818L14.5448 15.1818L14.4979 14.9874ZM14.3311 14.9941L14.3622 14.7965H14.3622L14.3311 14.9941ZM14.1744 14.9365L14.2788 14.7658L14.2788 14.7658L14.1744 14.9365ZM14.0518 14.8233L14.2135 14.7056L14.2135 14.7056L14.0518 14.8233ZM13.9817 14.6718L13.7873 14.7185L13.7873 14.7186L13.9817 14.6718ZM13.2548 11.6501L13.0603 11.6967L13.0603 11.6969L13.2548 11.6501ZM14.6783 7.31216C14.6108 7.26479 14.5346 7.23121 14.4541 7.21334L14.3674 7.60384C14.3966 7.61031 14.4242 7.62248 14.4486 7.63963L14.6783 7.31216ZM14.5655 7.2759H14.5635V7.6759H14.5655V7.2759ZM14.9385 7.71737C14.9095 7.55338 14.8166 7.40759 14.6802 7.31207L14.4508 7.63973C14.5003 7.67442 14.5341 7.72738 14.5446 7.78694L14.9385 7.71737ZM14.8347 8.18663C14.9301 8.05016 14.9675 7.88137 14.9385 7.71737L14.5446 7.78694C14.5551 7.84651 14.5416 7.90782 14.5069 7.95739L14.8347 8.18663ZM10.1098 14.932L14.8346 8.18675L14.507 7.95727L9.78222 14.7025L10.1098 14.932ZM9.70429 15.1904C9.86841 15.1614 10.0143 15.0684 10.1099 14.9319L9.78218 14.7025C9.74745 14.7522 9.69442 14.7859 9.63477 14.7965L9.70429 15.1904ZM9.23473 15.0864C9.37126 15.1819 9.54016 15.2193 9.70429 15.1904L9.63477 14.7965C9.57512 14.807 9.51374 14.7934 9.46411 14.7587L9.23473 15.0864ZM8.97626 14.6808C9.00522 14.8449 9.0982 14.9908 9.23473 15.0864L9.46411 14.7587C9.41449 14.7239 9.3807 14.6709 9.37017 14.6113L8.97626 14.6808ZM9.08029 14.2112C8.98472 14.3477 8.9473 14.5166 8.97626 14.6808L9.37017 14.6113C9.35965 14.5516 9.37325 14.4902 9.40798 14.4406L9.08029 14.2112ZM12.5447 9.26579L9.08033 14.2111L9.40794 14.4406L12.8723 9.49529L12.5447 9.26579ZM11.8046 6.47989L12.514 9.42734L12.9029 9.33374L12.1935 6.38628L11.8046 6.47989ZM6.11298 14.9397L12.1613 6.55004L11.8368 6.31612L5.78851 14.7058L6.11298 14.9397ZM5.70368 15.1921C5.86812 15.1656 6.01531 15.0749 6.11285 14.9399L5.78863 14.7056C5.75321 14.7546 5.69977 14.7876 5.64007 14.7972L5.70368 15.1921ZM5.236 15.0811C5.37101 15.1787 5.53924 15.2186 5.70368 15.1921L5.64007 14.7972C5.58036 14.8068 5.51928 14.7923 5.47026 14.7569L5.236 15.0811ZM4.98377 14.6719C5.01026 14.8364 5.10099 14.9836 5.236 15.0811L5.47026 14.7569C5.42124 14.7215 5.3883 14.668 5.37868 14.6083L4.98377 14.6719ZM5.09476 14.2043C4.99721 14.3393 4.95729 14.5075 4.98377 14.6719L5.37868 14.6083C5.36907 14.5486 5.38356 14.4875 5.41898 14.4385L5.09476 14.2043ZM11.6849 5.05976L5.09461 14.2045L5.41913 14.4383L12.0094 5.29362L11.6849 5.05976ZM11.964 4.84315C11.8523 4.88711 11.7555 4.96218 11.6851 5.05946L12.0092 5.29393C12.0348 5.25859 12.0699 5.23133 12.1105 5.21536L11.964 4.84315ZM12.3155 4.81137C12.1977 4.78815 12.0757 4.79918 11.964 4.84315L12.1105 5.21536C12.1511 5.19939 12.1954 5.19539 12.2382 5.20382L12.3155 4.81137ZM12.6287 4.97416C12.542 4.89108 12.4333 4.83459 12.3155 4.81137L12.2382 5.20382C12.281 5.21225 12.3204 5.23277 12.3519 5.26295L12.6287 4.97416ZM12.8046 5.28012C12.7764 5.16341 12.7154 5.05723 12.6287 4.97416L12.3519 5.26295C12.3834 5.29312 12.4056 5.33169 12.4158 5.37408L12.8046 5.28012ZM13.5567 8.39863L12.8047 5.28021L12.4158 5.37398L13.1678 8.49241L13.5567 8.39863ZM13.8041 7.46642L13.1985 8.33075L13.526 8.56029L14.1317 7.69595L13.8041 7.46642ZM13.9807 7.29702C13.9112 7.34142 13.8511 7.39909 13.8039 7.46674L14.1319 7.69563C14.149 7.67112 14.1708 7.65023 14.196 7.63415L13.9807 7.29702ZM14.209 7.20802C14.1278 7.22238 14.0502 7.25263 13.9807 7.29702L14.196 7.63415C14.2211 7.61807 14.2492 7.60712 14.2787 7.60192L14.209 7.20802ZM14.4541 7.21334C14.3735 7.19547 14.2903 7.19366 14.209 7.20802L14.2787 7.60192C14.3081 7.59671 14.3382 7.59737 14.3674 7.60384L14.4541 7.21334ZM13.5237 10.9398C13.3619 10.9789 13.2223 11.0805 13.1354 11.2224L13.4766 11.4313C13.5081 11.3797 13.5588 11.3428 13.6176 11.3286L13.5237 10.9398ZM13.3706 11.1337V11.1342H13.7706V11.1337H13.3706ZM13.7686 10.9295C13.6871 10.9166 13.604 10.92 13.5238 10.9393L13.6174 11.3281C13.6465 11.3211 13.6767 11.3199 13.7062 11.3246L13.7686 10.9295ZM13.9984 11.0142C13.9281 10.9711 13.85 10.9424 13.7686 10.9295L13.7062 11.3246C13.7357 11.3293 13.7641 11.3397 13.7896 11.3553L13.9984 11.0142ZM14.1784 11.1804C14.1299 11.1137 14.0687 11.0572 13.9984 11.0142L13.7896 11.3553C13.8151 11.3709 13.8373 11.3914 13.8548 11.4156L14.1784 11.1804ZM14.281 11.4028C14.2617 11.3227 14.2269 11.2471 14.1784 11.1804L13.8548 11.4156C13.8724 11.4398 13.8851 11.4672 13.8921 11.4963L14.281 11.4028ZM15.0079 14.4244L14.281 11.4028L13.8921 11.4963L14.619 14.518L15.0079 14.4244ZM15.0178 14.6691C15.0306 14.5877 15.0272 14.5045 15.0079 14.4243L14.6191 14.5181C14.6261 14.5472 14.6273 14.5774 14.6226 14.6069L15.0178 14.6691ZM14.9332 14.899C14.9762 14.8287 15.0049 14.7505 15.0178 14.6691L14.6226 14.6069C14.618 14.6365 14.6076 14.6648 14.5919 14.6903L14.9332 14.899ZM14.7671 15.079C14.8338 15.0305 14.8902 14.9693 14.9332 14.899L14.5919 14.6903C14.5763 14.7158 14.5559 14.738 14.5317 14.7556L14.7671 15.079ZM14.5448 15.1818C14.6249 15.1625 14.7005 15.1275 14.7671 15.079L14.5317 14.7556C14.5075 14.7732 14.4801 14.7859 14.451 14.7929L14.5448 15.1818ZM14.3 15.1916C14.3814 15.2045 14.4646 15.2011 14.5448 15.1818L14.451 14.7929C14.4219 14.7999 14.3917 14.8012 14.3622 14.7965L14.3 15.1916ZM14.0701 15.1071C14.1404 15.1501 14.2186 15.1788 14.3 15.1916L14.3622 14.7965C14.3326 14.7919 14.3043 14.7814 14.2788 14.7658L14.0701 15.1071ZM13.8901 14.941C13.9386 15.0076 13.9998 15.0641 14.0701 15.1071L14.2788 14.7658C14.2533 14.7502 14.2311 14.7297 14.2135 14.7056L13.8901 14.941ZM13.7873 14.7186C13.8066 14.7988 13.8416 14.8743 13.8901 14.941L14.2135 14.7056C14.1958 14.6814 14.1832 14.654 14.1762 14.6249L13.7873 14.7186ZM13.0603 11.6969L13.7873 14.7185L14.1762 14.625L13.4492 11.6033L13.0603 11.6969ZM13.1354 11.2224C13.0486 11.3643 13.0215 11.5349 13.0603 11.6967L13.4493 11.6035C13.4352 11.5447 13.445 11.4828 13.4766 11.4313L13.1354 11.2224Z" fill="black" mask="url(#path-2-outside-1_1235_44502)"/>
</svg>
