<svg width="20" height="20" viewBox="0 0 20 20" fill="none" xmlns="http://www.w3.org/2000/svg">
<path d="M20 9.99994C20 15.5228 15.5229 20 10.0001 20C4.47715 20 0 15.5228 0 9.99994C0 4.47712 4.47715 0 10.0001 0C15.5228 0 20 4.47712 20 9.99994Z" fill="black"/>
<path d="M5.59375 5.50625C6.35 4.2125 7.38125 3.5 8.5 3.5H11.5C12.6188 3.5 13.65 4.2125 14.4062 5.50625C15.1625 6.8 15.5 8.3125 15.5 10C15.5 11.6875 15.1125 13.2875 14.4062 14.4937C13.7 15.7 12.6188 16.5 11.5 16.5H8.5C7.38125 16.5 6.35 15.7875 5.59375 14.4937C4.8375 13.2 4.5 11.6875 4.5 10C4.5 8.3125 4.8875 6.7125 5.59375 5.50625ZM5.5125 9.5H7.5125C7.5625 8.425 7.76875 7.39375 8.11875 6.5H6.20625C5.825 7.3375 5.56875 8.375 5.5125 9.5ZM6.8 5.5H8.59375C8.80538 5.13955 9.05697 4.8041 9.34375 4.5H8.5C7.875 4.5 7.2875 4.875 6.8 5.5ZM14.5 10C14.5 7.01875 13.125 4.5 11.5 4.5C9.875 4.5 8.5 7.01875 8.5 10C8.5 12.9812 9.875 15.5 11.5 15.5C13.125 15.5 14.5 12.9812 14.5 10ZM8.5 15.5H9.34375C9.05697 15.1959 8.80538 14.8605 8.59375 14.5H6.8C7.2875 15.125 7.875 15.5 8.5 15.5ZM6.20625 13.5H8.11875C7.76875 12.6062 7.5625 11.575 7.5125 10.5H5.5125C5.56875 11.625 5.825 12.6625 6.20625 13.5Z" fill="#D7D7D7"/>
<path d="M11.7291 11.2984H11.0419C11.0443 11.0403 11.0653 10.8293 11.1047 10.6653C11.1466 10.4987 11.2143 10.3468 11.3079 10.2097C11.4015 10.0726 11.5259 9.91667 11.681 9.74194C11.7943 9.61559 11.8978 9.49731 11.9914 9.3871C12.0874 9.27419 12.165 9.15323 12.2241 9.02419C12.2833 8.89247 12.3128 8.73522 12.3128 8.55242C12.3128 8.36694 12.282 8.20699 12.2204 8.07258C12.1613 7.93817 12.0727 7.83468 11.9544 7.7621C11.8387 7.68952 11.6946 7.65323 11.5222 7.65323C11.3793 7.65323 11.2438 7.68145 11.1158 7.7379C10.9877 7.79435 10.8842 7.88172 10.8054 8C10.7266 8.11559 10.686 8.26747 10.6835 8.45565H10C10.0049 8.15188 10.0739 7.89113 10.2069 7.67339C10.3424 7.45565 10.5246 7.28898 10.7537 7.17339C10.9828 7.0578 11.2389 7 11.5222 7C11.835 7 12.101 7.06183 12.3202 7.18548C12.5419 7.30914 12.7106 7.48656 12.8264 7.71774C12.9421 7.94624 13 8.21774 13 8.53226C13 8.77419 12.9544 8.99731 12.8633 9.20161C12.7746 9.40323 12.6601 9.59274 12.5197 9.77016C12.3793 9.94758 12.2303 10.1169 12.0727 10.2782C11.9372 10.4153 11.8461 10.5699 11.7993 10.7419C11.7525 10.914 11.7291 11.0995 11.7291 11.2984ZM11.0123 12.5766C11.0123 12.4556 11.0468 12.3535 11.1158 12.2702C11.1847 12.1868 11.2845 12.1452 11.415 12.1452C11.548 12.1452 11.649 12.1868 11.718 12.2702C11.7869 12.3535 11.8214 12.4556 11.8214 12.5766C11.8214 12.6922 11.7869 12.7917 11.718 12.875C11.649 12.9583 11.548 13 11.415 13C11.2845 13 11.1847 12.9583 11.1158 12.875C11.0468 12.7917 11.0123 12.6922 11.0123 12.5766Z" fill="#D7D7D7"/>
</svg>
