<svg width="21" height="20" viewBox="0 0 21 20" fill="none" xmlns="http://www.w3.org/2000/svg">
<path fill-rule="evenodd" clip-rule="evenodd" d="M10.9492 20C16.4721 20 20.9492 15.5228 20.9492 10C20.9492 4.47715 16.4721 0 10.9492 0C5.42637 0 0.949219 4.47715 0.949219 10C0.949219 15.5228 5.42637 20 10.9492 20Z" fill="black"/>
<path d="M10.9999 8.37392L12.4433 9.18707V10.8134L10.9999 11.6265L9.55645 10.8134V9.18665L10.9999 8.37392ZM10.9999 8.08244C10.9476 8.08238 10.8962 8.09581 10.8505 8.12143L9.40713 8.93458C9.3621 8.95954 9.32452 8.99609 9.29827 9.04048C9.27202 9.08486 9.25806 9.13546 9.25781 9.18707V10.8134C9.25808 10.865 9.27205 10.9156 9.2983 10.9599C9.32454 11.0043 9.36211 11.0409 9.40713 11.0658L10.8505 11.879C10.8962 11.9046 10.9476 11.9181 11 11.9181C11.0523 11.9181 11.1037 11.9046 11.1494 11.879L12.5928 11.0658C12.6378 11.0409 12.6754 11.0043 12.7016 10.9599C12.7279 10.9156 12.7418 10.865 12.7421 10.8134V9.18665C12.7418 9.13505 12.7279 9.08446 12.7016 9.04008C12.6754 8.9957 12.6378 8.95914 12.5928 8.93417L11.1494 8.12102C11.1038 8.09542 11.0523 8.082 11.0001 8.08203" fill="white"/>
<path d="M11.0013 4.65214L15.7476 7.32613V12.6739L11.0013 15.3479L8.94452 14.1888V12.5893L10.6845 13.5696C10.7815 13.6239 10.8908 13.6525 11.0019 13.6525C11.113 13.6525 11.2222 13.6239 11.3192 13.5696L14.0113 12.053C14.1069 12 14.1868 11.9223 14.2426 11.8281C14.2984 11.7338 14.3281 11.6263 14.3286 11.5167V8.48438C14.328 8.37476 14.2983 8.26728 14.2425 8.17301C14.1868 8.07874 14.1069 8.00109 14.0113 7.94806L11.3184 6.43047C11.2214 6.37609 11.1122 6.34754 11.001 6.34754C10.8899 6.34754 10.7807 6.37609 10.6837 6.43047L7.99164 7.94703C7.89598 8.00006 7.81615 8.07771 7.76037 8.17198C7.70459 8.26625 7.67487 8.37373 7.67429 8.48335V13.4736L6.25515 12.6739V7.32613L11.0013 4.65214ZM11.0013 4.11768C10.9053 4.11757 10.811 4.14222 10.7273 4.18925L5.98099 6.86324C5.89841 6.90899 5.82948 6.976 5.78133 7.05737C5.73317 7.13874 5.70753 7.23151 5.70703 7.32613V12.6739C5.70753 12.7685 5.73317 12.8613 5.78133 12.9427C5.82948 13.024 5.89841 13.091 5.98099 13.1368L7.40013 13.9365C7.48381 13.9835 7.5781 14.0081 7.67398 14.0081C7.76987 14.0081 7.86415 13.9835 7.94783 13.9365C8.03042 13.8908 8.09934 13.8238 8.14749 13.7424C8.19565 13.661 8.2213 13.5683 8.22179 13.4736V8.48335C8.22192 8.46833 8.22603 8.45362 8.23369 8.44072C8.24135 8.42782 8.25229 8.41719 8.26539 8.40992L10.9574 6.89336C10.9707 6.88588 10.9857 6.88195 11.0009 6.88195C11.0162 6.88195 11.0312 6.88588 11.0444 6.89336L13.7365 8.40992C13.7496 8.41721 13.7605 8.42786 13.7681 8.44076C13.7757 8.45366 13.7798 8.46836 13.7799 8.48335V11.5156C13.7798 11.5307 13.7757 11.5454 13.768 11.5583C13.7604 11.5712 13.7494 11.5818 13.7363 11.5891L11.0446 13.1067C11.0314 13.1141 11.0164 13.118 11.0011 13.118C10.9859 13.118 10.9709 13.1141 10.9576 13.1067L9.21766 12.1264C9.13398 12.0795 9.03969 12.0548 8.9438 12.0548C8.84792 12.0548 8.75363 12.0795 8.66995 12.1264C8.58736 12.1722 8.51842 12.2392 8.47026 12.3205C8.42211 12.4019 8.39647 12.4947 8.396 12.5893V14.1888C8.39649 14.2834 8.42214 14.3762 8.47029 14.4576C8.51845 14.5389 8.58737 14.6059 8.66995 14.6517L10.7267 15.8108C10.8104 15.8577 10.9046 15.8824 11.0005 15.8824C11.0964 15.8824 11.1907 15.8577 11.2744 15.8108L16.0213 13.1368C16.1039 13.091 16.1728 13.024 16.221 12.9427C16.2691 12.8613 16.2948 12.7685 16.2953 12.6739V7.32613C16.2948 7.23151 16.2692 7.13872 16.221 7.05735C16.1728 6.97598 16.1039 6.90897 16.0213 6.86324L11.275 4.18925C11.1914 4.14228 11.0971 4.11763 11.0013 4.11768Z" fill="#D7D7D7"/>
</svg>
