<svg width="20" height="20" viewBox="0 0 20 20" fill="none" xmlns="http://www.w3.org/2000/svg">
<g clip-path="url(#clip0_7246_142948)">
<path d="M4.09442 6.26611C7.35599 3.07276 12.644 3.07276 15.9056 6.26611L16.2981 6.65043C16.4612 6.8101 16.4612 7.06897 16.2981 7.22864L14.9554 8.54334C14.8738 8.62317 14.7416 8.62317 14.6601 8.54334L14.1199 8.01446C11.8445 5.7867 8.15547 5.7867 5.88012 8.01446L5.30164 8.58084C5.2201 8.66068 5.0879 8.66068 5.00636 8.58084L3.66357 7.26614C3.50049 7.10648 3.50049 6.8476 3.66357 6.68794L4.09442 6.26611ZM18.6826 8.98504L19.8777 10.1551C20.0408 10.3148 20.0408 10.5737 19.8777 10.7333L14.489 16.0094C14.3259 16.1691 14.0615 16.1691 13.8984 16.0094C13.8984 16.0094 13.8984 16.0094 13.8984 16.0094L10.0739 12.2648C10.0331 12.2249 9.96699 12.2249 9.92622 12.2648L6.10172 16.0094C5.93865 16.1691 5.67424 16.1691 5.51116 16.0094C5.51116 16.0094 5.51117 16.0094 5.51116 16.0094L0.122309 10.7333C-0.0407696 10.5736 -0.0407696 10.3147 0.122309 10.1551L1.31739 8.98497C1.48047 8.82531 1.74487 8.82531 1.90795 8.98497L5.73258 12.7296C5.77335 12.7695 5.83945 12.7695 5.88022 12.7296C5.88022 12.7296 5.88022 12.7296 5.88022 12.7296L9.70466 8.98497C9.86773 8.8253 10.1321 8.8253 10.2952 8.98496C10.2952 8.98496 10.2952 8.98496 10.2952 8.98496L14.1199 12.7296C14.1606 12.7695 14.2267 12.7695 14.2675 12.7296L18.0921 8.98504C18.2551 8.82537 18.5195 8.82537 18.6826 8.98504Z" fill="#414B5A"/>
</g>
<defs>
<clipPath id="clip0_7246_142948">
<rect width="20" height="20" rx="10" fill="white"/>
</clipPath>
</defs>
</svg>
