<svg width="40" height="40" viewBox="0 0 40 40" fill="none" xmlns="http://www.w3.org/2000/svg">
<g clip-path="url(#clip0_3950_103854)">
<path d="M19.9709 39.9999C16.0213 40.0003 12.1602 38.8294 8.87604 36.6353C5.59186 34.4413 3.03209 31.3225 1.52044 27.6737C0.00879414 24.0247 -0.386831 20.0095 0.3836 16.1356C1.15403 12.2619 3.05591 8.70362 5.84872 5.91078C7.70008 4.04316 9.90209 2.55959 12.3284 1.54525C14.7546 0.530924 17.3573 0.00580636 19.987 4.78805e-05C22.6168 -0.00571059 25.2218 0.508004 27.6525 1.5117C30.0831 2.51539 32.2916 3.98931 34.1512 5.84881C36.0107 7.70831 37.4846 9.91679 38.4883 12.3474C39.4919 14.7781 40.0057 17.383 40 20.0128C39.9942 22.6425 39.4691 25.2453 38.4547 27.6714C37.4404 30.0977 35.9568 32.2997 34.0892 34.151C32.2395 36.0109 30.0392 37.4855 27.6159 38.4896C25.1925 39.4936 22.5941 40.0069 19.9709 39.9999ZM25.2827 14.0301L25.4445 14.6533L28.7185 26.5209H31.3824L26.9132 11.1307L26.8045 10.7123H24.481L24.4271 10.7962L22.2534 14.6563L20.0249 18.6152L19.9709 18.7099L19.946 18.6152L19.6714 17.5976L18.9105 14.6563L18.8287 14.3636L17.986 11.1297L17.8771 10.7114H15.5578L15.5039 10.7952L13.3312 14.6563L11.1026 18.6152L8.88804 22.56L6.65947 26.5209H9.32136L11.5499 22.562L13.7785 18.6181L15.9931 14.6593L16.3595 14.0321L16.5223 14.6593L17.2013 17.2661L18.0449 20.5132L18.3384 21.6204L17.8093 22.562L15.5778 26.5209H18.2397L19.1802 24.8504L20.8147 21.9499L22.6967 18.6181L24.9113 14.6593L25.2767 14.0351L25.2827 14.0301Z" fill="white"/>
</g>
<defs>
<clipPath id="clip0_3950_103854">
<rect width="40" height="40" rx="20" fill="white"/>
</clipPath>
</defs>
</svg>
