<svg width="40" height="40" fill="none" xmlns="http://www.w3.org/2000/svg"><path d="M19.97 40A19.969 19.969 0 0 1 5.85 5.91a19.97 19.97 0 1 1 28.24 28.241A19.841 19.841 0 0 1 19.971 40Zm5.313-25.97.162.623 3.273 11.868h2.664l-4.469-15.39-.108-.419H24.48l-.054.084-2.174 3.86-2.228 3.96-.054.094-.025-.095-.275-1.017-.76-2.942-.082-.292-.843-3.234-.109-.419h-2.32l-.053.084-2.173 3.861-2.228 3.96-2.215 3.944-2.229 3.96h2.662l2.229-3.958 2.228-3.944 2.215-3.959.367-.627.162.627.68 2.607.843 3.247.293 1.107-.529.942-2.231 3.959h2.662l.94-1.67 1.635-2.901 1.882-3.332 2.214-3.959.366-.624.006-.005Z" fill="#245EC6"/></svg>