<svg width="17" height="12" viewBox="0 0 17 12" fill="none" xmlns="http://www.w3.org/2000/svg">
<g clip-path="url(#clip0_8819_197197)">
<path d="M9.99023 2.63281L9.30303 2.96322" stroke="black" stroke-width="0.541473" stroke-miterlimit="10"/>
<path d="M13.8096 0.796875L11.6707 1.82467" stroke="black" stroke-width="0.541473" stroke-miterlimit="10"/>
<path d="M7.62303 3.7701L0.505495 7.19065C0.348526 7.26612 0.283655 7.45201 0.360626 7.60592L1.85065 10.587C1.92762 10.7409 2.1172 10.8045 2.27416 10.729L15.5787 4.33484L16.4954 3.89436C16.6524 3.81888 16.7175 3.633 16.6405 3.47909L15.1503 0.498036C15.0733 0.344122 14.8837 0.280514 14.7268 0.355987L13.81 0.796471" stroke="black" stroke-width="0.541473" stroke-miterlimit="10"/>
<path d="M11.4484 3.15806L8.76869 4.44605L7.87679 4.87467C7.71982 4.95015 7.65495 5.13603 7.73175 5.28994L8.2724 6.37146C8.34938 6.52537 8.53895 6.58898 8.69592 6.51351L11.2701 5.27643L13.95 3.98843L14.8227 3.56904C14.9797 3.49357 15.0446 3.30768 14.9676 3.15377L14.427 2.07225C14.3501 1.91834 14.1604 1.85473 14.0034 1.93021L11.4486 3.15806" stroke="black" stroke-width="0.541473" stroke-miterlimit="10"/>
<path d="M9.99046 2.6313C9.86257 2.39235 9.94206 2.2157 10.1089 2.13545L11.185 1.61817C11.3519 1.53808 11.543 1.58455 11.6709 1.82366L9.99046 2.6313Z" stroke="black" stroke-width="0.541473" stroke-miterlimit="10"/>
<path d="M7.62327 3.76809C7.49521 3.52898 7.5747 3.35233 7.74159 3.27224L8.81785 2.75496C8.98473 2.67471 9.17565 2.72135 9.30371 2.96046L7.62327 3.76809Z" stroke="black" stroke-width="0.541473" stroke-miterlimit="10"/>
<path d="M10.1532 7L15.5081 7.20401C15.8009 7.23433 16.0072 7.49305 15.9691 7.78193L15.8888 8.39182" stroke="black" stroke-width="0.541473" stroke-miterlimit="10" stroke-linecap="round"/>
<path d="M0.196159 8.73835C0.347077 7.64629 1.50669 6.86552 2.78597 6.99438L15.7977 7.89661C15.9779 7.91473 16.1068 8.05414 16.0856 8.20806L15.7408 11.6055C15.7194 11.7594 15.5562 11.8694 15.3759 11.8512L2.23944 10.949C0.959995 10.8201 0.0452409 9.83042 0.196327 8.73835L0.196159 8.73835ZM2.31238 9.78032C2.80244 10.0769 3.45435 9.94214 3.76845 9.47925C4.08256 9.01635 3.93971 8.40053 3.44964 8.10391C2.95958 7.80729 2.30767 7.94209 1.99357 8.40498C1.67946 8.86788 1.82231 9.4837 2.31238 9.78032Z" fill="black" stroke="black" stroke-width="0.249911" stroke-miterlimit="10"/>
</g>
<defs>
<clipPath id="clip0_8819_197197">
<rect width="17" height="12" fill="white" transform="matrix(-1 8.74228e-08 8.74228e-08 1 17 0)"/>
</clipPath>
</defs>
</svg>
