<svg width="24" height="24" viewBox="0 0 24 24" fill="none" xmlns="http://www.w3.org/2000/svg">
<path d="M5.33033 7.69975C9.01399 4.02196 14.9864 4.02196 18.67 7.69975L19.1134 8.14238C19.2975 8.32626 19.2975 8.62441 19.1134 8.8083L17.5968 10.3224C17.5047 10.4144 17.3554 10.4144 17.2633 10.3224L16.6532 9.71333C14.0834 7.14761 9.91694 7.14761 7.34713 9.71333L6.69378 10.3656C6.60169 10.4576 6.45238 10.4576 6.36029 10.3656L4.84374 8.85149C4.65955 8.66761 4.65955 8.36946 4.84374 8.18557L5.33033 7.69975ZM21.8064 10.8312L23.1562 12.1787C23.3403 12.3626 23.3403 12.6608 23.1562 12.8447L17.0701 18.9211C16.8859 19.105 16.5873 19.105 16.4031 18.9211C16.4031 18.9211 16.4031 18.9211 16.4031 18.9211L12.0836 14.6085C12.0375 14.5625 11.9629 14.5625 11.9168 14.6085C11.9168 14.6085 11.9168 14.6085 11.9168 14.6085L7.59741 18.9211C7.41323 19.105 7.11461 19.105 6.93043 18.9211C6.93043 18.9211 6.93043 18.9211 6.93042 18.9211L0.844192 12.8446C0.660009 12.6607 0.660009 12.3626 0.844192 12.1787L2.19393 10.8311C2.37812 10.6472 2.67673 10.6472 2.86092 10.8311L7.1805 15.1438C7.22654 15.1898 7.3012 15.1898 7.34724 15.1438C7.34724 15.1438 7.34725 15.1438 7.34725 15.1438L11.6666 10.8311C11.8508 10.6472 12.1494 10.6472 12.3336 10.8311C12.3336 10.8311 12.3336 10.8311 12.3336 10.8311L16.6532 15.1438C16.6992 15.1897 16.7739 15.1897 16.8199 15.1438L21.1394 10.8312C21.3236 10.6473 21.6222 10.6473 21.8064 10.8312Z" fill="#AFB8C5"/>
</svg>
