<svg width="21" height="20" viewBox="0 0 21 20" fill="none" xmlns="http://www.w3.org/2000/svg">
<path d="M10.5 6.66669V1.66669H5.50004C5.05801 1.66669 4.63409 1.84228 4.32153 2.15484C4.00897 2.4674 3.83337 2.89133 3.83337 3.33335V16.6667C3.83337 17.1087 4.00897 17.5326 4.32153 17.8452C4.63409 18.1578 5.05801 18.3334 5.50004 18.3334H15.5C15.9421 18.3334 16.366 18.1578 16.6786 17.8452C16.9911 17.5326 17.1667 17.1087 17.1667 16.6667V8.33335H12.1667C11.7247 8.33335 11.3008 8.15776 10.9882 7.8452C10.6756 7.53264 10.5 7.10871 10.5 6.66669ZM6.33337 10.2084C6.33337 10.0426 6.39922 9.88362 6.51643 9.76641C6.63364 9.6492 6.79261 9.58335 6.95837 9.58335C7.12413 9.58335 7.28311 9.6492 7.40032 9.76641C7.51753 9.88362 7.58337 10.0426 7.58337 10.2084C7.58337 10.3741 7.51753 10.5331 7.40032 10.6503C7.28311 10.7675 7.12413 10.8334 6.95837 10.8334C6.79261 10.8334 6.63364 10.7675 6.51643 10.6503C6.39922 10.5331 6.33337 10.3741 6.33337 10.2084ZM6.33337 12.7084C6.33337 12.5426 6.39922 12.3836 6.51643 12.2664C6.63364 12.1492 6.79261 12.0834 6.95837 12.0834C7.12413 12.0834 7.28311 12.1492 7.40032 12.2664C7.51753 12.3836 7.58337 12.5426 7.58337 12.7084C7.58337 12.8741 7.51753 13.0331 7.40032 13.1503C7.28311 13.2675 7.12413 13.3334 6.95837 13.3334C6.79261 13.3334 6.63364 13.2675 6.51643 13.1503C6.39922 13.0331 6.33337 12.8741 6.33337 12.7084ZM6.33337 15.2084C6.33337 15.0426 6.39922 14.8836 6.51643 14.7664C6.63364 14.6492 6.79261 14.5834 6.95837 14.5834C7.12413 14.5834 7.28311 14.6492 7.40032 14.7664C7.51753 14.8836 7.58337 15.0426 7.58337 15.2084C7.58337 15.3741 7.51753 15.5331 7.40032 15.6503C7.28311 15.7675 7.12413 15.8334 6.95837 15.8334C6.79261 15.8334 6.63364 15.7675 6.51643 15.6503C6.39922 15.5331 6.33337 15.3741 6.33337 15.2084ZM8.83337 10.2084C8.83337 10.0426 8.89922 9.88362 9.01643 9.76641C9.13364 9.6492 9.29261 9.58335 9.45837 9.58335H14.0417C14.2075 9.58335 14.3664 9.6492 14.4836 9.76641C14.6009 9.88362 14.6667 10.0426 14.6667 10.2084C14.6667 10.3741 14.6009 10.5331 14.4836 10.6503C14.3664 10.7675 14.2075 10.8334 14.0417 10.8334H9.45837C9.29261 10.8334 9.13364 10.7675 9.01643 10.6503C8.89922 10.5331 8.83337 10.3741 8.83337 10.2084ZM8.83337 12.7084C8.83337 12.5426 8.89922 12.3836 9.01643 12.2664C9.13364 12.1492 9.29261 12.0834 9.45837 12.0834H14.0417C14.2075 12.0834 14.3664 12.1492 14.4836 12.2664C14.6009 12.3836 14.6667 12.5426 14.6667 12.7084C14.6667 12.8741 14.6009 13.0331 14.4836 13.1503C14.3664 13.2675 14.2075 13.3334 14.0417 13.3334H9.45837C9.29261 13.3334 9.13364 13.2675 9.01643 13.1503C8.89922 13.0331 8.83337 12.8741 8.83337 12.7084ZM8.83337 15.2084C8.83337 15.0426 8.89922 14.8836 9.01643 14.7664C9.13364 14.6492 9.29261 14.5834 9.45837 14.5834H14.0417C14.2075 14.5834 14.3664 14.6492 14.4836 14.7664C14.6009 14.8836 14.6667 15.0426 14.6667 15.2084C14.6667 15.3741 14.6009 15.5331 14.4836 15.6503C14.3664 15.7675 14.2075 15.8334 14.0417 15.8334H9.45837C9.29261 15.8334 9.13364 15.7675 9.01643 15.6503C8.89922 15.5331 8.83337 15.3741 8.83337 15.2084ZM11.75 6.66669V2.08335L16.75 7.08335H12.1667C12.0562 7.08335 11.9502 7.03946 11.8721 6.96132C11.7939 6.88317 11.75 6.77719 11.75 6.66669Z" fill="white"/>
</svg>
