<svg width="142" height="25" viewBox="0 0 142 25" fill="none" xmlns="http://www.w3.org/2000/svg">
<path d="M35.2184 20.6034C35.2497 20.572 35.2691 20.5307 35.2731 20.4866C35.2771 20.4424 35.2655 20.3983 35.2404 20.3618L21.2031 0.170422C21.1674 0.117915 21.1194 0.0749368 21.0632 0.0452327C21.0071 0.0155287 20.9446 0 20.8811 0C20.8176 0 20.7551 0.0155287 20.6989 0.0452327C20.6428 0.0749368 20.5948 0.117915 20.5591 0.170422L6.48186 20.0383C6.45804 20.0723 6.44594 20.113 6.44738 20.1545C6.44882 20.1959 6.46373 20.2357 6.48984 20.2679L8.73322 23.0814C8.75185 23.1035 8.77529 23.1211 8.80176 23.1328C8.82822 23.1444 8.85701 23.1499 8.88591 23.1488C8.91481 23.1476 8.94307 23.1399 8.96852 23.1261C8.99396 23.1124 9.01593 23.093 9.03273 23.0694L20.7218 6.68989C20.7392 6.66456 20.7624 6.64384 20.7895 6.62952C20.8167 6.6152 20.8469 6.60772 20.8776 6.60772C20.9083 6.60772 20.9385 6.6152 20.9656 6.62952C20.9928 6.64384 21.016 6.66456 21.0333 6.68989L32.5537 22.9636C32.5696 22.9863 32.5902 23.0053 32.6141 23.0192C32.6381 23.0331 32.6648 23.0416 32.6924 23.0441C32.72 23.0466 32.7478 23.043 32.7739 23.0335C32.7999 23.0241 32.8236 23.0091 32.8432 22.9895L35.2184 20.6034Z" fill="#8BD4E9"/>
<path d="M6.66552 5.26953H10.6301C10.7659 5.26953 10.8378 5.46921 10.7459 5.599L4.32631 14.4177C4.29995 14.4568 4.28587 14.5029 4.28587 14.55C4.28587 14.5972 4.29995 14.6432 4.32631 14.6823L10.7529 23.7177C10.8438 23.8445 10.7719 24.0462 10.6371 24.0462H6.66652C6.64297 24.0452 6.61999 24.0387 6.5995 24.027C6.57901 24.0154 6.56159 23.999 6.54871 23.9793L0.0392333 14.6773C0.0136411 14.6385 0 14.593 0 14.5465C0 14.5 0.0136411 14.4546 0.0392333 14.4157L6.54772 5.33043C6.56114 5.31169 6.57881 5.29639 6.59929 5.28581C6.61977 5.27522 6.64247 5.26964 6.66552 5.26953Z" fill="white"/>
<path d="M35.0484 5.26953H31.0828C30.9471 5.26953 30.8762 5.46921 30.968 5.599L37.3866 14.4177C37.413 14.4568 37.4271 14.5029 37.4271 14.55C37.4271 14.5972 37.413 14.6432 37.3866 14.6823L30.96 23.7177C30.8702 23.8445 30.9411 24.0462 31.0758 24.0462H35.0434C35.0668 24.0452 35.0896 24.0386 35.11 24.0269C35.1303 24.0153 35.1475 23.999 35.1602 23.9793L41.6737 14.6773C41.6996 14.6386 41.7133 14.5931 41.7133 14.5465C41.7133 14.5 41.6996 14.4545 41.6737 14.4157L35.1652 5.33043C35.1519 5.31182 35.1344 5.29661 35.1141 5.28603C35.0938 5.27545 35.0713 5.2698 35.0484 5.26953Z" fill="white"/>
<path d="M25.0526 5.26953H29.0971C29.1321 5.2716 29.1659 5.28286 29.1952 5.30218C29.2245 5.32149 29.2482 5.34818 29.2639 5.37956C29.2796 5.41094 29.2867 5.4459 29.2846 5.48091C29.2825 5.51593 29.2712 5.54977 29.2518 5.57903L17.0585 23.9623C17.0416 23.9879 17.0186 24.0089 16.9916 24.0235C16.9646 24.0381 16.9345 24.0459 16.9038 24.0462H12.8513C12.8165 24.044 12.7828 24.0327 12.7536 24.0135C12.7245 23.9942 12.7009 23.9676 12.6853 23.9364C12.6696 23.9052 12.6624 23.8704 12.6644 23.8355C12.6664 23.8007 12.6775 23.7669 12.6966 23.7377L24.8979 5.35439C24.9146 5.32852 24.9375 5.30722 24.9645 5.2924C24.9915 5.27759 25.0218 5.26973 25.0526 5.26953Z" fill="white"/>
<path d="M52.9668 23.8311C52.7553 23.8311 52.6407 23.7319 52.6231 23.5336L52.1206 20.6939C52.1206 20.6038 52.0677 20.5587 51.9619 20.5587H48.101C47.9952 20.5587 47.9424 20.6038 47.9424 20.6939L47.4399 23.5336C47.4223 23.7319 47.3077 23.8311 47.0961 23.8311H44.6897C44.4428 23.8311 44.3459 23.7139 44.3988 23.4795L48.3126 5.19744C48.3478 4.99911 48.4624 4.89995 48.6564 4.89995H51.4595C51.6534 4.89995 51.768 4.99911 51.8033 5.19744L55.7171 23.4795V23.5877C55.7171 23.7499 55.6201 23.8311 55.4262 23.8311H52.9668ZM48.4184 17.9624C48.4007 18.0526 48.4448 18.0976 48.5506 18.0976H51.4859C51.5917 18.0976 51.6358 18.0526 51.6182 17.9624L50.0844 9.41637C50.0667 9.36228 50.0403 9.33524 50.005 9.33524C49.9698 9.33524 49.9433 9.36228 49.9257 9.41637L48.4184 17.9624Z" fill="white"/>
<path d="M57.8341 23.8311C57.746 23.8311 57.6666 23.804 57.5961 23.7499C57.5432 23.6778 57.5168 23.5967 57.5168 23.5065V5.22448C57.5168 5.13433 57.5432 5.06222 57.5961 5.00813C57.6666 4.93601 57.746 4.89995 57.8341 4.89995H60.267C60.3552 4.89995 60.4257 4.93601 60.4786 5.00813C60.5491 5.06222 60.5844 5.13433 60.5844 5.22448V20.9914C60.5844 21.0815 60.6284 21.1266 60.7166 21.1266H66.4286C66.5168 21.1266 66.5873 21.1627 66.6402 21.2348C66.7107 21.2889 66.746 21.361 66.746 21.4512V23.5065C66.746 23.5967 66.7107 23.6778 66.6402 23.7499C66.5873 23.804 66.5168 23.8311 66.4286 23.8311H57.8341Z" fill="white"/>
<path d="M73.0691 24.0474C71.5706 24.0474 70.363 23.6057 69.4462 22.7222C68.5471 21.8208 68.0975 20.6308 68.0975 19.1524V9.57864C68.0975 8.10021 68.5471 6.91927 69.4462 6.03582C70.363 5.13433 71.5706 4.68359 73.0691 4.68359C74.5677 4.68359 75.7753 5.13433 76.6921 6.03582C77.6264 6.91927 78.0936 8.10922 78.0936 9.60568V10.6604C78.0936 10.7506 78.0584 10.8317 77.9879 10.9038C77.935 10.9579 77.8644 10.985 77.7763 10.985H75.3434C75.2552 10.985 75.1759 10.9579 75.1054 10.9038C75.0525 10.8317 75.0261 10.7506 75.0261 10.6604V9.5516C75.0261 8.90253 74.8409 8.37967 74.4707 7.98302C74.1181 7.58636 73.6509 7.38804 73.0691 7.38804C72.4874 7.38804 72.0202 7.58636 71.6676 7.98302C71.315 8.37967 71.1387 8.90253 71.1387 9.5516V19.1794C71.1387 19.8285 71.315 20.3513 71.6676 20.748C72.0202 21.1447 72.4874 21.343 73.0691 21.343C73.6509 21.343 74.1181 21.1447 74.4707 20.748C74.8409 20.3513 75.0261 19.8285 75.0261 19.1794V16.5832C75.0261 16.493 74.982 16.4479 74.8938 16.4479H73.2807C73.1926 16.4479 73.1132 16.4209 73.0427 16.3668C72.9898 16.2947 72.9634 16.2135 72.9634 16.1234V14.1492C72.9634 14.059 72.9898 13.9869 73.0427 13.9328C73.1132 13.8607 73.1926 13.8246 73.2807 13.8246H77.7763C77.8644 13.8246 77.935 13.8607 77.9879 13.9328C78.0584 13.9869 78.0936 14.059 78.0936 14.1492V19.1524C78.0936 20.6308 77.6264 21.8208 76.6921 22.7222C75.7753 23.6057 74.5677 24.0474 73.0691 24.0474Z" fill="white"/>
<path d="M85.3637 24.0474C83.8475 24.0474 82.6222 23.5787 81.6878 22.6411C80.7711 21.7036 80.3127 20.4595 80.3127 18.909V9.82204C80.3127 8.27149 80.7711 7.02745 81.6878 6.0899C82.6222 5.15236 83.8475 4.68359 85.3637 4.68359C86.8798 4.68359 88.1051 5.15236 89.0395 6.0899C89.9738 7.02745 90.441 8.27149 90.441 9.82204V18.909C90.441 20.4595 89.9738 21.7036 89.0395 22.6411C88.1051 23.5787 86.8798 24.0474 85.3637 24.0474ZM85.3637 21.343C85.9631 21.343 86.4479 21.1356 86.8181 20.721C87.1883 20.2882 87.3735 19.7293 87.3735 19.0442V9.68682C87.3735 9.00169 87.1883 8.45179 86.8181 8.03711C86.4479 7.60439 85.9631 7.38804 85.3637 7.38804C84.7642 7.38804 84.2794 7.60439 83.9092 8.03711C83.5566 8.45179 83.3803 9.00169 83.3803 9.68682V19.0442C83.3803 19.7293 83.5566 20.2882 83.9092 20.721C84.2794 21.1356 84.7642 21.343 85.3637 21.343Z" fill="white"/>
<path d="M97.0614 24.0474C95.5981 24.0474 94.4169 23.5967 93.5178 22.6952C92.6187 21.7937 92.1691 20.6128 92.1691 19.1524V18.4492C92.1691 18.3591 92.1956 18.287 92.2485 18.2329C92.319 18.1607 92.3983 18.1247 92.4865 18.1247H94.8929C94.9811 18.1247 95.0516 18.1607 95.1045 18.2329C95.175 18.287 95.2103 18.3591 95.2103 18.4492V18.9901C95.2103 19.6933 95.3778 20.2612 95.7127 20.6939C96.0653 21.1266 96.5149 21.343 97.0614 21.343C97.6079 21.343 98.0575 21.1447 98.4101 20.748C98.7627 20.3333 98.939 19.7924 98.939 19.1253C98.939 18.6566 98.842 18.2509 98.6481 17.9083C98.4542 17.5658 98.1809 17.2412 97.8283 16.9347C97.4757 16.6282 96.9116 16.1865 96.1358 15.6096C95.2544 14.9605 94.5404 14.3835 93.9938 13.8787C93.4649 13.3739 93.0154 12.7699 92.6451 12.0667C92.2926 11.3455 92.1163 10.5162 92.1163 9.57864C92.1163 8.08218 92.557 6.89222 93.4385 6.00877C94.32 5.12532 95.4835 4.68359 96.9292 4.68359C98.3925 4.68359 99.5736 5.15236 100.473 6.0899C101.372 7.00942 101.821 8.23543 101.821 9.76795V10.417C101.821 10.5072 101.786 10.5883 101.716 10.6604C101.663 10.7145 101.592 10.7415 101.504 10.7415H99.1241C99.0359 10.7415 98.9566 10.7145 98.8861 10.6604C98.8332 10.5883 98.8068 10.5072 98.8068 10.417V9.71386C98.8068 9.01071 98.6305 8.45179 98.2779 8.03711C97.9429 7.60439 97.4933 7.38804 96.9292 7.38804C96.4003 7.38804 95.9684 7.58636 95.6334 7.98302C95.2984 8.36164 95.1309 8.89351 95.1309 9.57864C95.1309 10.2277 95.3072 10.7776 95.6598 11.2284C96.0301 11.6791 96.7441 12.3011 97.8019 13.0944C98.8773 13.9058 99.6882 14.5728 100.235 15.0957C100.781 15.6005 101.204 16.1595 101.504 16.7725C101.804 17.3855 101.954 18.1157 101.954 18.9631C101.954 20.4956 101.504 21.7306 100.605 22.6682C99.7059 23.5877 98.5247 24.0474 97.0614 24.0474Z" fill="#8BD4E9"/>
<path d="M111.675 23.8311C111.463 23.8311 111.348 23.7319 111.331 23.5336L110.828 20.6939C110.828 20.6038 110.775 20.5587 110.67 20.5587H106.809C106.703 20.5587 106.65 20.6038 106.65 20.6939L106.148 23.5336C106.13 23.7319 106.015 23.8311 105.804 23.8311H103.397C103.151 23.8311 103.054 23.7139 103.106 23.4795L107.02 5.19744C107.056 4.99911 107.17 4.89995 107.364 4.89995H110.167C110.361 4.89995 110.476 4.99911 110.511 5.19744L114.425 23.4795V23.5877C114.425 23.7499 114.328 23.8311 114.134 23.8311H111.675ZM107.126 17.9624C107.108 18.0526 107.153 18.0976 107.258 18.0976H110.194C110.299 18.0976 110.344 18.0526 110.326 17.9624L108.792 9.41637C108.774 9.36228 108.748 9.33524 108.713 9.33524C108.678 9.33524 108.651 9.36228 108.633 9.41637L107.126 17.9624Z" fill="#8BD4E9"/>
<path d="M125.427 7.27986C125.427 7.37001 125.392 7.45114 125.321 7.52326C125.269 7.57735 125.198 7.60439 125.11 7.60439H119.424C119.336 7.60439 119.292 7.64947 119.292 7.73962V12.851C119.292 12.9412 119.336 12.9862 119.424 12.9862H122.783C122.871 12.9862 122.941 13.0223 122.994 13.0944C123.065 13.1485 123.1 13.2206 123.1 13.3108V15.3932C123.1 15.4833 123.065 15.5645 122.994 15.6366C122.941 15.6907 122.871 15.7177 122.783 15.7177H119.424C119.336 15.7177 119.292 15.7628 119.292 15.853V23.5065C119.292 23.5967 119.257 23.6778 119.186 23.7499C119.133 23.804 119.063 23.8311 118.975 23.8311H116.542C116.454 23.8311 116.374 23.804 116.304 23.7499C116.251 23.6778 116.225 23.5967 116.225 23.5065V5.22448C116.225 5.13433 116.251 5.06222 116.304 5.00813C116.374 4.93601 116.454 4.89995 116.542 4.89995H125.11C125.198 4.89995 125.269 4.93601 125.321 5.00813C125.392 5.06222 125.427 5.13433 125.427 5.22448V7.27986Z" fill="#8BD4E9"/>
<path d="M136.429 7.27986C136.429 7.37001 136.394 7.45114 136.324 7.52326C136.271 7.57735 136.2 7.60439 136.112 7.60439H130.4C130.312 7.60439 130.268 7.64947 130.268 7.73962V12.851C130.268 12.9412 130.312 12.9862 130.4 12.9862H133.785C133.873 12.9862 133.943 13.0223 133.996 13.0944C134.067 13.1485 134.102 13.2206 134.102 13.3108V15.3932C134.102 15.4833 134.067 15.5645 133.996 15.6366C133.943 15.6907 133.873 15.7177 133.785 15.7177H130.4C130.312 15.7177 130.268 15.7628 130.268 15.853V20.9914C130.268 21.0815 130.312 21.1266 130.4 21.1266H136.112C136.2 21.1266 136.271 21.1627 136.324 21.2348C136.394 21.2889 136.429 21.361 136.429 21.4512V23.5065C136.429 23.5967 136.394 23.6778 136.324 23.7499C136.271 23.804 136.2 23.8311 136.112 23.8311H127.517C127.429 23.8311 127.35 23.804 127.279 23.7499C127.227 23.6778 127.2 23.5967 127.2 23.5065V5.22448C127.2 5.13433 127.227 5.06222 127.279 5.00813C127.35 4.93601 127.429 4.89995 127.517 4.89995H136.112C136.2 4.89995 136.271 4.93601 136.324 5.00813C136.394 5.06222 136.429 5.13433 136.429 5.22448V7.27986Z" fill="#8BD4E9"/>
</svg>
