<svg width="157" height="20" viewBox="0 0 157 20" fill="none" xmlns="http://www.w3.org/2000/svg">
<g clip-path="url(#clip0_10284_84446)">
<path d="M28.6684 16.6599C28.7205 16.6082 28.7274 16.5255 28.6858 16.4635L17.2587 0.13797C17.1338 -0.044688 16.8597 -0.044688 16.7348 0.13797L5.67892 16.529C5.64076 16.5841 5.64423 16.6599 5.68586 16.7116L7.51406 18.9862C7.57997 19.0655 7.70486 19.062 7.76036 18.9759L16.8667 5.40749C16.9291 5.31788 17.0575 5.31788 17.1199 5.40749L26.4968 18.5692C26.5523 18.6485 26.6633 18.6588 26.7327 18.5899L28.665 16.6634L28.6684 16.6599Z" fill="#45B5AD"/>
<path d="M5.42562 4.25977H8.65186C8.76287 4.25977 8.82184 4.42519 8.74552 4.52514L3.5211 11.6557C3.47601 11.7143 3.47601 11.8073 3.5211 11.8694L8.75246 19.1757C8.82531 19.2791 8.76634 19.4411 8.65879 19.4411H5.42562C5.38746 19.4411 5.35277 19.4204 5.33196 19.3859L0.0312216 11.8728C-0.0104072 11.8108 -0.0104072 11.7212 0.0312216 11.6626L5.33196 4.31491C5.35624 4.28044 5.39093 4.26321 5.42562 4.26321V4.25977Z" fill="black"/>
<path d="M28.53 4.25979H25.3037C25.1927 4.25979 25.1337 4.42522 25.2101 4.52517L30.4345 11.6557C30.4796 11.7143 30.4796 11.8074 30.4345 11.8694L25.2031 19.1757C25.1303 19.2791 25.1893 19.4411 25.2968 19.4411H28.53C28.5681 19.4411 28.6028 19.4204 28.6236 19.386L33.9244 11.866C33.966 11.8039 33.966 11.7143 33.9244 11.6557L28.6271 4.30804C28.6028 4.27358 28.5681 4.25635 28.5334 4.25635L28.53 4.25979Z" fill="black"/>
<path d="M20.3915 4.25977H23.6836C23.8085 4.25977 23.8814 4.40451 23.8085 4.51135L13.8835 19.379C13.8558 19.4204 13.8072 19.448 13.7586 19.448H10.4595C10.3347 19.448 10.2618 19.3032 10.3347 19.1998L20.2666 4.32869C20.2944 4.28734 20.3429 4.25977 20.3915 4.25977Z" fill="black"/>
<path d="M35.291 16.6941L38.8468 7.00977H42.4893L46.0451 16.6941H42.7287L42.3193 15.3293H38.9058L38.4964 16.6941H35.2945H35.291ZM39.5545 13.1616H41.681L41.2127 11.6141C41.1746 11.5004 41.1329 11.366 41.0844 11.2075C41.0358 11.0489 40.9907 10.88 40.9421 10.7008C40.8936 10.5216 40.8485 10.3459 40.7999 10.1735C40.7513 10.0012 40.7097 9.84614 40.6715 9.71517H40.5571C40.5189 9.88405 40.4703 10.077 40.4079 10.2907C40.3454 10.5078 40.283 10.7284 40.2171 10.9593C40.1512 11.1902 40.0853 11.4073 40.0194 11.6141L39.551 13.1616H39.5545Z" fill="black"/>
<path d="M47.2217 16.6941V7.00977H50.3542V14.2161H55.3566V16.6941H47.2252H47.2217Z" fill="black"/>
<path d="M60.6951 16.8629C59.0716 16.8629 57.854 16.439 57.0457 15.5946C56.2374 14.7503 55.835 13.5027 55.835 11.8519C55.835 10.7456 56.0431 9.81849 56.4594 9.07752C56.8757 8.33655 57.4793 7.77824 58.2737 7.40258C59.0681 7.02692 60.0256 6.84082 61.1496 6.84082C61.8295 6.84082 62.4678 6.91664 63.068 7.07173C63.6681 7.22681 64.1954 7.45772 64.6533 7.761C65.1112 8.06429 65.4686 8.44683 65.7218 8.90865C65.9785 9.36702 66.1034 9.90465 66.1034 10.5147H63.1131C63.1131 10.3079 63.0645 10.1218 62.9639 9.9529C62.8633 9.78403 62.7315 9.63928 62.5615 9.5221C62.3915 9.40493 62.1938 9.31532 61.9752 9.25329C61.7532 9.19125 61.5208 9.16023 61.2745 9.16023C60.9067 9.16023 60.5806 9.20848 60.2962 9.30843C60.0117 9.40837 59.7793 9.55312 59.5954 9.75301C59.4116 9.94945 59.2728 10.1838 59.1791 10.4561C59.0855 10.7283 59.0369 11.042 59.0369 11.4004V12.2999C59.0369 12.7686 59.1202 13.1718 59.2832 13.5027C59.4497 13.837 59.6995 14.092 60.0325 14.2712C60.369 14.4504 60.7819 14.54 61.271 14.54C61.6006 14.54 61.9058 14.4918 62.1834 14.3918C62.4609 14.2919 62.6864 14.1506 62.8564 13.961C63.0263 13.7749 63.1131 13.5578 63.1131 13.3131V13.258H60.9033V11.2867H66.1034V16.6906H64.4868L64.1746 15.7325C63.8832 15.9772 63.5606 16.184 63.2102 16.3528C62.8598 16.5217 62.4782 16.6492 62.0619 16.7319C61.6456 16.8181 61.1877 16.8594 60.6882 16.8594L60.6951 16.8629Z" fill="black"/>
<path d="M72.8958 16.8629C71.7892 16.8629 70.8456 16.6768 70.0616 16.3011C69.2776 15.9255 68.6774 15.3637 68.2612 14.6193C67.8449 13.8749 67.6367 12.9513 67.6367 11.8519C67.6367 10.7525 67.8449 9.81849 68.2612 9.07752C68.6774 8.33655 69.2776 7.77824 70.0616 7.40258C70.8456 7.02692 71.7892 6.84082 72.8958 6.84082C74.0025 6.84082 74.9599 7.02692 75.7439 7.40258C76.5279 7.77824 77.1281 8.33655 77.5444 9.07752C77.9607 9.81849 78.1688 10.7421 78.1688 11.8519C78.1688 12.9616 77.9607 13.8714 77.5444 14.6193C77.1281 15.3672 76.5279 15.9255 75.7439 16.3011C74.9599 16.6768 74.0094 16.8629 72.8958 16.8629ZM72.8958 14.54C73.2358 14.54 73.5341 14.4849 73.7943 14.3781C74.0545 14.2712 74.2696 14.1161 74.4465 13.9197C74.62 13.7232 74.7518 13.4854 74.835 13.2097C74.9218 12.934 74.9634 12.6307 74.9634 12.3033V11.4038C74.9634 11.0764 74.9218 10.7731 74.835 10.4974C74.7483 10.2217 74.62 9.98392 74.4465 9.78747C74.273 9.59103 74.0545 9.43939 73.7943 9.32911C73.5341 9.22227 73.2358 9.16713 72.8958 9.16713C72.5559 9.16713 72.254 9.22227 71.9973 9.32911C71.7372 9.43594 71.5221 9.59103 71.3521 9.78747C71.1821 9.98392 71.0538 10.2217 70.9705 10.4974C70.8838 10.7731 70.8421 11.0764 70.8421 11.4038V12.3033C70.8421 12.6307 70.8838 12.934 70.9705 13.2097C71.0572 13.4854 71.1821 13.7232 71.3521 13.9197C71.5221 14.1161 71.7372 14.2678 71.9973 14.3781C72.2575 14.4849 72.5559 14.54 72.8958 14.54Z" fill="black"/>
<path d="M79.8516 16.6941V7.00977H87.7298V9.33263H82.9841V10.9938H87.0638V13.2167H82.9841V16.6941H79.8516Z" fill="#45B5AD"/>
<path d="M94.1468 16.8629C93.0402 16.8629 92.0966 16.6768 91.3126 16.3011C90.5286 15.9255 89.9284 15.3637 89.5121 14.6193C89.0958 13.8749 88.8877 12.9513 88.8877 11.8519C88.8877 10.7525 89.0958 9.81849 89.5121 9.07752C89.9284 8.33655 90.5286 7.77824 91.3126 7.40258C92.0966 7.02692 93.0402 6.84082 94.1468 6.84082C95.2534 6.84082 96.2109 7.02692 96.9949 7.40258C97.7789 7.77824 98.3791 8.33655 98.7954 9.07752C99.2116 9.81849 99.4198 10.7421 99.4198 11.8519C99.4198 12.9616 99.2116 13.8714 98.7954 14.6193C98.3791 15.3672 97.7789 15.9255 96.9949 16.3011C96.2109 16.6768 95.2604 16.8629 94.1468 16.8629ZM94.1468 14.54C94.4868 14.54 94.7851 14.4849 95.0453 14.3781C95.3055 14.2712 95.524 14.1161 95.6975 13.9197C95.8709 13.7232 96.0028 13.4854 96.086 13.2097C96.1727 12.934 96.2144 12.6307 96.2144 12.3033V11.4038C96.2144 11.0764 96.1727 10.7731 96.086 10.4974C95.9993 10.2217 95.8709 9.98392 95.6975 9.78747C95.524 9.59103 95.3055 9.43939 95.0453 9.32911C94.7851 9.22227 94.4868 9.16713 94.1468 9.16713C93.8068 9.16713 93.5085 9.22227 93.2483 9.32911C92.9881 9.43594 92.773 9.59103 92.6031 9.78747C92.4331 9.98392 92.3047 10.2217 92.2215 10.4974C92.1347 10.7731 92.0931 11.0764 92.0931 11.4038V12.3033C92.0931 12.6307 92.1347 12.934 92.2215 13.2097C92.3082 13.4854 92.4331 13.7232 92.6031 13.9197C92.773 14.1161 92.9881 14.2678 93.2483 14.3781C93.5085 14.4849 93.8068 14.54 94.1468 14.54Z" fill="#45B5AD"/>
<path d="M105.963 16.863C104.943 16.863 104.072 16.7113 103.347 16.4046C102.625 16.1013 102.07 15.6429 101.682 15.0398C101.293 14.4333 101.103 13.6854 101.103 12.7962V7.00977H104.235V12.7514C104.235 13.2684 104.377 13.6957 104.658 14.0335C104.943 14.3712 105.373 14.5401 105.949 14.5401C106.525 14.5401 106.958 14.3712 107.246 14.0335C107.534 13.6957 107.68 13.2684 107.68 12.7514V7.00977H110.812V12.7962C110.812 13.6888 110.622 14.4367 110.24 15.0398C109.858 15.6464 109.303 16.1013 108.582 16.4046C107.86 16.7079 106.986 16.863 105.966 16.863H105.963Z" fill="#45B5AD"/>
<path d="M112.908 16.6941V7.00977H115.572L118.604 10.4872C118.691 10.5802 118.802 10.7181 118.944 10.8938C119.087 11.073 119.229 11.2523 119.378 11.4349C119.524 11.6176 119.635 11.7658 119.711 11.8795L119.78 11.8519C119.77 11.59 119.767 11.3281 119.767 11.0696V7.00977H122.615V16.6941H119.964L116.551 12.8238C116.391 12.6377 116.252 12.4654 116.141 12.3103C116.027 12.1552 115.919 12.007 115.815 11.8657L115.742 11.8933C115.753 12.0725 115.756 12.2517 115.756 12.4275V16.6941H112.908Z" fill="#45B5AD"/>
<path d="M124.71 16.6941V7.00977H128.932C130.045 7.00977 130.982 7.18208 131.738 7.53017C132.495 7.87825 133.067 8.409 133.459 9.1224C133.851 9.8358 134.045 10.7456 134.045 11.8519C134.045 12.9582 133.847 13.8577 133.459 14.5746C133.067 15.2914 132.491 15.8256 131.738 16.1737C130.982 16.5218 130.049 16.6941 128.932 16.6941H124.71ZM127.843 14.3712H128.876C129.216 14.3712 129.511 14.323 129.761 14.2299C130.011 14.1369 130.215 13.999 130.378 13.8233C130.538 13.644 130.656 13.4235 130.732 13.1616C130.809 12.8996 130.847 12.6032 130.847 12.2758V11.4315C130.847 11.1041 130.809 10.8077 130.732 10.5458C130.656 10.2838 130.538 10.0633 130.378 9.88405C130.219 9.70483 130.011 9.57043 129.761 9.47737C129.511 9.38432 129.216 9.33607 128.876 9.33607H127.843V14.3747V14.3712Z" fill="#45B5AD"/>
<path d="M135.731 16.6941V7.00977H141.837C142.565 7.00977 143.172 7.15451 143.658 7.44746C144.143 7.73695 144.511 8.1195 144.758 8.58821C145.004 9.05692 145.125 9.56353 145.125 10.1081C145.125 10.7284 144.98 11.2798 144.685 11.7623C144.393 12.2448 143.994 12.6343 143.495 12.9238L145.406 16.6975H141.892L140.404 13.4476H138.86V16.6975H135.728L135.731 16.6941ZM138.864 11.2902H141.059C141.306 11.2902 141.514 11.1937 141.684 11.0007C141.854 10.8077 141.937 10.5526 141.937 10.2321C141.937 10.0357 141.899 9.85992 141.823 9.71173C141.746 9.56009 141.642 9.44291 141.51 9.3533C141.379 9.2637 141.226 9.2189 141.056 9.2189H138.86V11.2867L138.864 11.2902Z" fill="#45B5AD"/>
<path d="M149.389 16.6941V12.9341L145.521 7.00977H149.118L150.988 10.2321H151.043L152.913 7.00977H156.327L152.514 12.9341V16.6941H149.382H149.389Z" fill="#45B5AD"/>
</g>
<defs>
<clipPath id="clip0_10284_84446">
<rect width="156.334" height="19.4445" fill="white"/>
</clipPath>
</defs>
</svg>
