<svg width="142" height="26" viewBox="0 0 142 26" fill="none" xmlns="http://www.w3.org/2000/svg">
<path d="M35.2184 21.58C35.2497 21.5486 35.2691 21.5073 35.2731 21.4631C35.2771 21.419 35.2655 21.3748 35.2404 21.3384L21.2031 1.14698C21.1674 1.09448 21.1194 1.0515 21.0632 1.0218C21.0071 0.992091 20.9446 0.976562 20.8811 0.976562C20.8176 0.976563 20.7551 0.992091 20.6989 1.0218C20.6428 1.0515 20.5948 1.09448 20.5591 1.14698L6.48186 21.0149C6.45804 21.0488 6.44594 21.0896 6.44738 21.131C6.44882 21.1725 6.46373 21.2123 6.48984 21.2445L8.73322 24.058C8.75185 24.0801 8.77529 24.0977 8.80176 24.1093C8.82822 24.121 8.85701 24.1265 8.88591 24.1253C8.91481 24.1242 8.94307 24.1164 8.96852 24.1027C8.99396 24.0889 9.01593 24.0695 9.03273 24.046L20.7218 7.66645C20.7392 7.64112 20.7624 7.6204 20.7895 7.60608C20.8167 7.59176 20.8469 7.58428 20.8776 7.58428C20.9083 7.58428 20.9385 7.59176 20.9656 7.60608C20.9928 7.6204 21.016 7.64112 21.0333 7.66645L32.5537 23.9401C32.5696 23.9629 32.5902 23.9819 32.6141 23.9958C32.6381 24.0097 32.6648 24.0182 32.6924 24.0207C32.72 24.0231 32.7478 24.0195 32.7739 24.0101C32.7999 24.0007 32.8236 23.9857 32.8432 23.9661L35.2184 21.58Z" fill="#258BAC"/>
<path d="M6.66552 6.24609H10.6301C10.7659 6.24609 10.8378 6.44577 10.7459 6.57556L4.32631 15.3943C4.29995 15.4334 4.28587 15.4795 4.28587 15.5266C4.28587 15.5737 4.29995 15.6198 4.32631 15.6589L10.7529 24.6943C10.8438 24.8211 10.7719 25.0227 10.6371 25.0227H6.66652C6.64297 25.0218 6.61999 25.0152 6.5995 25.0036C6.57901 24.992 6.56159 24.9756 6.54871 24.9559L0.0392333 15.6539C0.0136411 15.6151 0 15.5696 0 15.5231C0 15.4766 0.0136411 15.4311 0.0392333 15.3923L6.54772 6.307C6.56114 6.28825 6.57881 6.27296 6.59929 6.26237C6.61977 6.25178 6.64247 6.24621 6.66552 6.24609Z" fill="black"/>
<path d="M35.0484 6.24609H31.0828C30.9471 6.24609 30.8762 6.44577 30.968 6.57556L37.3866 15.3943C37.413 15.4334 37.4271 15.4795 37.4271 15.5266C37.4271 15.5737 37.413 15.6198 37.3866 15.6589L30.96 24.6943C30.8702 24.8211 30.9411 25.0227 31.0758 25.0227H35.0434C35.0668 25.0217 35.0896 25.0151 35.11 25.0035C35.1303 24.9918 35.1475 24.9755 35.1602 24.9559L41.6737 15.6539C41.6996 15.6152 41.7133 15.5697 41.7133 15.5231C41.7133 15.4765 41.6996 15.431 41.6737 15.3923L35.1652 6.307C35.1519 6.28839 35.1344 6.27318 35.1141 6.2626C35.0938 6.25202 35.0713 6.24636 35.0484 6.24609Z" fill="black"/>
<path d="M25.0516 6.24609H29.0961C29.1311 6.24816 29.165 6.25942 29.1943 6.27874C29.2235 6.29806 29.2472 6.32475 29.2629 6.35612C29.2786 6.3875 29.2857 6.42246 29.2836 6.45748C29.2815 6.49249 29.2702 6.52634 29.2508 6.55559L17.0575 24.9389C17.0406 24.9644 17.0176 24.9855 16.9906 25.0001C16.9636 25.0147 16.9335 25.0225 16.9028 25.0227H12.8503C12.8155 25.0206 12.7818 25.0093 12.7527 24.99C12.7235 24.9708 12.6999 24.9442 12.6843 24.913C12.6686 24.8818 12.6614 24.847 12.6634 24.8121C12.6654 24.7772 12.6765 24.7435 12.6956 24.7142L24.8969 6.33096C24.9136 6.30508 24.9365 6.28378 24.9635 6.26897C24.9905 6.25415 25.0208 6.24629 25.0516 6.24609Z" fill="black"/>
<path d="M52.9678 24.8057C52.7563 24.8057 52.6417 24.7065 52.624 24.5082L52.1216 21.6685C52.1216 21.5784 52.0687 21.5333 51.9629 21.5333H48.102C47.9962 21.5333 47.9433 21.5784 47.9433 21.6685L47.4409 24.5082C47.4233 24.7065 47.3087 24.8057 47.0971 24.8057H44.6906C44.4438 24.8057 44.3469 24.6885 44.3997 24.4541L48.3136 6.17205C48.3488 5.97372 48.4634 5.87456 48.6573 5.87456H51.4605C51.6544 5.87456 51.769 5.97372 51.8043 6.17205L55.7181 24.4541V24.5623C55.7181 24.7245 55.6211 24.8057 55.4272 24.8057H52.9678ZM48.4193 18.937C48.4017 19.0272 48.4458 19.0723 48.5516 19.0723H51.4869C51.5927 19.0723 51.6368 19.0272 51.6191 18.937L50.0854 10.391C50.0677 10.3369 50.0413 10.3098 50.006 10.3098C49.9708 10.3098 49.9443 10.3369 49.9267 10.391L48.4193 18.937Z" fill="black"/>
<path d="M57.8351 24.8057C57.7469 24.8057 57.6676 24.7786 57.5971 24.7245C57.5442 24.6524 57.5178 24.5713 57.5178 24.4811V6.19909C57.5178 6.10894 57.5442 6.03682 57.5971 5.98274C57.6676 5.91062 57.7469 5.87456 57.8351 5.87456H60.268C60.3562 5.87456 60.4267 5.91062 60.4796 5.98274C60.5501 6.03682 60.5853 6.10894 60.5853 6.19909V21.966C60.5853 22.0562 60.6294 22.1012 60.7176 22.1012H66.4296C66.5178 22.1012 66.5883 22.1373 66.6412 22.2094C66.7117 22.2635 66.7469 22.3356 66.7469 22.4258V24.4811C66.7469 24.5713 66.7117 24.6524 66.6412 24.7245C66.5883 24.7786 66.5178 24.8057 66.4296 24.8057H57.8351Z" fill="black"/>
<path d="M73.0701 25.022C71.5716 25.022 70.364 24.5803 69.4472 23.6969C68.5481 22.7954 68.0985 21.6054 68.0985 20.127V10.5532C68.0985 9.07482 68.5481 7.89388 69.4472 7.01042C70.364 6.10894 71.5716 5.6582 73.0701 5.6582C74.5687 5.6582 75.7763 6.10894 76.693 7.01042C77.6274 7.89388 78.0946 9.08383 78.0946 10.5803V11.635C78.0946 11.7252 78.0594 11.8063 77.9888 11.8784C77.9359 11.9325 77.8654 11.9596 77.7773 11.9596H75.3444C75.2562 11.9596 75.1769 11.9325 75.1064 11.8784C75.0535 11.8063 75.027 11.7252 75.027 11.635V10.5262C75.027 9.87714 74.8419 9.35428 74.4717 8.95763C74.1191 8.56097 73.6519 8.36265 73.0701 8.36265C72.4883 8.36265 72.0212 8.56097 71.6686 8.95763C71.316 9.35428 71.1397 9.87714 71.1397 10.5262V20.154C71.1397 20.8031 71.316 21.326 71.6686 21.7226C72.0212 22.1193 72.4883 22.3176 73.0701 22.3176C73.6519 22.3176 74.1191 22.1193 74.4717 21.7226C74.8419 21.326 75.027 20.8031 75.027 20.154V17.5578C75.027 17.4676 74.983 17.4225 74.8948 17.4225H73.2817C73.1935 17.4225 73.1142 17.3955 73.0437 17.3414C72.9908 17.2693 72.9643 17.1882 72.9643 17.098V15.1238C72.9643 15.0336 72.9908 14.9615 73.0437 14.9074C73.1142 14.8353 73.1935 14.7992 73.2817 14.7992H77.7773C77.8654 14.7992 77.9359 14.8353 77.9888 14.9074C78.0594 14.9615 78.0946 15.0336 78.0946 15.1238V20.127C78.0946 21.6054 77.6274 22.7954 76.693 23.6969C75.7763 24.5803 74.5687 25.022 73.0701 25.022Z" fill="black"/>
<path d="M85.3646 25.022C83.8485 25.022 82.6232 24.5533 81.6888 23.6157C80.7721 22.6782 80.3137 21.4341 80.3137 19.8836V10.7966C80.3137 9.2461 80.7721 8.00206 81.6888 7.06451C82.6232 6.12697 83.8485 5.6582 85.3646 5.6582C86.8808 5.6582 88.1061 6.12697 89.0404 7.06451C89.9748 8.00206 90.442 9.2461 90.442 10.7966V19.8836C90.442 21.4341 89.9748 22.6782 89.0404 23.6157C88.1061 24.5533 86.8808 25.022 85.3646 25.022ZM85.3646 22.3176C85.964 22.3176 86.4489 22.1102 86.8191 21.6956C87.1893 21.2629 87.3744 20.7039 87.3744 20.0188V10.6614C87.3744 9.9763 87.1893 9.4264 86.8191 9.01171C86.4489 8.579 85.964 8.36265 85.3646 8.36265C84.7652 8.36265 84.2804 8.579 83.9102 9.01171C83.5576 9.4264 83.3813 9.9763 83.3813 10.6614V20.0188C83.3813 20.7039 83.5576 21.2629 83.9102 21.6956C84.2804 22.1102 84.7652 22.3176 85.3646 22.3176Z" fill="black"/>
<path d="M97.0624 25.022C95.5991 25.022 94.4179 24.5713 93.5188 23.6698C92.6197 22.7683 92.1701 21.5874 92.1701 20.127V19.4238C92.1701 19.3337 92.1966 19.2616 92.2495 19.2075C92.32 19.1354 92.3993 19.0993 92.4875 19.0993H94.8939C94.9821 19.0993 95.0526 19.1354 95.1055 19.2075C95.176 19.2616 95.2113 19.3337 95.2113 19.4238V19.9647C95.2113 20.6679 95.3787 21.2358 95.7137 21.6685C96.0663 22.1012 96.5159 22.3176 97.0624 22.3176C97.6089 22.3176 98.0585 22.1193 98.4111 21.7226C98.7637 21.3079 98.94 20.767 98.94 20.0999C98.94 19.6312 98.843 19.2255 98.6491 18.8829C98.4551 18.5404 98.1819 18.2158 97.8293 17.9093C97.4767 17.6028 96.9125 17.1611 96.1368 16.5842C95.2553 15.9351 94.5413 15.3581 93.9948 14.8533C93.4659 14.3485 93.0163 13.7445 92.6461 13.0413C92.2935 12.3202 92.1172 11.4908 92.1172 10.5532C92.1172 9.05679 92.558 7.86683 93.4395 6.98338C94.321 6.09993 95.4845 5.6582 96.9302 5.6582C98.3934 5.6582 99.5746 6.12697 100.474 7.06451C101.373 7.98403 101.822 9.21004 101.822 10.7426V11.3916C101.822 11.4818 101.787 11.5629 101.717 11.635C101.664 11.6891 101.593 11.7162 101.505 11.7162H99.1251C99.0369 11.7162 98.9576 11.6891 98.8871 11.635C98.8342 11.5629 98.8077 11.4818 98.8077 11.3916V10.6885C98.8077 9.98532 98.6314 9.4264 98.2788 9.01171C97.9439 8.579 97.4943 8.36265 96.9302 8.36265C96.4013 8.36265 95.9693 8.56097 95.6344 8.95763C95.2994 9.33625 95.1319 9.86812 95.1319 10.5532C95.1319 11.2023 95.3082 11.7522 95.6608 12.203C96.031 12.6537 96.7451 13.2757 97.8028 14.069C98.8783 14.8804 99.6892 15.5475 100.236 16.0703C100.782 16.5751 101.205 17.1341 101.505 17.7471C101.805 18.3601 101.955 19.0903 101.955 19.9377C101.955 21.4702 101.505 22.7052 100.606 23.6428C99.7069 24.5623 98.5257 25.022 97.0624 25.022Z" fill="#258BAC"/>
<path d="M111.676 24.8057C111.464 24.8057 111.349 24.7065 111.332 24.5082L110.829 21.6685C110.829 21.5784 110.776 21.5333 110.671 21.5333H106.81C106.704 21.5333 106.651 21.5784 106.651 21.6685L106.149 24.5082C106.131 24.7065 106.016 24.8057 105.805 24.8057H103.398C103.152 24.8057 103.055 24.6885 103.107 24.4541L107.021 6.17205C107.057 5.97372 107.171 5.87456 107.365 5.87456H110.168C110.362 5.87456 110.477 5.97372 110.512 6.17205L114.426 24.4541V24.5623C114.426 24.7245 114.329 24.8057 114.135 24.8057H111.676ZM107.127 18.937C107.109 19.0272 107.154 19.0723 107.259 19.0723H110.195C110.3 19.0723 110.345 19.0272 110.327 18.937L108.793 10.391C108.775 10.3369 108.749 10.3098 108.714 10.3098C108.678 10.3098 108.652 10.3369 108.634 10.391L107.127 18.937Z" fill="#258BAC"/>
<path d="M125.428 8.25447C125.428 8.34462 125.393 8.42575 125.322 8.49787C125.27 8.55196 125.199 8.579 125.111 8.579H119.425C119.337 8.579 119.293 8.62408 119.293 8.71423V13.8256C119.293 13.9158 119.337 13.9609 119.425 13.9609H122.784C122.872 13.9609 122.942 13.9969 122.995 14.069C123.066 14.1231 123.101 14.1952 123.101 14.2854V16.3678C123.101 16.458 123.066 16.5391 122.995 16.6112C122.942 16.6653 122.872 16.6923 122.784 16.6923H119.425C119.337 16.6923 119.293 16.7374 119.293 16.8276V24.4811C119.293 24.5713 119.258 24.6524 119.187 24.7245C119.134 24.7786 119.064 24.8057 118.976 24.8057H116.543C116.455 24.8057 116.375 24.7786 116.305 24.7245C116.252 24.6524 116.225 24.5713 116.225 24.4811V6.19909C116.225 6.10894 116.252 6.03682 116.305 5.98274C116.375 5.91062 116.455 5.87456 116.543 5.87456H125.111C125.199 5.87456 125.27 5.91062 125.322 5.98274C125.393 6.03682 125.428 6.10894 125.428 6.19909V8.25447Z" fill="#258BAC"/>
<path d="M136.43 8.25447C136.43 8.34462 136.395 8.42575 136.324 8.49787C136.272 8.55196 136.201 8.579 136.113 8.579H130.401C130.313 8.579 130.269 8.62408 130.269 8.71423V13.8256C130.269 13.9158 130.313 13.9609 130.401 13.9609H133.786C133.874 13.9609 133.944 13.9969 133.997 14.069C134.068 14.1231 134.103 14.1952 134.103 14.2854V16.3678C134.103 16.458 134.068 16.5391 133.997 16.6112C133.944 16.6653 133.874 16.6923 133.786 16.6923H130.401C130.313 16.6923 130.269 16.7374 130.269 16.8276V21.966C130.269 22.0562 130.313 22.1012 130.401 22.1012H136.113C136.201 22.1012 136.272 22.1373 136.324 22.2094C136.395 22.2635 136.43 22.3356 136.43 22.4258V24.4811C136.43 24.5713 136.395 24.6524 136.324 24.7245C136.272 24.7786 136.201 24.8057 136.113 24.8057H127.518C127.43 24.8057 127.351 24.7786 127.28 24.7245C127.228 24.6524 127.201 24.5713 127.201 24.4811V6.19909C127.201 6.10894 127.228 6.03682 127.28 5.98274C127.351 5.91062 127.43 5.87456 127.518 5.87456H136.113C136.201 5.87456 136.272 5.91062 136.324 5.98274C136.395 6.03682 136.43 6.10894 136.43 6.19909V8.25447Z" fill="#258BAC"/>
</svg>