<svg width="60" height="61" viewBox="0 0 60 61" fill="none" xmlns="http://www.w3.org/2000/svg">
<path d="M0 30.5C0 16.3579 0 9.2868 4.3934 4.8934C8.7868 0.5 15.8579 0.5 30 0.5C44.1421 0.5 51.2132 0.5 55.6066 4.8934C60 9.2868 60 16.3579 60 30.5C60 44.6421 60 51.7132 55.6066 56.1066C51.2132 60.5 44.1421 60.5 30 60.5C15.8579 60.5 8.7868 60.5 4.3934 56.1066C0 51.7132 0 44.6421 0 30.5Z" fill="#42A1B6"/>
<g filter="url(#filter0_ii_1283_45829)">
<path d="M27.5907 31.3039C27.5907 29.6349 28.9562 28.2695 30.6252 28.2695C32.2941 28.2695 33.6596 29.6349 33.6596 31.3039C33.6596 32.9728 32.2941 34.3383 30.6252 34.3383C28.9562 34.3383 27.5907 32.9728 27.5907 31.3039ZM24.2529 39.9519L21.9771 37.8278L24.2529 35.552C23.4943 34.3383 23.0391 32.8211 23.0391 31.3039C23.0391 29.7867 23.4943 28.2695 24.2529 27.2074L21.9771 24.9316L24.2529 22.6558L26.377 24.9316C27.5907 24.173 29.108 23.7179 30.6252 23.7179C32.1424 23.7179 33.6596 24.173 34.8733 24.9316L37.1491 22.6558L39.2732 24.7799L36.9974 27.0557C37.756 28.2695 38.2112 29.7867 38.2112 31.3039C38.2112 32.8211 37.756 34.3383 36.9974 35.552L39.2732 37.8278L37.1491 39.9519L34.8733 37.6761C33.6596 38.4347 32.1424 38.8899 30.6252 38.8899C29.108 38.8899 27.5907 38.4347 26.5287 37.6761L24.2529 39.9519ZM30.6252 26.7523C28.0459 26.7523 26.0735 28.7246 26.0735 31.3039C26.0735 33.8831 28.0459 35.8555 30.6252 35.8555C33.2044 35.8555 35.1768 33.8831 35.1768 31.3039C35.1768 28.7246 33.2044 26.7523 30.6252 26.7523ZM42.7628 16.1318C44.4317 16.1318 45.7972 17.4973 45.7972 19.1662V43.4415C45.7972 45.1104 44.4317 46.4759 42.7628 46.4759H41.2456V47.9931H35.1768V46.4759H26.0735V47.9931H20.0047V46.4759H18.4875C16.8186 46.4759 15.4531 45.1104 15.4531 43.4415V19.1662C15.4531 17.4973 16.8186 16.1318 18.4875 16.1318H42.7628ZM42.7628 43.4415V19.1662H18.4875V43.4415H42.7628Z" fill="white"/>
</g>
<defs>
<filter id="filter0_ii_1283_45829" x="15.4531" y="15.3227" width="30.3438" height="33.4797" filterUnits="userSpaceOnUse" color-interpolation-filters="sRGB">
<feFlood flood-opacity="0" result="BackgroundImageFix"/>
<feBlend mode="normal" in="SourceGraphic" in2="BackgroundImageFix" result="shape"/>
<feColorMatrix in="SourceAlpha" type="matrix" values="0 0 0 0 0 0 0 0 0 0 0 0 0 0 0 0 0 0 127 0" result="hardAlpha"/>
<feOffset dy="0.809175"/>
<feGaussianBlur stdDeviation="0.809175"/>
<feComposite in2="hardAlpha" operator="arithmetic" k2="-1" k3="1"/>
<feColorMatrix type="matrix" values="0 0 0 0 0 0 0 0 0 0 0 0 0 0 0 0 0 0 0.05 0"/>
<feBlend mode="normal" in2="shape" result="effect1_innerShadow_1283_45829"/>
<feColorMatrix in="SourceAlpha" type="matrix" values="0 0 0 0 0 0 0 0 0 0 0 0 0 0 0 0 0 0 127 0" result="hardAlpha"/>
<feOffset dy="-0.809175"/>
<feGaussianBlur stdDeviation="0.404587"/>
<feComposite in2="hardAlpha" operator="arithmetic" k2="-1" k3="1"/>
<feColorMatrix type="matrix" values="0 0 0 0 1 0 0 0 0 1 0 0 0 0 1 0 0 0 0.5 0"/>
<feBlend mode="normal" in2="effect1_innerShadow_1283_45829" result="effect2_innerShadow_1283_45829"/>
</filter>
</defs>
</svg>
