<svg width="24" height="25" viewBox="0 0 24 25" fill="none" xmlns="http://www.w3.org/2000/svg">
<path d="M10 12.75C10 11.65 10.9 10.75 12 10.75C13.1 10.75 14 11.65 14 12.75C14 13.85 13.1 14.75 12 14.75C10.9 14.75 10 13.85 10 12.75ZM7.8 18.45L6.3 17.05L7.8 15.55C7.3 14.75 7 13.75 7 12.75C7 11.75 7.3 10.75 7.8 10.05L6.3 8.55L7.8 7.05L9.2 8.55C10 8.05 11 7.75 12 7.75C13 7.75 14 8.05 14.8 8.55L16.3 7.05L17.7 8.45L16.2 9.95C16.7 10.75 17 11.75 17 12.75C17 13.75 16.7 14.75 16.2 15.55L17.7 17.05L16.3 18.45L14.8 16.95C14 17.45 13 17.75 12 17.75C11 17.75 10 17.45 9.3 16.95L7.8 18.45ZM12 9.75C10.3 9.75 9 11.05 9 12.75C9 14.45 10.3 15.75 12 15.75C13.7 15.75 15 14.45 15 12.75C15 11.05 13.7 9.75 12 9.75ZM20 2.75C21.1 2.75 22 3.65 22 4.75V20.75C22 21.85 21.1 22.75 20 22.75H19V23.75H15V22.75H9V23.75H5V22.75H4C2.9 22.75 2 21.85 2 20.75V4.75C2 3.65 2.9 2.75 4 2.75H20ZM20 20.75V4.75H4V20.75H20Z" fill="#258BAC"/>
</svg>
