<svg width="63" height="64" viewBox="0 0 63 64" fill="none" xmlns="http://www.w3.org/2000/svg">
<rect x="0.251953" y="0.941406" width="62.163" height="62.163" rx="20" fill="#E6F7FB"/>
<path d="M27.6769 32.0215C27.6769 30.0104 29.3224 28.3649 31.3335 28.3649C33.3447 28.3649 34.9902 30.0104 34.9902 32.0215C34.9902 34.0327 33.3447 35.6782 31.3335 35.6782C29.3224 35.6782 27.6769 34.0327 27.6769 32.0215ZM23.6546 42.443L20.9121 39.8833L23.6546 37.1408C22.7404 35.6782 22.1919 33.8498 22.1919 32.0215C22.1919 30.1932 22.7404 28.3649 23.6546 27.085L20.9121 24.3426L23.6546 21.6001L26.2142 24.3426C27.6769 23.4284 29.5052 22.8799 31.3335 22.8799C33.1619 22.8799 34.9902 23.4284 36.4528 24.3426L39.1953 21.6001L41.755 24.1597L39.0125 26.9022C39.9267 28.3649 40.4751 30.1932 40.4751 32.0215C40.4751 33.8498 39.9267 35.6782 39.0125 37.1408L41.755 39.8833L39.1953 42.443L36.4528 39.7005C34.9902 40.6146 33.1619 41.1631 31.3335 41.1631C29.5052 41.1631 27.6769 40.6146 26.3971 39.7005L23.6546 42.443ZM31.3335 26.5365C28.2254 26.5365 25.8486 28.9134 25.8486 32.0215C25.8486 35.1297 28.2254 37.5065 31.3335 37.5065C34.4417 37.5065 36.8185 35.1297 36.8185 32.0215C36.8185 28.9134 34.4417 26.5365 31.3335 26.5365ZM45.9601 13.7383C47.9713 13.7383 49.6168 15.3838 49.6168 17.3949V46.6481C49.6168 48.6593 47.9713 50.3048 45.9601 50.3048H44.1318V52.1331H36.8185V50.3048H25.8486V52.1331H18.5353V50.3048H16.7069C14.6958 50.3048 13.0503 48.6593 13.0503 46.6481V17.3949C13.0503 15.3838 14.6958 13.7383 16.7069 13.7383H45.9601ZM45.9601 46.6481V17.3949H16.7069V46.6481H45.9601Z" fill="#258BAC"/>
</svg>
