<svg width="136" height="44" viewBox="0 0 136 44" fill="none" xmlns="http://www.w3.org/2000/svg">
<g filter="url(#filter0_d_3030_21657)">
<path d="M56.7312 32.8465C56.7781 32.7996 56.807 32.7377 56.813 32.6716C56.819 32.6055 56.8017 32.5395 56.7641 32.4848L35.748 2.25515C35.6945 2.17654 35.6227 2.11219 35.5387 2.06772C35.4546 2.02325 35.361 2 35.2659 2C35.1709 2 35.0773 2.02325 34.9932 2.06772C34.9092 2.11219 34.8374 2.17654 34.7839 2.25515L13.708 32.0005C13.6724 32.0513 13.6543 32.1124 13.6564 32.1744C13.6586 32.2365 13.6809 32.2961 13.72 32.3443L17.0787 36.5565C17.1066 36.5896 17.1417 36.6159 17.1813 36.6334C17.2209 36.6509 17.264 36.6591 17.3073 36.6574C17.3506 36.6556 17.3929 36.644 17.431 36.6234C17.4691 36.6028 17.5019 36.5738 17.5271 36.5386L35.0275 12.0158C35.0535 11.9779 35.0883 11.9469 35.1289 11.9254C35.1695 11.904 35.2148 11.8928 35.2607 11.8928C35.3067 11.8928 35.3519 11.904 35.3925 11.9254C35.4332 11.9469 35.468 11.9779 35.4939 12.0158L52.7417 36.3801C52.7654 36.4142 52.7963 36.4426 52.8322 36.4634C52.8681 36.4842 52.9081 36.4969 52.9494 36.5006C52.9907 36.5043 53.0323 36.499 53.0714 36.4848C53.1104 36.4707 53.1458 36.4483 53.1752 36.419L56.7312 32.8465Z" fill="#8FD6D1"/>
<path d="M13.9793 9.88818H19.915C20.1182 9.88818 20.2259 10.1871 20.0884 10.3814L10.4772 23.5845C10.4377 23.643 10.4166 23.712 10.4166 23.7826C10.4166 23.8531 10.4377 23.9221 10.4772 23.9806L20.0988 37.508C20.2348 37.6979 20.1272 37.9998 19.9254 37.9998H13.9808C13.9456 37.9984 13.9112 37.9885 13.8805 37.9711C13.8498 37.9537 13.8237 37.9292 13.8045 37.8996L4.05874 23.9731C4.02042 23.915 4 23.8469 4 23.7773C4 23.7077 4.02042 23.6396 4.05874 23.5815L13.803 9.97936C13.8231 9.9513 13.8495 9.9284 13.8802 9.91255C13.9108 9.8967 13.9448 9.88835 13.9793 9.88818Z" fill="white"/>
<path d="M56.4701 9.88818H50.533C50.3297 9.88818 50.2236 10.1871 50.3611 10.3814L59.9708 23.5845C60.0102 23.643 60.0313 23.712 60.0313 23.7826C60.0313 23.8531 60.0102 23.9221 59.9708 23.9806L50.3491 37.508C50.2146 37.6979 50.3207 37.9998 50.5225 37.9998H56.4626C56.4976 37.9983 56.5318 37.9884 56.5622 37.971C56.5926 37.9535 56.6184 37.9291 56.6375 37.8996L66.3892 23.9731C66.4279 23.9152 66.4485 23.847 66.4485 23.7773C66.4485 23.7076 66.4279 23.6395 66.3892 23.5815L56.645 9.97936C56.625 9.9515 56.5988 9.92873 56.5684 9.91289C56.538 9.89705 56.5043 9.88859 56.4701 9.88818Z" fill="white"/>
<path d="M41.5085 9.88818H47.5637C47.6162 9.89128 47.6669 9.90814 47.7107 9.93706C47.7545 9.96598 47.79 10.0059 47.8135 10.0529C47.837 10.0999 47.8477 10.1522 47.8445 10.2047C47.8413 10.2571 47.8244 10.3077 47.7954 10.3516L29.5401 37.8742C29.5147 37.9125 29.4803 37.944 29.4399 37.9659C29.3995 37.9877 29.3544 37.9994 29.3085 37.9998H23.2413C23.1891 37.9965 23.1387 37.9797 23.095 37.9508C23.0514 37.922 23.0161 37.8822 22.9927 37.8355C22.9692 37.7887 22.9584 37.7366 22.9614 37.6844C22.9644 37.6322 22.981 37.5817 23.0096 37.5379L41.2769 10.0152C41.3019 9.9765 41.3362 9.94461 41.3766 9.92243C41.4171 9.90025 41.4624 9.88848 41.5085 9.88818Z" fill="white"/>
<path d="M83.7555 18.1602H79.8788V17.2707C79.8788 16.3683 79.6635 15.5948 79.2327 14.9503C78.8273 14.2799 78.1305 13.9448 77.1423 13.9448C76.6102 13.9448 76.1795 14.0479 75.8501 14.2541C75.5207 14.4604 75.2547 14.7182 75.052 15.0276C74.8493 15.3628 74.7099 15.7495 74.6339 16.1878C74.5579 16.6004 74.5199 17.0387 74.5199 17.5028C74.5199 18.0442 74.5325 18.4954 74.5579 18.8564C74.6085 19.2173 74.7099 19.5396 74.8619 19.8232C75.014 20.1068 75.2293 20.3518 75.508 20.558C75.8121 20.7643 76.2175 20.9705 76.7243 21.1768L79.6888 22.3757C80.5503 22.7109 81.2471 23.1105 81.7792 23.5746C82.3113 24.0129 82.7294 24.5285 83.0334 25.1215C83.3121 25.7403 83.5022 26.4494 83.6035 27.2486C83.7049 28.0221 83.7555 28.9116 83.7555 29.9171C83.7555 31.0774 83.6415 32.1602 83.4135 33.1657C83.1854 34.1455 82.818 34.9834 82.3113 35.6796C81.7792 36.4015 81.0824 36.9687 80.2209 37.3812C79.3594 37.7937 78.3079 38 77.0663 38C76.1288 38 75.2547 37.8324 74.4438 37.4972C73.633 37.1621 72.9362 36.698 72.3535 36.105C71.7707 35.512 71.3019 34.8287 70.9472 34.0553C70.6178 33.256 70.4531 32.3923 70.4531 31.4641V29.9945H74.3298V31.232C74.3298 31.954 74.5325 32.6114 74.9379 33.2044C75.3687 33.7716 76.0781 34.0553 77.0663 34.0553C77.7251 34.0553 78.2319 33.965 78.5866 33.7845C78.9667 33.5783 79.2581 33.2947 79.4608 32.9337C79.6635 32.5727 79.7775 32.1473 79.8028 31.6575C79.8535 31.1418 79.8788 30.5746 79.8788 29.9558C79.8788 29.2339 79.8535 28.6409 79.8028 28.1768C79.7521 27.7127 79.6508 27.3389 79.4988 27.0553C79.3214 26.7716 79.0807 26.5396 78.7766 26.3591C78.4979 26.1786 78.1179 25.9853 77.6364 25.779L74.8619 24.6188C73.1896 23.9227 72.0621 23.0074 71.4793 21.8729C70.9219 20.7127 70.6432 19.2689 70.6432 17.5414C70.6432 16.5101 70.7825 15.5304 71.0612 14.6022C71.34 13.674 71.758 12.8748 72.3155 12.2044C72.8476 11.5341 73.519 11.0055 74.3298 10.6188C75.166 10.2063 76.1542 10 77.2944 10C78.2572 10 79.1314 10.1805 79.9168 10.5414C80.7277 10.9024 81.4245 11.3794 82.0072 11.9724C83.1728 13.2099 83.7555 14.628 83.7555 16.2265V18.1602Z" fill="white"/>
<path d="M95.3833 28.1381L93.483 18.1602H93.407L91.5066 28.1381H95.3833ZM85.8056 37.768L91.8487 10.232H95.0793L101.122 37.768H97.2457L96.1055 31.8508H90.8225L89.6823 37.768H85.8056Z" fill="white"/>
<path d="M104.932 37.768V10.232H116.486V13.9448H108.808V22.2983H115.498V26.0111H108.808V37.768H104.932Z" fill="white"/>
<path d="M119.899 37.768V10.232H131.453V13.9448H123.776V22.0276H130.465V25.7403H123.776V33.8232H131.453V37.768H119.899Z" fill="white"/>
</g>
<defs>
<filter id="filter0_d_3030_21657" x="0" y="0" width="135.453" height="44" filterUnits="userSpaceOnUse" color-interpolation-filters="sRGB">
<feFlood flood-opacity="0" result="BackgroundImageFix"/>
<feColorMatrix in="SourceAlpha" type="matrix" values="0 0 0 0 0 0 0 0 0 0 0 0 0 0 0 0 0 0 127 0" result="hardAlpha"/>
<feOffset dy="2"/>
<feGaussianBlur stdDeviation="2"/>
<feComposite in2="hardAlpha" operator="out"/>
<feColorMatrix type="matrix" values="0 0 0 0 0.3625 0 0 0 0 0.3625 0 0 0 0 0.3625 0 0 0 0.25 0"/>
<feBlend mode="normal" in2="BackgroundImageFix" result="effect1_dropShadow_3030_21657"/>
<feBlend mode="normal" in="SourceGraphic" in2="effect1_dropShadow_3030_21657" result="shape"/>
</filter>
</defs>
</svg>
