<svg width="60" height="76" viewBox="0 0 60 76" fill="none" xmlns="http://www.w3.org/2000/svg">
<path d="M5.00065 67.1667C5.00065 71.75 8.75065 75.5 13.334 75.5H46.6673C51.2506 75.5 55.0006 71.75 55.0006 67.1667V25.5C55.0006 20.9167 51.2506 17.1667 46.6673 17.1667H13.334C8.75065 17.1667 5.00065 20.9167 5.00065 25.5V67.1667ZM55.0006 4.66667H44.584L41.6256 1.70833C40.8756 0.958333 39.7923 0.5 38.709 0.5H21.2923C20.209 0.5 19.1257 0.958333 18.3757 1.70833L15.4173 4.66667H5.00065C2.70898 4.66667 0.833984 6.54167 0.833984 8.83333C0.833984 11.125 2.70898 13 5.00065 13H55.0006C57.2923 13 59.1673 11.125 59.1673 8.83333C59.1673 6.54167 57.2923 4.66667 55.0006 4.66667Z" fill="#E15173"/>
</svg>
