<svg width="12" height="13" viewBox="0 0 12 13" fill="none" xmlns="http://www.w3.org/2000/svg">
<path d="M6 1.5C3.24 1.5 1 3.74 1 6.5C1 9.26 3.24 11.5 6 11.5C8.76 11.5 11 9.26 11 6.5C11 3.74 8.76 1.5 6 1.5ZM6 10.5C3.795 10.5 2 8.705 2 6.5C2 4.295 3.795 2.5 6 2.5C8.205 2.5 10 4.295 10 6.5C10 8.705 8.205 10.5 6 10.5ZM7.94 4.645L5 7.585L4.06 6.645C3.865 6.45 3.55 6.45 3.355 6.645C3.16 6.84 3.16 7.155 3.355 7.35L4.65 8.645C4.845 8.84 5.16 8.84 5.355 8.645L8.65 5.35C8.845 5.155 8.845 4.84 8.65 4.645C8.455 4.45 8.135 4.45 7.94 4.645Z" fill="#028D81"/>
</svg>
