<svg width="14" height="14" viewBox="0 0 14 14" fill="none" xmlns="http://www.w3.org/2000/svg">
<path d="M7.00065 3.66536C7.36732 3.66536 7.66732 3.96536 7.66732 4.33203V6.9987C7.66732 7.36537 7.36732 7.66536 7.00065 7.66536C6.63398 7.66536 6.33398 7.36537 6.33398 6.9987V4.33203C6.33398 3.96536 6.63398 3.66536 7.00065 3.66536ZM6.99398 0.332031C3.31398 0.332031 0.333984 3.3187 0.333984 6.9987C0.333984 10.6787 3.31398 13.6654 6.99398 13.6654C10.6807 13.6654 13.6673 10.6787 13.6673 6.9987C13.6673 3.3187 10.6807 0.332031 6.99398 0.332031ZM7.00065 12.332C4.05398 12.332 1.66732 9.94536 1.66732 6.9987C1.66732 4.05203 4.05398 1.66536 7.00065 1.66536C9.94732 1.66536 12.334 4.05203 12.334 6.9987C12.334 9.94536 9.94732 12.332 7.00065 12.332ZM7.66732 10.332H6.33398V8.9987H7.66732V10.332Z" fill="#B3B3B3"/>
</svg>
