<svg width="16" height="15" viewBox="0 0 16 15" fill="none" xmlns="http://www.w3.org/2000/svg">
<path d="M1.7264 14.5001H14.2764C15.5597 14.5001 16.3597 13.1084 15.7181 12.0001L9.44307 1.1584C8.8014 0.0500651 7.2014 0.0500651 6.55974 1.1584L0.284736 12.0001C-0.35693 13.1084 0.44307 14.5001 1.7264 14.5001ZM8.0014 8.66673C7.54307 8.66673 7.16807 8.29173 7.16807 7.8334V6.16673C7.16807 5.7084 7.54307 5.3334 8.0014 5.3334C8.45974 5.3334 8.83474 5.7084 8.83474 6.16673V7.8334C8.83474 8.29173 8.45974 8.66673 8.0014 8.66673ZM8.83474 12.0001H7.16807V10.3334H8.83474V12.0001Z" fill="black"/>
</svg>
