<svg width="72" height="64" viewBox="0 0 72 64" fill="none" xmlns="http://www.w3.org/2000/svg">
<g clip-path="url(#clip0_8383_163000)">
<path d="M35.8486 19.1055L34.1632 21.1636" stroke="#258BAC" stroke-width="1.88905" stroke-miterlimit="10"/>
<path d="M45.2168 7.67578L39.97 14.0797" stroke="#258BAC" stroke-width="1.88905" stroke-miterlimit="10"/>
<path d="M30.0395 26.1944L12.5806 47.5058C12.1956 47.9759 12.2646 48.6593 12.735 49.0324L21.8423 56.2601C22.3127 56.6332 23.0059 56.5547 23.3908 56.0846L56.0256 16.2471L58.2746 13.5024C58.6595 13.0323 58.591 12.3487 58.1207 11.9756L49.0128 4.74811C48.5424 4.375 47.8493 4.45346 47.4643 4.92358L45.2154 7.66828" stroke="#258BAC" stroke-width="1.88905" stroke-miterlimit="10"/>
<path d="M41.2312 18.6148L34.6582 26.6391L32.4704 29.3096C32.0855 29.7797 32.1545 30.4631 32.6243 30.8364L35.9287 33.4585C36.399 33.8316 37.0922 33.7531 37.4772 33.283L43.7915 25.5754L50.365 17.551L52.5058 14.9379C52.8908 14.4678 52.8218 13.7844 52.3514 13.4113L49.0471 10.7892C48.5773 10.4158 47.8835 10.4946 47.4986 10.9647L41.2317 18.6146" stroke="#258BAC" stroke-width="1.88905" stroke-miterlimit="10"/>
<path d="M35.8438 19.1004C35.087 18.5336 35.0778 17.8578 35.4871 17.3579L38.1265 14.1355C38.5361 13.6362 39.2087 13.5013 39.9657 14.0687L35.8438 19.1004Z" stroke="#258BAC" stroke-width="1.88905" stroke-miterlimit="10"/>
<path d="M30.0373 26.1866C29.2797 25.6194 29.2705 24.9437 29.6801 24.4444L32.32 21.2217C32.7293 20.7218 33.4017 20.5877 34.1592 21.1548L30.0373 26.1866Z" stroke="#258BAC" stroke-width="1.88905" stroke-miterlimit="10"/>
<path d="M42.7997 32.6737L60.0311 25.4214C61.0015 25.0855 62.0355 25.5992 62.341 26.5688L62.9864 28.6155" stroke="#258BAC" stroke-width="1.88905" stroke-miterlimit="10" stroke-linecap="round"/>
<path d="M14.2628 53.018C13.1294 49.3427 15.6443 45.1639 19.879 43.6847L62.3487 27.3479C62.9451 27.1395 63.5582 27.3902 63.7183 27.9081L67.6384 39.1584C67.7979 39.6765 67.4441 40.2647 66.8472 40.4733L23.9832 56.994C19.748 58.4735 15.3962 56.6933 14.2633 53.0177L14.2628 53.018ZM22.4903 53.1914C24.4772 53.4065 26.3395 52.0189 26.6499 50.0922C26.9604 48.1654 25.6005 46.429 23.6137 46.2139C21.6268 45.9989 19.7644 47.3865 19.454 49.3132C19.1436 51.24 20.5034 52.9763 22.4903 53.1914Z" fill="#258BAC" stroke="#258BAC" stroke-width="0.871871" stroke-miterlimit="10"/>
</g>
<defs>
<clipPath id="clip0_8383_163000">
<rect width="59.3084" height="41.8647" fill="white" transform="matrix(-0.906258 0.422725 0.422725 0.906258 54.1279 0.449219)"/>
</clipPath>
</defs>
</svg>
