<svg width="12" height="13" viewBox="0 0 12 13" fill="none" xmlns="http://www.w3.org/2000/svg">
<path d="M6.945 4.85L6 5.795L5.055 4.85C4.86 4.655 4.545 4.655 4.35 4.85C4.155 5.045 4.155 5.36 4.35 5.555L5.295 6.5L4.35 7.445C4.155 7.64 4.155 7.955 4.35 8.15C4.545 8.345 4.86 8.345 5.055 8.15L6 7.205L6.945 8.15C7.14 8.345 7.455 8.345 7.65 8.15C7.845 7.955 7.845 7.64 7.65 7.445L6.705 6.5L7.65 5.555C7.845 5.36 7.845 5.045 7.65 4.85C7.455 4.66 7.135 4.66 6.945 4.85ZM6 1.5C3.235 1.5 1 3.735 1 6.5C1 9.265 3.235 11.5 6 11.5C8.765 11.5 11 9.265 11 6.5C11 3.735 8.765 1.5 6 1.5ZM6 10.5C3.795 10.5 2 8.705 2 6.5C2 4.295 3.795 2.5 6 2.5C8.205 2.5 10 4.295 10 6.5C10 8.705 8.205 10.5 6 10.5Z" fill="#E15173"/>
</svg>
