<svg width="16" height="16" viewBox="0 0 16 16" fill="none" xmlns="http://www.w3.org/2000/svg">
<g clip-path="url(#clip0_7072_152354)">
<path d="M16 0H0V16H16V0Z" fill="white" fill-opacity="0.01"/>
<path fill-rule="evenodd" clip-rule="evenodd" d="M5.66666 3.66667C5.66666 3.29848 5.96513 3 6.33332 3H12.3333C12.7015 3 13 3.29848 13 3.66667V9.66667C13 10.0349 12.7015 10.3333 12.3333 10.3333C11.9651 10.3333 11.6667 10.0349 11.6667 9.66667V4.33333H6.33332C5.96513 4.33333 5.66666 4.03486 5.66666 3.66667Z" fill="#258BAC"/>
<path fill-rule="evenodd" clip-rule="evenodd" d="M12.8047 3.19526C13.0651 3.45561 13.0651 3.87772 12.8047 4.13807L4.31944 12.6234C4.05909 12.8837 3.63698 12.8837 3.37663 12.6234C3.11628 12.363 3.11628 11.9409 3.37663 11.6806L11.8619 3.19526C12.1222 2.93491 12.5444 2.93491 12.8047 3.19526Z" fill="#258BAC"/>
</g>
<defs>
<clipPath id="clip0_7072_152354">
<rect width="16" height="16" fill="white"/>
</clipPath>
</defs>
</svg>
