<svg width="16" height="16" viewBox="0 0 16 16" fill="none" xmlns="http://www.w3.org/2000/svg">
<path d="M8.16536 5.16683V5.50016H7.83203V5.16683H8.16536ZM8.16536 7.8335V10.8335H7.83203V7.8335H8.16536ZM1.83203 8.00016C1.83203 4.59631 4.59484 1.8335 7.9987 1.8335C11.4026 1.8335 14.1654 4.59631 14.1654 8.00016C14.1654 11.404 11.4026 14.1668 7.9987 14.1668C4.59484 14.1668 1.83203 11.404 1.83203 8.00016ZM2.16536 8.00016C2.16536 11.2163 4.78256 13.8335 7.9987 13.8335C11.2148 13.8335 13.832 11.2163 13.832 8.00016C13.832 4.78402 11.2148 2.16683 7.9987 2.16683C4.78256 2.16683 2.16536 4.78402 2.16536 8.00016Z" fill="#414B5A" stroke="black"/>
</svg>
