<svg width="14" height="14" viewBox="0 0 14 14" fill="none" xmlns="http://www.w3.org/2000/svg">
<path d="M6.5625 5.1875H7.4375V6.0625H6.5625V5.1875ZM6.5625 6.9375H7.4375V9.5625H6.5625V6.9375ZM7 3C4.585 3 2.625 4.96 2.625 7.375C2.625 9.79 4.585 11.75 7 11.75C9.415 11.75 11.375 9.79 11.375 7.375C11.375 4.96 9.415 3 7 3ZM7 10.875C5.07063 10.875 3.5 9.30437 3.5 7.375C3.5 5.44563 5.07063 3.875 7 3.875C8.92937 3.875 10.5 5.44563 10.5 7.375C10.5 9.30437 8.92937 10.875 7 10.875Z" fill="#B3B3B3"/>
</svg>
