<svg width="136" height="147" viewBox="0 0 136 147" fill="none" xmlns="http://www.w3.org/2000/svg">
<path d="M135.5 0.075001C134.525 0.075001 133.55 0.45 132.875 1.2L126.95 7.125C125.45 8.625 123.125 8.625 121.625 7.125L115.7 1.2C114.2 -0.3 111.875 -0.3 110.375 1.2L104.45 7.125C102.95 8.625 100.625 8.625 99.125 7.125L93.2 1.2C91.7 -0.3 89.375 -0.3 87.875 1.2L81.95 7.125C80.45 8.625 78.125 8.625 76.625 7.125L70.7 1.2C69.2 -0.3 66.875 -0.3 65.375 1.2L59.45 7.125C57.95 8.625 55.625 8.625 54.125 7.125L48.125 1.125C46.625 -0.375 44.3 -0.375 42.8 1.125L36.875 7.125C35.375 8.625 33.05 8.625 31.55 7.125L25.625 1.125C24.125 -0.375 21.8 -0.375 20.3 1.125L14.375 7.125C12.875 8.625 10.55 8.625 9.05 7.125L3.125 1.125C2.45 0.45 1.475 0.075001 0.5 0.075001V147C1.475 147 2.45 146.625 3.125 145.875L9.05 139.95C10.55 138.45 12.875 138.45 14.375 139.95L20.3 145.875C21.8 147.375 24.125 147.375 25.625 145.875L31.55 139.95C33.05 138.45 35.375 138.45 36.875 139.95L42.8 145.875C44.3 147.375 46.625 147.375 48.125 145.875L54.05 139.95C55.55 138.45 57.875 138.45 59.375 139.95L65.3 145.875C66.8 147.375 69.125 147.375 70.625 145.875L76.55 139.95C78.05 138.45 80.375 138.45 81.875 139.95L87.8 145.875C89.3 147.375 91.625 147.375 93.125 145.875L99.05 139.95C100.55 138.45 102.875 138.45 104.375 139.95L110.3 145.875C111.8 147.375 114.125 147.375 115.625 145.875L121.55 139.95C123.05 138.45 125.375 138.45 126.875 139.95L132.8 145.875C133.55 146.625 134.525 147 135.425 147V0.075001H135.5ZM105.5 111H30.5C26.375 111 23 107.625 23 103.5C23 99.375 26.375 96 30.5 96H105.5C109.625 96 113 99.375 113 103.5C113 107.625 109.625 111 105.5 111ZM105.5 81H30.5C26.375 81 23 77.625 23 73.5C23 69.375 26.375 66 30.5 66H105.5C109.625 66 113 69.375 113 73.5C113 77.625 109.625 81 105.5 81ZM105.5 51H30.5C26.375 51 23 47.625 23 43.5C23 39.375 26.375 36 30.5 36H105.5C109.625 36 113 39.375 113 43.5C113 47.625 109.625 51 105.5 51Z" fill="#C4DEE3"/>
</svg>
