<svg width="16" height="16" viewBox="0 0 16 16" fill="none" xmlns="http://www.w3.org/2000/svg">
<path d="M7.46 0.907969L2.79333 2.9813C2.31333 3.19464 2 3.67464 2 4.2013V7.33464C2 11.0346 4.56 14.4946 8 15.3346C11.44 14.4946 14 11.0346 14 7.33464V4.2013C14 3.67464 13.6867 3.19464 13.2067 2.9813L8.54 0.907969C8.2 0.754635 7.8 0.754635 7.46 0.907969ZM6.19333 10.8613L4.46667 9.13463C4.20667 8.87463 4.20667 8.45464 4.46667 8.19463C4.72667 7.93464 5.14667 7.93464 5.40667 8.19463L6.66667 9.44797L10.5867 5.52797C10.8467 5.26797 11.2667 5.26797 11.5267 5.52797C11.7867 5.78797 11.7867 6.20797 11.5267 6.46797L7.13333 10.8613C6.88 11.1213 6.45333 11.1213 6.19333 10.8613Z" fill="#42A1B6"/>
</svg>
