<svg width="12" height="13" viewBox="0 0 12 13" fill="none" xmlns="http://www.w3.org/2000/svg">
<path d="M6 4C5.725 4 5.5 4.225 5.5 4.5V6H4C3.725 6 3.5 6.225 3.5 6.5C3.5 6.775 3.725 7 4 7H5.5V8.5C5.5 8.775 5.725 9 6 9C6.275 9 6.5 8.775 6.5 8.5V7H8C8.275 7 8.5 6.775 8.5 6.5C8.5 6.225 8.275 6 8 6H6.5V4.5C6.5 4.225 6.275 4 6 4ZM6 1.5C3.24 1.5 1 3.74 1 6.5C1 9.26 3.24 11.5 6 11.5C8.76 11.5 11 9.26 11 6.5C11 3.74 8.76 1.5 6 1.5ZM6 10.5C3.795 10.5 2 8.705 2 6.5C2 4.295 3.795 2.5 6 2.5C8.205 2.5 10 4.295 10 6.5C10 8.705 8.205 10.5 6 10.5Z" fill="#028D81"/>
</svg>
