<svg width="100" height="100" viewBox="0 0 100 100" fill="none" xmlns="http://www.w3.org/2000/svg">
<path fill-rule="evenodd" clip-rule="evenodd" d="M50 100C77.6142 100 100 77.6142 100 50C100 22.3858 77.6142 0 50 0C22.3858 0 0 22.3858 0 50C0 77.6142 22.3858 100 50 100ZM64 29C66.1217 29 68.1566 29.8429 69.6569 31.3431C71.1572 32.8434 72 34.8783 72 37C72 39.1217 71.1572 41.1566 69.6569 42.6569C68.1566 44.1571 66.1217 45 64 45C61.8783 45 59.8435 44.1571 58.3432 42.6569C56.8429 41.1566 56 39.1217 56 37C56 34.8783 56.8429 32.8434 58.3432 31.3431C59.8435 29.8429 61.8783 29 64 29ZM64 36.0297L62.1417 34.1714C62.0131 34.0428 61.8386 33.9705 61.6566 33.9705C61.4746 33.9705 61.3001 34.0428 61.1714 34.1714C61.0428 34.3001 60.9705 34.4746 60.9705 34.6566C60.9705 34.8385 61.0428 35.013 61.1714 35.1417L63.0297 37L61.1714 38.8583C61.1077 38.922 61.0572 38.9976 61.0227 39.0809C60.9882 39.1641 60.9705 39.2533 60.9705 39.3434C60.9705 39.4335 60.9882 39.5227 61.0227 39.606C61.0572 39.6892 61.1077 39.7649 61.1714 39.8286C61.2352 39.8923 61.3108 39.9428 61.394 39.9773C61.4773 40.0118 61.5665 40.0295 61.6566 40.0295C61.7467 40.0295 61.8359 40.0118 61.9191 39.9773C62.0024 39.9428 62.078 39.8923 62.1417 39.8286L64 37.9703L65.8583 39.8286C65.922 39.8923 65.9977 39.9428 66.0809 39.9773C66.1641 40.0118 66.2533 40.0295 66.3434 40.0295C66.4335 40.0295 66.5228 40.0118 66.606 39.9773C66.6892 39.9428 66.7649 39.8923 66.8286 39.8286C66.8923 39.7649 66.9428 39.6892 66.9773 39.606C67.0118 39.5227 67.0295 39.4335 67.0295 39.3434C67.0295 39.2533 67.0118 39.1641 66.9773 39.0809C66.9428 38.9976 66.8923 38.922 66.8286 38.8583L64.9703 37L66.8286 35.1417C66.8923 35.078 66.9428 35.0024 66.9773 34.9191C67.0118 34.8359 67.0295 34.7467 67.0295 34.6566C67.0295 34.5665 67.0118 34.4773 66.9773 34.394C66.9428 34.3108 66.8923 34.2351 66.8286 34.1714C66.7649 34.1077 66.6892 34.0572 66.606 34.0227C66.5228 33.9882 66.4335 33.9705 66.3434 33.9705C66.2533 33.9705 66.1641 33.9882 66.0809 34.0227C65.9977 34.0572 65.922 34.1077 65.8583 34.1714L64 36.0297ZM54.7147 35.6159H33.0428C30.8132 35.6159 29 37.429 29 39.6586V43.7013H45.171C47.4005 43.7013 49.2137 45.5145 49.2137 47.7441V59.8723C49.2137 62.1018 47.4005 63.915 45.171 63.915H29V67.9577C29 70.1873 30.8132 72.0005 33.0428 72.0005H63.3633C66.7066 72.0005 69.4274 69.2797 69.4274 65.9364V44.7641C67.9163 45.7757 66.0991 46.3655 64.1442 46.3655C58.8922 46.3655 54.6346 42.1079 54.6346 36.8559C54.6346 36.4357 54.6618 36.0217 54.7147 35.6159ZM45.1709 47.7441H29V59.8723H45.1709V47.7441Z" fill="#E15173"/>
</svg>
