<svg width="63" height="64" viewBox="0 0 63 64" fill="none" xmlns="http://www.w3.org/2000/svg">
<rect x="0.585449" y="0.941406" width="62.1631" height="62.1631" rx="20" fill="#E6F7FB"/>
<g clip-path="url(#clip0_7361_145576)">
<path d="M35.4707 23.4336L33.7174 24.2766" stroke="#258BAC" stroke-width="1.38152" stroke-miterlimit="10"/>
<path d="M45.2144 18.75L39.7571 21.3723" stroke="#258BAC" stroke-width="1.38152" stroke-miterlimit="10"/>
<path d="M29.4297 26.3348L11.2699 35.0621C10.8694 35.2546 10.7039 35.7289 10.9003 36.1216L14.702 43.7275C14.8984 44.1202 15.382 44.2825 15.7825 44.0899L49.7278 27.7757L52.0669 26.6519C52.4674 26.4593 52.6333 25.985 52.437 25.5923L48.6349 17.9864C48.4385 17.5938 47.9548 17.4315 47.5543 17.624L45.2152 18.7479" stroke="#258BAC" stroke-width="1.38152" stroke-miterlimit="10"/>
<path d="M39.1899 24.7724L32.3528 28.0586L30.0772 29.1522C29.6767 29.3448 29.5112 29.819 29.7072 30.2117L31.0866 32.9711C31.283 33.3638 31.7667 33.5261 32.1671 33.3335L38.735 30.1772L45.5725 26.891L47.7992 25.821C48.1997 25.6284 48.3652 25.1542 48.1688 24.7615L46.7894 22.0021C46.5934 21.6094 46.1093 21.4471 45.7088 21.6396L39.1903 24.7724" stroke="#258BAC" stroke-width="1.38152" stroke-miterlimit="10"/>
<path d="M35.4703 23.4271C35.144 22.8175 35.3468 22.3668 35.7726 22.162L38.5182 20.8422C38.944 20.6379 39.4315 20.7564 39.7578 21.3665L35.4703 23.4271Z" stroke="#258BAC" stroke-width="1.38152" stroke-miterlimit="10"/>
<path d="M29.4293 26.3296C29.1026 25.7196 29.3054 25.2689 29.7312 25.0645L32.4772 23.7447C32.9029 23.54 33.3901 23.659 33.7168 24.269L29.4293 26.3296Z" stroke="#258BAC" stroke-width="1.38152" stroke-miterlimit="10"/>
<path d="M35.884 34.5742L49.5466 35.0947C50.2936 35.1721 50.8201 35.8322 50.7228 36.5692L50.5178 38.1253" stroke="#258BAC" stroke-width="1.38152" stroke-miterlimit="10" stroke-linecap="round"/>
<path d="M10.479 39.0085C10.8641 36.2222 13.8227 34.2301 17.0867 34.5589L50.2851 36.8609C50.7447 36.9071 51.0736 37.2628 51.0196 37.6555L50.1397 46.3239C50.0852 46.7166 49.6689 46.997 49.2088 46.9508L15.6923 44.6488C12.4279 44.32 10.094 41.7948 10.4794 39.0085L10.479 39.0085ZM15.8784 41.667C17.1287 42.4238 18.792 42.0799 19.5934 40.8989C20.3948 39.7178 20.0304 38.1466 18.78 37.3898C17.5296 36.633 15.8664 36.9769 15.0649 38.158C14.2635 39.339 14.628 40.9102 15.8784 41.667Z" fill="#258BAC" stroke="#258BAC" stroke-width="0.637625" stroke-miterlimit="10"/>
</g>
<defs>
<clipPath id="clip0_7361_145576">
<rect width="43.374" height="30.617" fill="white" transform="matrix(-1 8.74228e-08 8.74228e-08 1 53.354 16.7148)"/>
</clipPath>
</defs>
</svg>
