<svg width="30" height="30" viewBox="0 0 30 30" fill="none" xmlns="http://www.w3.org/2000/svg">
<g clip-path="url(#clip0_7108_159350)">
<path d="M16.4868 9.94922L15.456 10.4448" stroke="#258BAC" stroke-width="0.812209" stroke-miterlimit="10"/>
<path d="M22.2151 7.19531L19.0067 8.737" stroke="#258BAC" stroke-width="0.812209" stroke-miterlimit="10"/>
<path d="M12.9353 11.6571L2.25897 16.7879C2.02352 16.9011 1.92621 17.18 2.04167 17.4108L4.27671 21.8824C4.39217 22.1133 4.67653 22.2087 4.91198 22.0955L24.8688 12.5042L26.2439 11.8435C26.4794 11.7303 26.5769 11.4515 26.4615 11.2206L24.2262 6.74901C24.1107 6.51814 23.8264 6.42272 23.5909 6.53593L22.2157 7.19666" stroke="#258BAC" stroke-width="0.812209" stroke-miterlimit="10"/>
<path d="M18.6734 10.741L14.6538 12.673L13.3159 13.3159C13.0805 13.4291 12.9832 13.7079 13.0984 13.9388L13.9093 15.5611C14.0248 15.792 14.3092 15.8874 14.5446 15.7742L18.4059 13.9186L22.4257 11.9866L23.7348 11.3575C23.9703 11.2443 24.0676 10.9654 23.9521 10.7346L23.1412 9.11229C23.026 8.88142 22.7413 8.786 22.5059 8.89922L18.6736 10.741" stroke="#258BAC" stroke-width="0.812209" stroke-miterlimit="10"/>
<path d="M16.4864 9.9489C16.2946 9.59049 16.4138 9.3255 16.6641 9.20512L18.2783 8.42921C18.5286 8.30908 18.8152 8.37879 19.0071 8.73745L16.4864 9.9489Z" stroke="#258BAC" stroke-width="0.812209" stroke-miterlimit="10"/>
<path d="M12.9349 11.656C12.7428 11.2974 12.8621 11.0324 13.1124 10.9123L14.7268 10.1364C14.9771 10.016 15.2635 10.0859 15.4556 10.4446L12.9349 11.656Z" stroke="#258BAC" stroke-width="0.812209" stroke-miterlimit="10"/>
<path d="M16.7298 16.5039L24.7622 16.8099C25.2013 16.8554 25.5109 17.2435 25.4536 17.6768L25.3331 18.5916" stroke="#258BAC" stroke-width="0.812209" stroke-miterlimit="10" stroke-linecap="round"/>
<path d="M1.79424 19.1095C2.02062 17.4714 3.76004 16.3002 5.67896 16.4935L25.1966 17.8469C25.4668 17.8741 25.6602 18.0832 25.6284 18.314L25.1111 23.4102C25.0791 23.6411 24.8343 23.806 24.5638 23.7788L4.85916 22.4255C2.93999 22.2322 1.56786 20.7476 1.79449 19.1095L1.79424 19.1095ZM4.96857 20.6724C5.70366 21.1174 6.68152 20.9152 7.15268 20.2208C7.62384 19.5265 7.40956 18.6028 6.67446 18.1578C5.93937 17.7129 4.96151 17.9151 4.49035 18.6094C4.01919 19.3038 4.23347 20.2275 4.96857 20.6724Z" fill="#258BAC" stroke="#258BAC" stroke-width="0.374866" stroke-miterlimit="10"/>
</g>
<defs>
<clipPath id="clip0_7108_159350">
<rect width="25.5" height="18" fill="white" transform="matrix(-1 8.74228e-08 8.74228e-08 1 27.0007 6)"/>
</clipPath>
</defs>
</svg>
