<svg width="52" height="52" viewBox="0 0 52 52" fill="none" xmlns="http://www.w3.org/2000/svg">
<rect x="0.701172" y="0.277344" width="51.2636" height="51.2636" rx="19.1271" fill="#E6F7FB"/>
<path d="M22.1098 25.9067C24.8262 25.9067 27.0358 23.697 27.0358 20.9807C27.0358 18.2644 24.8262 16.0547 22.1098 16.0547C19.3935 16.0547 17.1838 18.2644 17.1838 20.9807C17.1838 23.697 19.3935 25.9067 22.1098 25.9067ZM22.1098 18.8696C23.278 18.8696 24.221 19.8125 24.221 20.9807C24.221 22.1489 23.278 23.0918 22.1098 23.0918C20.9417 23.0918 19.9987 22.1489 19.9987 20.9807C19.9987 19.8125 20.9417 18.8696 22.1098 18.8696ZM22.1098 28.3697C18.8164 28.3697 12.2578 30.0164 12.2578 33.2957V34.3513C12.2578 35.1254 12.8912 35.7587 13.6652 35.7587H30.5544C31.3285 35.7587 31.9619 35.1254 31.9619 34.3513V33.2957C31.9619 30.0164 25.4032 28.3697 22.1098 28.3697ZM15.5512 32.9439C16.7334 32.1276 19.5905 31.1846 22.1098 31.1846C24.6291 31.1846 27.4862 32.1276 28.6685 32.9439H15.5512ZM32.0182 28.4542C33.6508 29.6364 34.7767 31.2127 34.7767 33.2957V35.7587H38.999C39.7731 35.7587 40.4064 35.1254 40.4064 34.3513V33.2957C40.4064 30.4527 35.4804 28.8342 32.0182 28.4542ZM30.5544 25.9067C33.2708 25.9067 35.4804 23.697 35.4804 20.9807C35.4804 18.2644 33.2708 16.0547 30.5544 16.0547C29.7944 16.0547 29.0907 16.2377 28.4433 16.5473C29.33 17.7999 29.8507 19.334 29.8507 20.9807C29.8507 22.6274 29.33 24.1615 28.4433 25.4141C29.0907 25.7237 29.7944 25.9067 30.5544 25.9067Z" fill="#258BAC"/>
</svg>
