<svg width="120" height="120" viewBox="0 0 120 120" fill="none" xmlns="http://www.w3.org/2000/svg">
<path d="M88.563 73.7799H83.9026L82.2509 72.1898C88.2319 65.2644 91.5191 56.423 91.5126 47.279C91.5126 37.1268 87.4727 27.3904 80.2817 20.2117C73.0906 13.033 63.3375 9 53.1678 9C32.9926 9 16.4748 24.5472 15 44.3345H26.9164C28.3912 31.084 39.4817 20.7782 53.1678 20.7782C67.8568 20.7782 79.7142 32.6152 79.7142 47.279C79.7142 61.9428 67.8568 73.7799 53.1678 73.7799C52.165 73.7799 51.2211 73.6032 50.2182 73.4854V85.3814C51.2211 85.4991 52.165 85.558 53.1678 85.558C62.6655 85.558 71.3963 82.0835 78.1214 76.3122L79.7142 77.9611V82.6135L109.21 112L118 103.225L88.563 73.7799Z" fill="#C4DEE3"/>
<path d="M42.6415 50L24 68.6415L5.35849 50L0 55.3585L18.6415 74L0 92.6415L5.35849 98L24 79.3585L42.6415 98L48 92.6415L29.3585 74L48 55.3585L42.6415 50Z" fill="#C4DEE3"/>
</svg>
