<svg width="52" height="52" viewBox="0 0 52 52" fill="none" xmlns="http://www.w3.org/2000/svg">
<rect x="0.0341797" y="0.214844" width="51.2636" height="51.2636" rx="19.1271" fill="#E6F7FB"/>
<path fill-rule="evenodd" clip-rule="evenodd" d="M25.6659 37.8095C32.6616 37.8095 38.3328 31.9531 38.3328 27.9575C38.3328 23.9618 32.6616 18.1055 25.6659 18.1055C18.6702 18.1055 12.999 23.9659 12.999 27.9575C12.999 31.9491 18.6702 37.8095 25.6659 37.8095Z" stroke="#258BAC" stroke-width="3.07916" stroke-linejoin="round"/>
<path d="M25.6657 32.1829C27.9976 32.1829 29.8879 30.2925 29.8879 27.9606C29.8879 25.6287 27.9976 23.7383 25.6657 23.7383C23.3338 23.7383 21.4434 25.6287 21.4434 27.9606C21.4434 30.2925 23.3338 32.1829 25.6657 32.1829Z" stroke="#258BAC" stroke-width="3.07916" stroke-linejoin="round"/>
<path d="M18.1104 16.8867L19.9361 19.4343" stroke="#258BAC" stroke-width="3.07916" stroke-linecap="round"/>
<path d="M33.8464 17.1992L32.0205 19.7468" stroke="#258BAC" stroke-width="3.07916" stroke-linecap="round"/>
<path d="M25.6719 13.8828V18.1051" stroke="#258BAC" stroke-width="3.07916" stroke-linecap="round"/>
</svg>
