<svg width="51" height="51" viewBox="0 0 51 51" fill="none" xmlns="http://www.w3.org/2000/svg">
<g filter="url(#filter0_bd_6930_132573)">
<rect x="4" y="4" width="40" height="40" rx="20" fill="#258BAC"/>
<path d="M32.8545 22.5182C32.5499 22.5182 32.2579 22.6392 32.0426 22.8545C31.8273 23.0698 31.7063 23.3618 31.7063 23.6663V30.5552C31.7063 30.8597 31.5853 31.1518 31.37 31.3671C31.1547 31.5824 30.8627 31.7034 30.5582 31.7034H16.7804C16.4759 31.7034 16.1838 31.5824 15.9685 31.3671C15.7532 31.1518 15.6322 30.8597 15.6322 30.5552V16.7775C15.6322 16.4729 15.7532 16.1809 15.9685 15.9656C16.1838 15.7503 16.4759 15.6293 16.7804 15.6293H23.6693C23.9738 15.6293 24.2658 15.5083 24.4811 15.293C24.6965 15.0777 24.8174 14.7857 24.8174 14.4812C24.8174 14.1766 24.6965 13.8846 24.4811 13.6693C24.2658 13.454 23.9738 13.333 23.6693 13.333H16.7804C15.8669 13.333 14.9908 13.6959 14.3448 14.3419C13.6988 14.9878 13.3359 15.8639 13.3359 16.7775V30.5552C13.3359 31.4688 13.6988 32.3449 14.3448 32.9908C14.9908 33.6368 15.8669 33.9997 16.7804 33.9997H30.5582C31.4717 33.9997 32.3478 33.6368 32.9937 32.9908C33.6397 32.3449 34.0026 31.4688 34.0026 30.5552V23.6663C34.0026 23.3618 33.8816 23.0698 33.6663 22.8545C33.451 22.6392 33.159 22.5182 32.8545 22.5182Z" fill="white"/>
<path d="M28.2614 15.6293H30.0755L27.9334 17.9569C27.8258 18.0637 27.7404 18.1906 27.6821 18.3306C27.6238 18.4705 27.5938 18.6205 27.5938 18.7721C27.5938 18.9237 27.6238 19.0737 27.6821 19.2137C27.7404 19.3536 27.8258 19.4806 27.9334 19.5873C28.0402 19.6949 28.1671 19.7803 28.3071 19.8386C28.447 19.8969 28.597 19.9269 28.7486 19.9269C28.9002 19.9269 29.0503 19.8969 29.1902 19.8386C29.3301 19.7803 29.4571 19.6949 29.5638 19.5873L31.7059 17.2597V19.0737C31.7059 19.3783 31.8268 19.6703 32.0422 19.8856C32.2575 20.1009 32.5495 20.2219 32.854 20.2219C33.1585 20.2219 33.4506 20.1009 33.6659 19.8856C33.8812 19.6703 34.0022 19.3783 34.0022 19.0737V14.4812C34.0022 14.1766 33.8812 13.8846 33.6659 13.6693C33.4506 13.454 33.1585 13.333 32.854 13.333H28.2614C27.9569 13.333 27.6649 13.454 27.4496 13.6693C27.2342 13.8846 27.1133 14.1766 27.1133 14.4812C27.1133 14.7857 27.2342 15.0777 27.4496 15.293C27.6649 15.5083 27.9569 15.6293 28.2614 15.6293Z" fill="white"/>
<path d="M22.0153 27.1995C21.8045 27.3318 21.5911 27.3395 21.3752 27.2227C21.1594 27.1059 21.0512 26.9252 21.0508 26.6806V20.3615C21.0508 20.1172 21.1589 19.9365 21.3752 19.8193C21.5915 19.7021 21.8049 19.7098 22.0153 19.8425L27.1699 23.002C27.3597 23.1242 27.4545 23.2971 27.4545 23.521C27.4545 23.7449 27.3597 23.9179 27.1699 24.04L22.0153 27.1995Z" fill="white"/>
</g>
<defs>
<filter id="filter0_bd_6930_132573" x="-6.66667" y="-6.66667" width="61.3333" height="61.3333" filterUnits="userSpaceOnUse" color-interpolation-filters="sRGB">
<feFlood flood-opacity="0" result="BackgroundImageFix"/>
<feGaussianBlur in="BackgroundImageFix" stdDeviation="5.33333"/>
<feComposite in2="SourceAlpha" operator="in" result="effect1_backgroundBlur_6930_132573"/>
<feColorMatrix in="SourceAlpha" type="matrix" values="0 0 0 0 0 0 0 0 0 0 0 0 0 0 0 0 0 0 127 0" result="hardAlpha"/>
<feOffset dx="1.33333" dy="1.33333"/>
<feGaussianBlur stdDeviation="2.66667"/>
<feComposite in2="hardAlpha" operator="out"/>
<feColorMatrix type="matrix" values="0 0 0 0 0 0 0 0 0 0 0 0 0 0 0 0 0 0 0.25 0"/>
<feBlend mode="normal" in2="effect1_backgroundBlur_6930_132573" result="effect2_dropShadow_6930_132573"/>
<feBlend mode="normal" in="SourceGraphic" in2="effect2_dropShadow_6930_132573" result="shape"/>
</filter>
</defs>
</svg>
