<svg width="100" height="100" viewBox="0 0 100 100" fill="none" xmlns="http://www.w3.org/2000/svg">
<path d="M85 35V48C79.8239 45.3558 73.9431 44.4197 68.2019 45.3259C62.4606 46.2321 57.1541 48.9342 53.0441 53.0441C48.9342 57.1541 46.2321 62.4606 45.3259 68.2019C44.4197 73.9431 45.3558 79.8239 48 85H27.5C24.1848 85 21.0054 83.683 18.6612 81.3388C16.317 78.9946 15 75.8152 15 72.5V35H85ZM72.5 15C75.8152 15 78.9946 16.317 81.3388 18.6612C83.683 21.0054 85 24.1848 85 27.5V30H15V27.5C15 24.1848 16.317 21.0054 18.6612 18.6612C21.0054 16.317 24.1848 15 27.5 15H72.5ZM95 72.5C95 78.4674 92.6295 84.1903 88.4099 88.4099C84.1903 92.6295 78.4674 95 72.5 95C66.5326 95 60.8097 92.6295 56.5901 88.4099C52.3705 84.1903 50 78.4674 50 72.5C50 66.5326 52.3705 60.8097 56.5901 56.5901C60.8097 52.3705 66.5326 50 72.5 50C78.4674 50 84.1903 52.3705 88.4099 56.5901C92.6295 60.8097 95 66.5326 95 72.5ZM72.5 76.035L78.23 81.77C78.4624 82.0024 78.7384 82.1868 79.0421 82.3126C79.3458 82.4384 79.6713 82.5032 80 82.5032C80.3287 82.5032 80.6542 82.4384 80.9579 82.3126C81.2616 82.1868 81.5376 82.0024 81.77 81.77C82.0024 81.5376 82.1868 81.2616 82.3126 80.9579C82.4384 80.6542 82.5032 80.3287 82.5032 80C82.5032 79.6713 82.4384 79.3458 82.3126 79.0421C82.1868 78.7384 82.0024 78.4624 81.77 78.23L76.035 72.5L81.77 66.77C82.2394 66.3006 82.5032 65.6639 82.5032 65C82.5032 64.3361 82.2394 63.6994 81.77 63.23C81.3006 62.7606 80.6639 62.4968 80 62.4968C79.3361 62.4968 78.6994 62.7606 78.23 63.23L72.5 68.965L66.77 63.23C66.3006 62.7606 65.6639 62.4968 65 62.4968C64.3361 62.4968 63.6994 62.7606 63.23 63.23C62.7606 63.6994 62.4968 64.3361 62.4968 65C62.4968 65.6639 62.7606 66.3006 63.23 66.77L68.965 72.5L63.23 78.23C62.9976 78.4624 62.8132 78.7384 62.6874 79.0421C62.5616 79.3458 62.4968 79.6713 62.4968 80C62.4968 80.3287 62.5616 80.6542 62.6874 80.9579C62.8132 81.2616 62.9976 81.5376 63.23 81.77C63.4624 82.0024 63.7384 82.1868 64.0421 82.3126C64.3458 82.4384 64.6713 82.5032 65 82.5032C65.3287 82.5032 65.6542 82.4384 65.9579 82.3126C66.2616 82.1868 66.5376 82.0024 66.77 81.77L72.5 76.035Z" fill="#E15173"/>
</svg>
