<svg width="17" height="16" viewBox="0 0 17 16" fill="none" xmlns="http://www.w3.org/2000/svg">
<path d="M12.5 12.6667H4.5C4.13333 12.6667 3.83333 12.3667 3.83333 12V4C3.83333 3.63333 4.13333 3.33333 4.5 3.33333H7.83333C8.2 3.33333 8.5 3.03333 8.5 2.66667C8.5 2.3 8.2 2 7.83333 2H3.83333C3.47971 2 3.14057 2.14048 2.89052 2.39052C2.64048 2.64057 2.5 2.97971 2.5 3.33333V12.6667C2.5 13.4 3.1 14 3.83333 14H13.1667C13.9 14 14.5 13.4 14.5 12.6667V8.66667C14.5 8.3 14.2 8 13.8333 8C13.4667 8 13.1667 8.3 13.1667 8.66667V12C13.1667 12.3667 12.8667 12.6667 12.5 12.6667ZM9.83333 2.66667C9.83333 3.03333 10.1333 3.33333 10.5 3.33333H12.2267L6.14 9.42C6.01535 9.54465 5.94532 9.71372 5.94532 9.89C5.94532 10.0663 6.01535 10.2353 6.14 10.36C6.26465 10.4847 6.43372 10.5547 6.61 10.5547C6.78628 10.5547 6.95535 10.4847 7.08 10.36L13.1667 4.27333V6C13.1667 6.36667 13.4667 6.66667 13.8333 6.66667C14.2 6.66667 14.5 6.36667 14.5 6V2.66667C14.5 2.3 14.2 2 13.8333 2H10.5C10.1333 2 9.83333 2.3 9.83333 2.66667Z" fill="black"/>
</svg>
