<svg width="16" height="16" viewBox="0 0 16 16" fill="none" xmlns="http://www.w3.org/2000/svg">
<path d="M12 12.6667H4C3.63333 12.6667 3.33333 12.3667 3.33333 12V4C3.33333 3.63333 3.63333 3.33333 4 3.33333H7.33333C7.7 3.33333 8 3.03333 8 2.66667C8 2.3 7.7 2 7.33333 2H3.33333C2.97971 2 2.64057 2.14048 2.39052 2.39052C2.14048 2.64057 2 2.97971 2 3.33333V12.6667C2 13.4 2.6 14 3.33333 14H12.6667C13.4 14 14 13.4 14 12.6667V8.66667C14 8.3 13.7 8 13.3333 8C12.9667 8 12.6667 8.3 12.6667 8.66667V12C12.6667 12.3667 12.3667 12.6667 12 12.6667ZM9.33333 2.66667C9.33333 3.03333 9.63333 3.33333 10 3.33333H11.7267L5.64 9.42C5.51535 9.54465 5.44532 9.71372 5.44532 9.89C5.44532 10.0663 5.51535 10.2353 5.64 10.36C5.76465 10.4847 5.93372 10.5547 6.11 10.5547C6.28628 10.5547 6.45535 10.4847 6.58 10.36L12.6667 4.27333V6C12.6667 6.36667 12.9667 6.66667 13.3333 6.66667C13.7 6.66667 14 6.36667 14 6V2.66667C14 2.3 13.7 2 13.3333 2H10C9.63333 2 9.33333 2.3 9.33333 2.66667Z" fill="black"/>
</svg>  