<svg width="20" height="20" viewBox="0 0 20 20" fill="none" xmlns="http://www.w3.org/2000/svg">
<path d="M10 18.125C14.4873 18.125 18.125 14.4873 18.125 10C18.125 5.51269 14.4873 1.875 10 1.875C5.51269 1.875 1.875 5.51269 1.875 10C1.875 14.4873 5.51269 18.125 10 18.125Z" fill="#028D81"/>
<path d="M13.1188 7.10575C13.4265 6.79808 13.9253 6.79808 14.233 7.10575C14.5406 7.41341 14.5406 7.91222 14.233 8.21988L9.50609 12.9468C9.19843 13.2544 8.69961 13.2544 8.39195 12.9468L5.7659 10.3207C5.45824 10.0131 5.45824 9.51425 5.7659 9.20659C6.07356 8.89892 6.57238 8.89892 6.88004 9.20659L8.94902 11.2756L13.1188 7.10575Z" fill="white"/>
</svg>
