<svg width="48" height="48" viewBox="0 0 48 48" fill="none" xmlns="http://www.w3.org/2000/svg">
<path d="M37.884 43.2392C38.2126 45.8546 40.3186 47.9997 42.9545 47.9997C45.5904 47.9997 47.752 45.8576 47.4888 43.2349C47.024 38.6018 45.8827 34.053 44.0942 29.7353C41.6957 23.9447 38.1802 18.6833 33.7483 14.2515C29.3164 9.81956 24.055 6.304 18.2644 3.90548C13.9467 2.11703 9.39789 0.975763 4.76481 0.510899C2.14208 0.247745 0 2.40928 0 5.04519C0 7.68109 2.14513 9.78711 4.76048 10.1157C13.1317 11.1674 20.9695 14.972 26.9986 21.0011C33.0277 27.0302 36.8323 34.868 37.884 43.2392Z" fill="#42A1B6"/>
</svg>
