<svg width="100" height="100" viewBox="0 0 100 100" fill="none" xmlns="http://www.w3.org/2000/svg">
<path d="M50 0C63.2608 0 75.9785 5.26784 85.3553 14.6447C94.7322 24.0215 100 36.7392 100 50C100 63.2608 94.7322 75.9785 85.3553 85.3553C75.9785 94.7322 63.2608 100 50 100C36.7392 100 24.0215 94.7322 14.6447 85.3553C5.26784 75.9785 0 63.2608 0 50C0 36.7392 5.26784 24.0215 14.6447 14.6447C24.0215 5.26784 36.7392 0 50 0ZM50 43.9357L38.3857 32.3214C37.5815 31.5173 36.4908 31.0655 35.3536 31.0655C34.2163 31.0655 33.1256 31.5173 32.3214 32.3214C31.5173 33.1256 31.0655 34.2163 31.0655 35.3536C31.0655 36.4908 31.5173 37.5815 32.3214 38.3857L43.9357 50L32.3214 61.6143C31.9232 62.0125 31.6074 62.4852 31.3919 63.0054C31.1764 63.5257 31.0655 64.0833 31.0655 64.6464C31.0655 65.2095 31.1764 65.7672 31.3919 66.2874C31.6074 66.8077 31.9232 67.2804 32.3214 67.6786C32.7196 68.0768 33.1923 68.3926 33.7126 68.6081C34.2328 68.8236 34.7905 68.9345 35.3536 68.9345C35.9167 68.9345 36.4743 68.8236 36.9946 68.6081C37.5148 68.3926 37.9875 68.0768 38.3857 67.6786L50 56.0643L61.6143 67.6786C62.0125 68.0768 62.4852 68.3926 63.0054 68.6081C63.5257 68.8236 64.0833 68.9345 64.6464 68.9345C65.2095 68.9345 65.7672 68.8236 66.2874 68.6081C66.8077 68.3926 67.2804 68.0768 67.6786 67.6786C68.0768 67.2804 68.3926 66.8077 68.6081 66.2874C68.8236 65.7672 68.9345 65.2095 68.9345 64.6464C68.9345 64.0833 68.8236 63.5257 68.6081 63.0054C68.3926 62.4852 68.0768 62.0125 67.6786 61.6143L56.0643 50L67.6786 38.3857C68.0768 37.9875 68.3926 37.5148 68.6081 36.9946C68.8236 36.4743 68.9345 35.9167 68.9345 35.3536C68.9345 34.7905 68.8236 34.2328 68.6081 33.7126C68.3926 33.1923 68.0768 32.7196 67.6786 32.3214C67.2804 31.9232 66.8077 31.6074 66.2874 31.3919C65.7672 31.1764 65.2095 31.0655 64.6464 31.0655C64.0833 31.0655 63.5257 31.1764 63.0054 31.3919C62.4852 31.6074 62.0125 31.9232 61.6143 32.3214L50 43.9357Z" fill="#E15173"/>
</svg>
