<svg width="182" height="182" viewBox="0 0 182 182" fill="none" xmlns="http://www.w3.org/2000/svg">
<path opacity="0.5" fill-rule="evenodd" clip-rule="evenodd" d="M91 0C73.0019 0 55.408 5.33706 40.4431 15.3363C25.4783 25.3355 13.8146 39.5477 6.927 56.1758C0.0394285 72.8039 -1.76267 91.1009 1.74858 108.753C5.25983 126.405 13.9267 142.62 26.6533 155.347C39.3799 168.073 55.5945 176.74 73.2468 180.251C90.8991 183.763 109.196 181.961 125.824 175.073C142.452 168.185 156.665 156.522 166.664 141.557C176.663 126.592 182 108.998 182 91C182 79.0497 179.646 67.2164 175.073 56.1758C170.5 45.1352 163.797 35.1034 155.347 26.6533C146.897 18.2031 136.865 11.5001 125.824 6.92696C114.784 2.35378 102.95 0 91 0ZM91 156.354C78.0741 156.354 65.4385 152.522 54.691 145.34C43.9435 138.159 35.5668 127.952 30.6203 116.01C25.6738 104.068 24.3795 90.9275 26.9013 78.2499C29.423 65.5724 35.6474 53.9273 44.7874 44.7873C53.9274 35.6474 65.5724 29.4229 78.25 26.9012C90.9275 24.3795 104.068 25.6737 116.01 30.6203C127.952 35.5668 138.159 43.9434 145.34 54.6909C152.522 65.4384 156.355 78.0741 156.355 91C156.355 108.333 149.469 124.956 137.213 137.213C124.956 149.469 108.333 156.354 91 156.354ZM84.7797 4.35932C69.7895 5.43541 55.2961 10.3866 42.7412 18.7755C28.4565 28.3202 17.323 41.8865 10.7485 57.7587C4.174 73.631 2.45381 91.0963 5.80546 107.946C9.15712 124.796 17.4301 140.274 29.5782 152.422C41.7263 164.57 57.2039 172.843 74.0538 176.195C78.2662 177.032 82.5172 177.553 86.7721 177.761C82.5176 177.553 78.2671 177.032 74.0551 176.195C57.2052 172.843 41.7276 164.57 29.5795 152.422C17.4314 140.274 9.15841 124.796 5.80676 107.946C2.4551 91.0963 4.17529 73.6309 10.7498 57.7587C17.3243 41.8864 28.4578 28.3202 42.7425 18.7755C55.297 10.3868 69.79 5.43561 84.7797 4.35932ZM97.8683 160.151C113.777 158.572 128.735 151.541 140.139 140.137C153.171 127.105 160.492 109.43 160.492 90.9999C160.492 77.2559 156.417 63.8206 148.781 52.3929C141.145 40.9651 130.292 32.0583 117.594 26.7987C109.458 23.4284 100.798 21.6527 92.0791 21.5174C100.797 21.6529 109.457 23.4286 117.593 26.7988C130.291 32.0584 141.144 40.9652 148.78 52.3929C156.415 63.8206 160.491 77.256 160.491 91C160.491 109.43 153.17 127.105 140.137 140.137C128.734 151.541 113.776 158.571 97.8683 160.151Z" fill="#B8E9F4"/>
<path d="M159.949 82.3358C160.547 87.0957 164.38 90.9998 169.177 90.9998C173.975 90.9998 177.909 87.1013 177.43 82.3279C176.584 73.8957 174.507 65.6168 171.252 57.7586C166.886 47.2198 160.488 37.644 152.422 29.578C144.356 21.512 134.78 15.1136 124.241 10.7483C116.383 7.49335 108.104 5.41624 99.672 4.57019C94.8986 4.09125 91 8.02525 91 12.8226C91 17.6199 94.9041 21.4529 99.6641 22.0509C114.9 23.9651 129.164 30.8894 140.137 41.8624C151.11 52.8354 158.035 67.1002 159.949 82.3358Z" fill="#42A1B6"/>
</svg>
