<svg width="17" height="16" viewBox="0 0 17 16" fill="none" xmlns="http://www.w3.org/2000/svg">
<path fill-rule="evenodd" clip-rule="evenodd" d="M5.77116 2.33333C5.62158 2.33333 5.50033 2.45459 5.50033 2.60417V4.14387C5.50033 4.51206 5.20185 4.81053 4.83366 4.81053C4.46547 4.81053 4.16699 4.51206 4.16699 4.14387V2.60417C4.16699 1.71821 4.8852 1 5.77116 1H13.8962C14.7821 1 15.5003 1.71821 15.5003 2.60417V10.7292C15.5003 11.6151 14.7821 12.3333 13.8962 12.3333H12.3391C11.9709 12.3333 11.6724 12.0349 11.6724 11.6667C11.6724 11.2985 11.9709 11 12.3391 11H13.8962C14.0457 11 14.167 10.8787 14.167 10.7292V2.60417C14.167 2.45459 14.0457 2.33333 13.8962 2.33333H5.77116Z" fill="black"/>
<path fill-rule="evenodd" clip-rule="evenodd" d="M1.5 5.27214C1.5 4.38618 2.21821 3.66797 3.10417 3.66797H11.2292C12.1151 3.66797 12.8333 4.38618 12.8333 5.27214V13.3971C12.8333 14.2831 12.1151 15.0013 11.2292 15.0013H3.10417C2.21821 15.0013 1.5 14.2831 1.5 13.3971V5.27214ZM3.10417 5.0013C2.95459 5.0013 2.83333 5.12256 2.83333 5.27214V13.3971C2.83333 13.5467 2.95459 13.668 3.10417 13.668H11.2292C11.3787 13.668 11.5 13.5467 11.5 13.3971V5.27214C11.5 5.12256 11.3787 5.0013 11.2292 5.0013H3.10417Z" fill="black"/>
</svg>
