<svg width="16" height="16" viewBox="0 0 16 16" fill="none" xmlns="http://www.w3.org/2000/svg">
<path fill-rule="evenodd" clip-rule="evenodd" d="M5.27067 2.33333C5.12109 2.33333 4.99984 2.45459 4.99984 2.60417V4.14387C4.99984 4.51206 4.70136 4.81053 4.33317 4.81053C3.96498 4.81053 3.6665 4.51206 3.6665 4.14387V2.60417C3.6665 1.71821 4.38471 1 5.27067 1H13.3957C14.2816 1 14.9998 1.71821 14.9998 2.60417V10.7292C14.9998 11.6151 14.2816 12.3333 13.3957 12.3333H11.8386C11.4704 12.3333 11.1719 12.0349 11.1719 11.6667C11.1719 11.2985 11.4704 11 11.8386 11H13.3957C13.5452 11 13.6665 10.8787 13.6665 10.7292V2.60417C13.6665 2.45459 13.5452 2.33333 13.3957 2.33333H5.27067Z" fill="black"/>
<path fill-rule="evenodd" clip-rule="evenodd" d="M1 5.27214C1 4.38618 1.71821 3.66797 2.60417 3.66797H10.7292C11.6151 3.66797 12.3333 4.38618 12.3333 5.27214V13.3971C12.3333 14.2831 11.6151 15.0013 10.7292 15.0013H2.60417C1.71821 15.0013 1 14.2831 1 13.3971V5.27214ZM2.60417 5.0013C2.45459 5.0013 2.33333 5.12256 2.33333 5.27214V13.3971C2.33333 13.5467 2.45459 13.668 2.60417 13.668H10.7292C10.8787 13.668 11 13.5467 11 13.3971V5.27214C11 5.12256 10.8787 5.0013 10.7292 5.0013H2.60417Z" fill="black"/>
</svg>
