<svg width="60" height="60" viewBox="0 0 60 60" fill="none" xmlns="http://www.w3.org/2000/svg">
<g clip-path="url(#clip0_1212_90259)">
<rect width="60" height="60" rx="30" fill="white"/>
<g clip-path="url(#clip1_1212_90259)">
<path fill-rule="evenodd" clip-rule="evenodd" d="M17.625 16.25C17 13 19.5 10 22.75 10C25.625 10 28 12.375 28 15.25V21.75C28.75 21.75 29.5 21.625 30.25 21.625C31 21.625 31.625 21.625 32.375 21.75V15.25C32.375 12.375 34.75 10 37.625 10C40.875 10 43.375 13 42.875 16.25L41.5 23.875C46.375 26 50.125 29.75 50.125 34.375V37.25C50.125 41.125 47.625 44.375 44 46.5C40.375 48.75 35.625 50 30.25 50C24.875 50 20.125 48.75 16.5 46.5C13 44.375 10.5 41.125 10.5 37.25V34.375C10.5 29.75 14.125 26 19 23.875L17.625 16.25ZM39.625 24.875L41.25 15.875C41.625 13.625 40 11.5 37.625 11.5C35.625 11.5 34 13.125 34 15.125V23.375C33.5 23.25 32.875 23.25 32.375 23.25C31.625 23.25 31 23.125 30.25 23.125C29.5 23.125 28.75 23.125 28 23.25C27.5 23.25 26.875 23.375 26.375 23.375V15.25C26.375 13.25 24.75 11.625 22.75 11.625C20.5 11.625 18.75 13.75 19.25 16L20.875 25C15.625 27 12.125 30.5 12.125 34.5V37.375C12.125 43.5 20.25 48.5 30.25 48.5C40.25 48.5 48.375 43.5 48.375 37.375V34.5C48.5 30.375 45 26.875 39.625 24.875Z" fill="#633001"/>
<path d="M48.5078 37.25C48.5078 43.375 40.3828 48.375 30.3828 48.375C20.3828 48.375 12.2578 43.375 12.2578 37.25V34.375H48.6328V37.25H48.5078Z" fill="#FEDC90"/>
<path fill-rule="evenodd" clip-rule="evenodd" d="M19.2578 16C18.7578 13.75 20.5078 11.625 22.7578 11.625C24.7578 11.625 26.3828 13.25 26.3828 15.25V23.5C27.6328 23.375 28.8828 23.25 30.2578 23.25C31.5078 23.25 32.7578 23.375 34.0078 23.5V15.25C34.0078 13.25 35.6328 11.625 37.6328 11.625C39.8828 11.625 41.6328 13.75 41.2578 16L39.6328 25C44.8828 27 48.5078 30.5 48.5078 34.5C48.5078 40.625 40.3828 45.625 30.3828 45.625C20.3828 45.625 12.2578 40.625 12.2578 34.5C12.2578 30.5 15.7578 27 21.0078 25L19.2578 16Z" fill="#D1884F"/>
<path d="M25.2422 33.625C25.2422 35.25 24.3672 36.625 23.2422 36.625C22.1172 36.625 21.2422 35.25 21.2422 33.625C21.2422 32 22.1172 30.625 23.2422 30.625C24.3672 30.625 25.2422 32 25.2422 33.625Z" fill="#633001"/>
<path d="M39.125 33.625C39.125 35.25 38.25 36.625 37.125 36.625C36 36.625 35.125 35.25 35.125 33.625C35.125 32 36 30.625 37.125 30.625C38.25 30.625 39.125 32 39.125 33.625Z" fill="#633001"/>
</g>
</g>
<defs>
<clipPath id="clip0_1212_90259">
<rect width="60" height="60" rx="30" fill="white"/>
</clipPath>
<clipPath id="clip1_1212_90259">
<rect width="39.625" height="40" fill="white" transform="translate(10.5 10)"/>
</clipPath>
</defs>
</svg>
