<svg width="60" height="60" viewBox="0 0 60 60" fill="none" xmlns="http://www.w3.org/2000/svg">
<g clip-path="url(#clip0_1720_119726)">
<rect width="60" height="60" rx="30" fill="white"/>
<g clip-path="url(#clip1_1720_119726)">
<path d="M26.6167 19.1025C26.1833 19.0406 26.1627 19.02 26.3691 18.9993C26.7612 18.9374 27.6694 19.02 28.3092 19.1644C29.7953 19.5153 31.1369 20.4235 32.561 22.0127L32.9325 22.4462L33.4692 22.3636C35.7602 21.9921 38.1131 22.281 40.0739 23.1892C40.6105 23.4369 41.4568 23.9322 41.56 24.0561C41.6013 24.0974 41.6632 24.3657 41.7045 24.634C41.8489 25.6041 41.787 26.3265 41.4774 26.8837C41.3123 27.1933 41.3123 27.2759 41.4155 27.5442C41.4981 27.7506 41.7457 27.8951 41.9728 27.8951C42.4681 27.8951 42.9841 27.1108 43.2318 26.0169L43.335 25.5834L43.5208 25.7898C44.5734 26.9663 45.399 28.5968 45.5228 29.7527L45.5641 30.0623L45.3783 29.7939C45.0687 29.3192 44.7798 29.0096 44.3876 28.7413C43.6859 28.2666 42.9428 28.1221 40.9821 28.0189C39.207 27.9157 38.1957 27.7712 37.205 27.441C35.5125 26.8837 34.6456 26.1613 32.6436 23.4988C31.7561 22.3223 31.1988 21.6825 30.6415 21.1459C29.4238 19.9694 28.206 19.3502 26.6167 19.1025Z" fill="#FF007A"/>
<path d="M41.9985 21.7231C42.0398 20.9388 42.143 20.4228 42.37 19.948C42.4526 19.7623 42.5352 19.5972 42.5558 19.5972C42.5764 19.5972 42.5352 19.7416 42.4732 19.9068C42.3081 20.3608 42.2875 21.0007 42.3907 21.7231C42.5352 22.6519 42.5971 22.7757 43.5878 23.7871C44.0419 24.2618 44.5785 24.8603 44.7849 25.108L45.1358 25.5621L44.7849 25.2318C44.3515 24.819 43.3607 24.0347 43.1337 23.9315C42.9892 23.849 42.9686 23.849 42.8654 23.9522C42.7828 24.0347 42.7622 24.1586 42.7622 24.7571C42.7415 25.6859 42.6177 26.2638 42.3081 26.8624C42.143 27.172 42.1224 27.1101 42.2668 26.7592C42.37 26.4909 42.3907 26.367 42.3907 25.4795C42.3907 23.6839 42.1843 23.2504 40.9252 22.528C40.6156 22.3423 40.079 22.0739 39.7694 21.9295C39.4392 21.785 39.1915 21.6612 39.2121 21.6612C39.2534 21.6199 40.4712 21.9707 40.9459 22.1771C41.6683 22.4661 41.7921 22.4867 41.8747 22.4661C41.9366 22.4042 41.9779 22.2391 41.9985 21.7231Z" fill="#FF007A"/>
<path d="M27.4581 24.7987C26.5912 23.6016 26.034 21.744 26.1578 20.3612L26.1991 19.9277L26.4055 19.969C26.777 20.0309 27.4168 20.2786 27.7264 20.4644C28.552 20.9597 28.9235 21.6408 29.2744 23.3333C29.3776 23.8287 29.5221 24.4066 29.584 24.5923C29.6872 24.9019 30.0794 25.6243 30.4096 26.0784C30.6366 26.4086 30.4922 26.5738 29.9762 26.5325C29.1919 26.4499 28.1392 25.7275 27.4581 24.7987Z" fill="#FF007A"/>
<path d="M40.9534 33.7765C36.8667 32.1253 35.4219 30.7012 35.4219 28.2863C35.4219 27.9354 35.4425 27.6465 35.4425 27.6465C35.4632 27.6465 35.6076 27.7703 35.7934 27.9148C36.619 28.5753 37.5478 28.8642 40.1278 29.2358C41.6345 29.4628 42.5013 29.6279 43.2857 29.8962C45.7831 30.7218 47.3311 32.4143 47.7026 34.7053C47.8058 35.3658 47.7439 36.6248 47.5787 37.2853C47.4343 37.8013 47.0215 38.7507 46.9183 38.7714C46.8976 38.7714 46.8563 38.6682 46.8563 38.503C46.8151 37.6362 46.3816 36.8106 45.6592 36.1707C44.7924 35.4277 43.6778 34.8704 40.9534 33.7765Z" fill="#FF007A"/>
<path d="M38.0629 34.4577C38.0216 34.1481 37.9184 33.756 37.8565 33.5908L37.7533 33.2812L37.9391 33.5083C38.2074 33.8179 38.4138 34.1894 38.5995 34.7054C38.744 35.0976 38.744 35.2214 38.744 35.8612C38.744 36.4804 38.7234 36.6249 38.5995 36.9758C38.3931 37.5331 38.1455 37.9252 37.7327 38.3586C36.9896 39.1223 36.0195 39.5351 34.6367 39.7209C34.389 39.7415 33.6872 39.8034 33.0681 39.8447C31.5201 39.9273 30.4881 40.0924 29.5593 40.4226C29.4354 40.4639 29.3116 40.5052 29.291 40.4846C29.2497 40.4433 29.8895 40.0718 30.4055 39.8241C31.1279 39.4732 31.8709 39.2874 33.5015 38.9985C34.3064 38.8746 35.132 38.7095 35.3384 38.627C37.3818 37.9871 38.3931 36.3979 38.0629 34.4577Z" fill="#FF007A"/>
<path d="M39.9295 37.781C39.3928 36.6045 39.269 35.49 39.558 34.4374C39.5992 34.3342 39.6405 34.231 39.6818 34.231C39.7231 34.231 39.8469 34.2929 39.9707 34.3754C40.2184 34.5406 40.7344 34.8295 42.0554 35.5519C43.7272 36.4601 44.6766 37.1618 45.3371 37.9668C45.915 38.6685 46.2659 39.4735 46.431 40.4642C46.5342 41.0215 46.4723 42.3631 46.3278 42.9203C45.8737 44.6747 44.8418 46.0782 43.335 46.8832C43.108 47.007 42.9222 47.0896 42.9016 47.0896C42.881 47.0896 42.9635 46.8832 43.0874 46.6355C43.5827 45.5829 43.6446 44.5715 43.2731 43.4363C43.0461 42.7346 42.5714 41.8883 41.6219 40.4642C40.4867 38.813 40.2184 38.3796 39.9295 37.781Z" fill="#FF007A"/>
<path d="M24.5662 44.0964C26.0936 42.8167 27.9718 41.9086 29.7056 41.6196C30.4486 41.4958 31.687 41.5371 32.3681 41.7228C33.462 42.0118 34.4527 42.631 34.9687 43.3946C35.4641 44.1377 35.6911 44.7775 35.9182 46.2017C36.0007 46.7589 36.1039 47.3369 36.1246 47.4607C36.2897 48.2037 36.6199 48.7816 37.0327 49.0912C37.6725 49.566 38.7871 49.5866 39.881 49.1738C40.0668 49.1119 40.2319 49.05 40.2319 49.0706C40.2732 49.1119 39.7159 49.4834 39.3444 49.6692C38.8284 49.9375 38.4156 50.02 37.8583 50.02C36.8676 50.02 36.0214 49.504 35.3402 48.472C35.1958 48.2656 34.9068 47.6671 34.6591 47.1098C33.9367 45.438 33.5652 44.9426 32.719 44.3854C31.9759 43.9106 31.0265 43.8074 30.3041 44.1583C29.3547 44.6124 29.107 45.8301 29.7675 46.5732C30.0358 46.8828 30.5312 47.1305 30.944 47.1924C31.7076 47.2956 32.3681 46.697 32.3681 45.9333C32.3681 45.438 32.1823 45.149 31.687 44.922C31.0265 44.633 30.3041 44.9633 30.3248 45.6031C30.3248 45.8714 30.4486 46.0365 30.7169 46.1604C30.882 46.2429 30.882 46.2429 30.7582 46.2223C30.1596 46.0985 30.0152 45.3554 30.4899 44.8807C31.0678 44.3028 32.2855 44.5505 32.6983 45.3554C32.8635 45.6857 32.8841 46.3461 32.7396 46.7589C32.3887 47.6671 31.398 48.1418 30.3867 47.8735C29.7056 47.6877 29.4166 47.502 28.591 46.6557C27.1462 45.1697 26.589 44.8807 24.525 44.5711L24.1328 44.5092L24.5662 44.0964Z" fill="#FF007A"/>
<path fill-rule="evenodd" clip-rule="evenodd" d="M13.7027 10.8875C18.5118 16.7286 25.9215 25.8101 26.293 26.3055C26.6026 26.7183 26.4787 27.1104 25.9627 27.3994C25.6738 27.5645 25.0752 27.7296 24.7863 27.7296C24.456 27.7296 24.0639 27.5645 23.7956 27.2962C23.6098 27.1104 22.8048 25.934 20.9885 23.1063C19.6057 20.9391 18.4292 19.1434 18.4086 19.1228C18.326 19.0815 18.326 19.0815 20.8441 23.581C22.4333 26.4087 22.9493 27.42 22.9493 27.5439C22.9493 27.8122 22.8668 27.9567 22.5365 28.3282C21.9792 28.9474 21.7316 29.6491 21.5458 31.1146C21.3394 32.7451 20.7821 33.9009 19.1929 35.8617C18.2641 37.0175 18.1196 37.2239 17.8926 37.6987C17.6036 38.2766 17.521 38.6068 17.4798 39.3498C17.4385 40.1342 17.521 40.6295 17.7481 41.3725C17.9545 42.033 18.1815 42.4665 18.7388 43.3127C19.2135 44.0557 19.5025 44.613 19.5025 44.8194C19.5025 44.9845 19.5437 44.9845 20.2868 44.8194C22.0618 44.4066 23.5272 43.7049 24.3322 42.838C24.8275 42.3013 24.9514 42.0124 24.9514 41.2694C24.9514 40.7946 24.9307 40.6914 24.8069 40.4025C24.6005 39.9484 24.2083 39.5769 23.3621 38.999C22.2476 38.2353 21.7728 37.6161 21.649 36.7905C21.5458 36.0888 21.6696 35.614 22.2888 34.3137C22.9287 32.9721 23.0938 32.4149 23.197 31.0526C23.2589 30.1858 23.3621 29.8349 23.6098 29.5666C23.8781 29.2776 24.1051 29.1744 24.745 29.0918C25.7976 28.9474 26.4787 28.6791 27.0154 28.1631C27.4901 27.7296 27.6965 27.2962 27.7171 26.6563L27.7378 26.1816L27.4694 25.8927C26.4994 24.7781 13.0628 10 13.0009 10C12.9803 10 13.3105 10.3922 13.7027 10.8875ZM20.0391 40.2374C20.2661 39.8452 20.1423 39.3498 19.7708 39.1022C19.4199 38.8751 18.8833 38.9783 18.8833 39.2879C18.8833 39.3705 18.9246 39.453 19.0484 39.4943C19.2341 39.5975 19.2548 39.7007 19.1103 39.9278C18.9658 40.1548 18.9658 40.3612 19.1516 40.5057C19.4405 40.7327 19.8327 40.6089 20.0391 40.2374Z" fill="#FF007A"/>
<path fill-rule="evenodd" clip-rule="evenodd" d="M28.391 29.3805C27.8956 29.525 27.4209 30.0616 27.2765 30.5983C27.1939 30.9285 27.2352 31.5271 27.3797 31.7128C27.6067 32.0018 27.8131 32.0843 28.391 32.0843C29.5262 32.0843 30.4963 31.589 30.5995 30.9904C30.7027 30.4951 30.2692 29.814 29.6707 29.5044C29.3611 29.3393 28.7212 29.2773 28.391 29.3805ZM29.712 30.4125C29.8771 30.1648 29.8152 29.8965 29.5056 29.7108C28.9483 29.3599 28.102 29.6488 28.102 30.1855C28.102 30.4538 28.5355 30.7428 28.9483 30.7428C29.2166 30.7428 29.5881 30.5776 29.712 30.4125Z" fill="#FF007A"/>
</g>
</g>
<defs>
<clipPath id="clip0_1720_119726">
<rect width="60" height="60" rx="30" fill="white"/>
</clipPath>
<clipPath id="clip1_1720_119726">
<rect width="34.7368" height="40" fill="white" transform="translate(13 10)"/>
</clipPath>
</defs>
</svg>
