<svg width="25" height="24" viewBox="0 0 25 24" fill="none" xmlns="http://www.w3.org/2000/svg">
<path d="M12.875 2C7.355 2 2.875 6.48 2.875 12C2.875 17.52 7.355 22 12.875 22C18.395 22 22.875 17.52 22.875 12C22.875 6.48 18.395 2 12.875 2ZM14.285 18.09V18.67C14.285 19.4 13.685 20 12.955 20H12.945C12.215 20 11.615 19.4 11.615 18.67V18.07C10.285 17.79 9.105 17.06 8.605 15.83C8.375 15.28 8.805 14.67 9.405 14.67H9.645C10.015 14.67 10.315 14.92 10.455 15.27C10.745 16.02 11.505 16.54 12.965 16.54C14.925 16.54 15.365 15.56 15.365 14.95C15.365 14.12 14.925 13.34 12.695 12.81C10.215 12.21 8.515 11.19 8.515 9.14C8.515 7.42 9.905 6.3 11.625 5.93V5.33C11.625 4.6 12.225 4 12.955 4H12.965C13.695 4 14.295 4.6 14.295 5.33V5.95C15.675 6.29 16.545 7.15 16.925 8.21C17.125 8.76 16.705 9.34 16.115 9.34H15.855C15.485 9.34 15.185 9.08 15.085 8.72C14.855 7.96 14.225 7.47 12.965 7.47C11.465 7.47 10.565 8.15 10.565 9.11C10.565 9.95 11.215 10.5 13.235 11.02C15.255 11.54 17.415 12.41 17.415 14.93C17.395 16.76 16.025 17.76 14.285 18.09Z" fill="#B3B3B3"/>
</svg>
