<svg width="23" height="23" viewBox="0 0 23 23" fill="none" xmlns="http://www.w3.org/2000/svg">
<path d="M3.1216 16.7456C3.1216 16.2964 3.37363 15.902 3.7429 15.6969V15.858V17.6331V17.7942C3.37363 17.5891 3.1216 17.1947 3.1216 16.7456ZM6.6719 17.9438V17.6331V15.858V15.5473H18.521C19.1787 15.5473 19.7192 16.0878 19.7192 16.7456C19.7192 17.4033 19.1787 17.9438 18.521 17.9438H6.6719ZM18.521 7.29289H6.6719V6.98224V5.20709V4.89644H18.521C19.1787 4.89644 19.7192 5.43696 19.7192 6.09467C19.7192 6.75237 19.1787 7.29289 18.521 7.29289ZM3.7429 6.98224V7.14328C3.37363 6.93824 3.1216 6.54378 3.1216 6.09467C3.1216 5.64556 3.37363 5.25109 3.7429 5.04605V5.20709V6.98224ZM3.1216 11.4201C3.1216 10.971 3.37363 10.5765 3.7429 10.3715V10.5325V12.3077V12.4687C3.37363 12.2637 3.1216 11.8692 3.1216 11.4201ZM6.6719 10.5325V10.2219H18.521C19.1787 10.2219 19.7192 10.7624 19.7192 11.4201C19.7192 12.0778 19.1787 12.6183 18.521 12.6183H6.6719V12.3077V10.5325Z" fill="#2C6076" stroke="#2C6076" stroke-width="1.15385"/>
</svg>
