<svg width="25" height="24" viewBox="0 0 25 24" fill="none" xmlns="http://www.w3.org/2000/svg">
<path d="M19.5539 12.98C19.5939 12.66 19.6239 12.34 19.6239 12C19.6239 11.66 19.5939 11.34 19.5539 11.02L21.6639 9.37C21.8539 9.22 21.9039 8.95 21.7839 8.73L19.7839 5.27C19.6639 5.05 19.3939 4.97 19.1739 5.05L16.6839 6.05C16.1639 5.65 15.6039 5.32 14.9939 5.07L14.6139 2.42C14.5839 2.18 14.3739 2 14.1239 2H10.1239C9.87386 2 9.66386 2.18 9.63386 2.42L9.25386 5.07C8.64386 5.32 8.08386 5.66 7.56386 6.05L5.07386 5.05C4.84386 4.96 4.58386 5.05 4.46386 5.27L2.46386 8.73C2.33386 8.95 2.39386 9.22 2.58386 9.37L4.69386 11.02C4.65386 11.34 4.62386 11.67 4.62386 12C4.62386 12.33 4.65386 12.66 4.69386 12.98L2.58386 14.63C2.39386 14.78 2.34386 15.05 2.46386 15.27L4.46386 18.73C4.58386 18.95 4.85386 19.03 5.07386 18.95L7.56386 17.95C8.08386 18.35 8.64386 18.68 9.25386 18.93L9.63386 21.58C9.66386 21.82 9.87386 22 10.1239 22H14.1239C14.3739 22 14.5839 21.82 14.6139 21.58L14.9939 18.93C15.6039 18.68 16.1639 18.34 16.6839 17.95L19.1739 18.95C19.4039 19.04 19.6639 18.95 19.7839 18.73L21.7839 15.27C21.9039 15.05 21.8539 14.78 21.6639 14.63L19.5539 12.98ZM12.1239 15.5C10.1939 15.5 8.62386 13.93 8.62386 12C8.62386 10.07 10.1939 8.5 12.1239 8.5C14.0539 8.5 15.6239 10.07 15.6239 12C15.6239 13.93 14.0539 15.5 12.1239 15.5Z" fill="#B3B3B3"/>
</svg>
