<svg width="25" height="24" viewBox="0 0 25 24" fill="none" xmlns="http://www.w3.org/2000/svg">
<path d="M21.625 2.20922C21.495 2.20922 21.365 2.25922 21.275 2.35922L20.485 3.14922C20.285 3.34922 19.975 3.34922 19.775 3.14922L18.985 2.35922C18.785 2.15922 18.475 2.15922 18.275 2.35922L17.485 3.14922C17.285 3.34922 16.975 3.34922 16.775 3.14922L15.985 2.35922C15.785 2.15922 15.475 2.15922 15.275 2.35922L14.485 3.14922C14.285 3.34922 13.975 3.34922 13.775 3.14922L12.985 2.35922C12.785 2.15922 12.475 2.15922 12.275 2.35922L11.485 3.14922C11.285 3.34922 10.975 3.34922 10.775 3.14922L9.975 2.34922C9.775 2.14922 9.465 2.14922 9.265 2.34922L8.475 3.14922C8.275 3.34922 7.965 3.34922 7.765 3.14922L6.975 2.34922C6.775 2.14922 6.465 2.14922 6.265 2.34922L5.475 3.14922C5.275 3.34922 4.965 3.34922 4.765 3.14922L3.975 2.34922C3.885 2.25922 3.755 2.20922 3.625 2.20922V21.7992C3.755 21.7992 3.885 21.7492 3.975 21.6492L4.765 20.8592C4.965 20.6592 5.275 20.6592 5.475 20.8592L6.265 21.6492C6.465 21.8492 6.775 21.8492 6.975 21.6492L7.765 20.8592C7.965 20.6592 8.275 20.6592 8.475 20.8592L9.265 21.6492C9.465 21.8492 9.775 21.8492 9.975 21.6492L10.765 20.8592C10.965 20.6592 11.275 20.6592 11.475 20.8592L12.265 21.6492C12.465 21.8492 12.775 21.8492 12.975 21.6492L13.765 20.8592C13.965 20.6592 14.275 20.6592 14.475 20.8592L15.265 21.6492C15.465 21.8492 15.775 21.8492 15.975 21.6492L16.765 20.8592C16.965 20.6592 17.275 20.6592 17.475 20.8592L18.265 21.6492C18.465 21.8492 18.775 21.8492 18.975 21.6492L19.765 20.8592C19.965 20.6592 20.275 20.6592 20.475 20.8592L21.265 21.6492C21.365 21.7492 21.495 21.7992 21.615 21.7992V2.20922H21.625ZM17.625 16.9992H7.625C7.075 16.9992 6.625 16.5492 6.625 15.9992C6.625 15.4492 7.075 14.9992 7.625 14.9992H17.625C18.175 14.9992 18.625 15.4492 18.625 15.9992C18.625 16.5492 18.175 16.9992 17.625 16.9992ZM17.625 12.9992H7.625C7.075 12.9992 6.625 12.5492 6.625 11.9992C6.625 11.4492 7.075 10.9992 7.625 10.9992H17.625C18.175 10.9992 18.625 11.4492 18.625 11.9992C18.625 12.5492 18.175 12.9992 17.625 12.9992ZM17.625 8.99922H7.625C7.075 8.99922 6.625 8.54922 6.625 7.99922C6.625 7.44922 7.075 6.99922 7.625 6.99922H17.625C18.175 6.99922 18.625 7.44922 18.625 7.99922C18.625 8.54922 18.175 8.99922 17.625 8.99922Z" fill="#B3B3B3"/>
</svg>
