<svg width="20" height="20" viewBox="0 0 20 20" fill="none" xmlns="http://www.w3.org/2000/svg">
<g id="verified-user">
<path id="Vector" d="M9.325 1.13203L3.49167 3.7237C2.89167 3.99036 2.5 4.59036 2.5 5.2487V9.16536C2.5 13.7904 5.7 18.1154 10 19.1654C14.3 18.1154 17.5 13.7904 17.5 9.16536V5.2487C17.5 4.59036 17.1083 3.99036 16.5083 3.7237L10.675 1.13203C10.25 0.940365 9.75 0.940365 9.325 1.13203ZM7.74167 13.5737L5.58333 11.4154C5.25833 11.0904 5.25833 10.5654 5.58333 10.2404C5.90833 9.91536 6.43333 9.91536 6.75833 10.2404L8.33333 11.807L13.2333 6.90703C13.5583 6.58203 14.0833 6.58203 14.4083 6.90703C14.7333 7.23203 14.7333 7.75703 14.4083 8.08203L8.91667 13.5737C8.6 13.8987 8.06667 13.8987 7.74167 13.5737Z" fill="#42A1B6"/>
</g>
</svg>
