<svg width="54" height="54" viewBox="0 0 54 54" fill="none" xmlns="http://www.w3.org/2000/svg">
<g filter="url(#filter0_d_1782_22706)">
<circle cx="27" cy="26" r="23" stroke="#405467" stroke-width="4" shape-rendering="crispEdges"/>
</g>
<g filter="url(#filter1_d_1782_22706)">
<path d="M38.4069 26.7445C38.4317 26.7196 38.4471 26.6868 38.4503 26.6517C38.4535 26.6166 38.4443 26.5816 38.4243 26.5526L27.2729 10.5123C27.2446 10.4706 27.2064 10.4365 27.1619 10.4129C27.1173 10.3893 27.0676 10.377 27.0172 10.377C26.9667 10.377 26.917 10.3893 26.8725 10.4129C26.8279 10.4365 26.7897 10.4706 26.7614 10.5123L15.5783 26.2956C15.5593 26.3226 15.5497 26.355 15.5509 26.3879C15.552 26.4208 15.5639 26.4524 15.5846 26.478L17.3668 28.7131C17.3816 28.7306 17.4002 28.7446 17.4212 28.7539C17.4422 28.7631 17.4651 28.7675 17.4881 28.7666C17.511 28.7657 17.5335 28.7595 17.5537 28.7486C17.5739 28.7376 17.5914 28.7222 17.6047 28.7035L26.8906 15.6915C26.9044 15.6713 26.9229 15.6549 26.9444 15.6435C26.966 15.6321 26.99 15.6262 27.0144 15.6262C27.0388 15.6262 27.0628 15.6321 27.0843 15.6435C27.1059 15.6549 27.1243 15.6713 27.1381 15.6915L36.29 28.6195C36.3026 28.6375 36.319 28.6526 36.338 28.6637C36.3571 28.6747 36.3783 28.6815 36.4002 28.6834C36.4221 28.6854 36.4442 28.6825 36.4649 28.675C36.4856 28.6676 36.5044 28.6556 36.52 28.6401L38.4069 26.7445Z" fill="#42B6AE"/>
<path d="M15.7248 14.5625H18.8744C18.9822 14.5625 19.0393 14.7211 18.9664 14.8242L13.8665 21.8299C13.8456 21.861 13.8344 21.8976 13.8344 21.935C13.8344 21.9725 13.8456 22.0091 13.8665 22.0401L18.9719 29.2179C19.0441 29.3187 18.987 29.4789 18.8799 29.4789H15.7256C15.7069 29.4781 15.6887 29.4729 15.6724 29.4637C15.6561 29.4544 15.6423 29.4414 15.6321 29.4257L10.4609 22.0361C10.4405 22.0053 10.4297 21.9692 10.4297 21.9322C10.4297 21.8953 10.4405 21.8592 10.4609 21.8283L15.6313 14.6109C15.6419 14.596 15.656 14.5838 15.6722 14.5754C15.6885 14.567 15.7065 14.5626 15.7248 14.5625Z" fill="black"/>
<path d="M38.2719 14.5625H35.1216C35.0137 14.5625 34.9574 14.7211 35.0304 14.8242L40.1294 21.8299C40.1504 21.861 40.1615 21.8976 40.1615 21.935C40.1615 21.9725 40.1504 22.0091 40.1294 22.0401L35.0241 29.2179C34.9527 29.3187 35.009 29.4789 35.1161 29.4789H38.2679C38.2865 29.4781 38.3047 29.4728 38.3208 29.4636C38.3369 29.4543 38.3506 29.4413 38.3607 29.4257L43.5351 22.0361C43.5556 22.0054 43.5666 21.9692 43.5666 21.9322C43.5666 21.8953 43.5556 21.8591 43.5351 21.8283L38.3647 14.6109C38.3541 14.5961 38.3402 14.584 38.3241 14.5756C38.308 14.5672 38.2901 14.5627 38.2719 14.5625Z" fill="black"/>
<path d="M30.3299 14.5625H33.5428C33.5706 14.5641 33.5975 14.5731 33.6208 14.5884C33.6441 14.6038 33.6629 14.625 33.6753 14.6499C33.6878 14.6748 33.6935 14.7026 33.6918 14.7304C33.6901 14.7582 33.6811 14.7851 33.6658 14.8084L23.9793 29.4122C23.9658 29.4326 23.9475 29.4492 23.9261 29.4609C23.9047 29.4725 23.8807 29.4787 23.8564 29.4789H20.637C20.6093 29.4771 20.5826 29.4682 20.5594 29.4529C20.5363 29.4376 20.5176 29.4165 20.5051 29.3917C20.4927 29.3669 20.487 29.3392 20.4885 29.3115C20.4901 29.2838 20.4989 29.257 20.5141 29.2338L30.2069 14.6299C30.2202 14.6094 30.2384 14.5924 30.2599 14.5807C30.2813 14.5689 30.3054 14.5627 30.3299 14.5625Z" fill="black"/>
<path d="M21.2455 33.726H19.6747V33.372C19.6747 33.0128 19.5875 32.705 19.4129 32.4485C19.2486 32.1818 18.9663 32.0484 18.5659 32.0484C18.3503 32.0484 18.1758 32.0894 18.0423 32.1715C17.9088 32.2536 17.801 32.3562 17.7189 32.4793C17.6368 32.6127 17.5803 32.7666 17.5495 32.941C17.5187 33.1052 17.5033 33.2796 17.5033 33.4643C17.5033 33.6798 17.5084 33.8593 17.5187 34.003C17.5392 34.1466 17.5803 34.2749 17.6419 34.3878C17.7035 34.5006 17.7908 34.5981 17.9037 34.6802C18.0269 34.7623 18.1912 34.8443 18.3965 34.9264L19.5977 35.4035C19.9468 35.5369 20.2291 35.696 20.4447 35.8806C20.6603 36.0551 20.8297 36.2603 20.9529 36.4963C21.0659 36.7425 21.1429 37.0247 21.1839 37.3428C21.225 37.6506 21.2455 38.0046 21.2455 38.4047C21.2455 38.8664 21.1993 39.2974 21.1069 39.6975C21.0145 40.0874 20.8657 40.4209 20.6603 40.6979C20.4447 40.9852 20.1624 41.211 19.8133 41.3751C19.4642 41.5393 19.0382 41.6214 18.5351 41.6214C18.1552 41.6214 17.801 41.5547 17.4725 41.4213C17.144 41.2879 16.8616 41.1032 16.6255 40.8672C16.3893 40.6312 16.1994 40.3593 16.0557 40.0515C15.9222 39.7335 15.8555 39.3897 15.8555 39.0203V38.4355H17.4263V38.928C17.4263 39.2153 17.5084 39.4769 17.6727 39.7129C17.8472 39.9387 18.1347 40.0515 18.5351 40.0515C18.802 40.0515 19.0074 40.0156 19.1511 39.9438C19.3051 39.8617 19.4232 39.7488 19.5053 39.6052C19.5875 39.4615 19.6337 39.2923 19.6439 39.0973C19.6645 38.8921 19.6747 38.6664 19.6747 38.4201C19.6747 38.1328 19.6645 37.8968 19.6439 37.7121C19.6234 37.5275 19.5823 37.3787 19.5207 37.2658C19.4488 37.1529 19.3513 37.0606 19.2281 36.9888C19.1152 36.917 18.9612 36.84 18.7661 36.7579L17.6419 36.2962C16.9643 36.0192 16.5074 35.6549 16.2713 35.2035C16.0454 34.7417 15.9325 34.1672 15.9325 33.4797C15.9325 33.0693 15.9889 32.6794 16.1019 32.31C16.2148 31.9406 16.3842 31.6226 16.6101 31.3558C16.8257 31.089 17.0978 30.8787 17.4263 30.7248C17.7651 30.5606 18.1655 30.4785 18.6275 30.4785C19.0176 30.4785 19.3718 30.5503 19.6901 30.694C20.0187 30.8376 20.301 31.0275 20.5371 31.2634C21.0094 31.7559 21.2455 32.3203 21.2455 32.9564V33.726Z" fill="black"/>
<path d="M25.1467 37.6967L24.3767 33.726H24.3459L23.5759 37.6967H25.1467ZM21.2658 41.529L23.7145 30.5709H25.0235L27.4721 41.529H25.9013L25.4393 39.1743H23.2986L22.8366 41.529H21.2658Z" fill="black"/>
<path d="M28.2052 41.529V30.5709H32.8869V32.0484H29.776V35.3728H32.4865V36.8503H29.776V41.529H28.2052Z" fill="black"/>
<path d="M33.4595 41.529V30.5709H38.1412V32.0484H35.0303V35.265H37.7408V36.7425H35.0303V39.9592H38.1412V41.529H33.4595Z" fill="black"/>
</g>
<defs>
<filter id="filter0_d_1782_22706" x="0" y="0" width="54" height="54" filterUnits="userSpaceOnUse" color-interpolation-filters="sRGB">
<feFlood flood-opacity="0" result="BackgroundImageFix"/>
<feColorMatrix in="SourceAlpha" type="matrix" values="0 0 0 0 0 0 0 0 0 0 0 0 0 0 0 0 0 0 127 0" result="hardAlpha"/>
<feOffset dy="1"/>
<feGaussianBlur stdDeviation="1"/>
<feComposite in2="hardAlpha" operator="out"/>
<feColorMatrix type="matrix" values="0 0 0 0 0 0 0 0 0 0 0 0 0 0 0 0 0 0 0.25 0"/>
<feBlend mode="normal" in2="BackgroundImageFix" result="effect1_dropShadow_1782_22706"/>
<feBlend mode="normal" in="SourceGraphic" in2="effect1_dropShadow_1782_22706" result="shape"/>
</filter>
<filter id="filter1_d_1782_22706" x="6.42969" y="8.37695" width="41.1367" height="39.2441" filterUnits="userSpaceOnUse" color-interpolation-filters="sRGB">
<feFlood flood-opacity="0" result="BackgroundImageFix"/>
<feColorMatrix in="SourceAlpha" type="matrix" values="0 0 0 0 0 0 0 0 0 0 0 0 0 0 0 0 0 0 127 0" result="hardAlpha"/>
<feOffset dy="2"/>
<feGaussianBlur stdDeviation="2"/>
<feComposite in2="hardAlpha" operator="out"/>
<feColorMatrix type="matrix" values="0 0 0 0 0.3625 0 0 0 0 0.3625 0 0 0 0 0.3625 0 0 0 0.25 0"/>
<feBlend mode="normal" in2="BackgroundImageFix" result="effect1_dropShadow_1782_22706"/>
<feBlend mode="normal" in="SourceGraphic" in2="effect1_dropShadow_1782_22706" result="shape"/>
</filter>
</defs>
</svg>
